{
.appVersion = "3306";
.formatVersion = 3;
DisplayStrings = (
"HILT
HIHIHIHEHEHEHOHOHO
LILILILI
LİLİLİ
LTLTLTOTOTO
THTHTHTH
TLTLTLTL
FIFIFIF
FLFLFLF
AVAVAVAVAVAV
AWAWAWAW
AYAYAYAYAY
YMYMYMY
YNYNYN
YEYEYEY
YOYOYO
YAYAYA
PAPAPA
TATATATA
WYWYWYWY
NANANA
OCOCOC
CDCDCD
ADADADAD
OAOAOA
CACACAC
OTOTOTOT
OHOHOH
ONONONON
NOMAD
STORY
BROTHER
PINKISH
KIKIKIKI
PANAMA
PRADA
DPDPDP
BRBRBRB
PROVA
ISTANBUL
IZMIR
A.A.A.A
T.T.T.T.
O!O!O!
AA?
DEDEDED
DIDIDIDI
PIPIPI
MIMIMI
NININI
VIVIVI
WIWIWI
KIKIKI
KSKSKS
KPKPKP
FAFAFAFA
SEYHAN
VA.
VARİS
SİNEMA
KESİR
FANİ
FM
FINALLER
LIMBO
DPDPDP
BRBRBRBRBR
BDBDBD
DRDRDR
avavavav
avcılık
awawawaw
oyooyyo
oaoaoaoa
ovovovov
DODODOD
RORORO
DPDPDP
XZXZXZX
XXXX
KYKYKY
OKOKOKOKKAKAKAKAK
KAKAKA
OYOYOYO
TYTYTYTYTY
ZZZZ
XYXYXYXYXY
Vana
Wana
Fani
Nana
Yangın
Talat
KYKYKY
OKOKOKO
KAKAKAKA
AKAKAKAK
OYOYOY
TYTYTYTYTY
OHOHOHO
NONONO
OMOMOMO
Vonder
Wonderful
fadime
Y.
V.
W.
F.
aaaa
bbbbccccoooo
eeeeccccccggggg
bobobo
vavavavava
wawawawaw
vyvyvyvy
wxwxwxwxwxw
vovovovov
owowowow
vxvxvxvxvxv
kavun
sabun
wywywy
vevevev
vc
vyvyvyvyv
fafafafaf
tatatata
rararara
alalal
fofofo
tototo
orororo
ololololo
frfrfr
rtrtrtrt
flflflfl
of
togagagaga
ayayayayayjajaajaj
jajajaja
kajAYAYÁYĂYÂYÄYÀYĀYĄYÅYÃYILILÍ01234567890LÎLÏLİLÌLĪLĮLNANÁNĂNÂNÄNÀNĀNĄ,

glyphs = (
{
glyphname = A;
kernLeft = A;
kernRight = A;
lastChange = "2024-09-04 11:19:47 +0000";
layers = (
{
anchors = (
{
name = ogonek;
pos = (948,0);
},
{
name = top;
pos = (977,800);
}
);
layerId = m01;
shapes = (
{
closed = 1;
nodes = (
(74,8,o),
(211,106,o),
(365,219,c),
(432,271,o),
(685,453,o),
(752,504,c),
(812,546,o),
(909,618,o),
(968,662,c),
(976,667,o),
(981,695,o),
(983,732,cs),
(985,766,o),
(978,802,o),
(976,800,cs),
(908,751,o),
(735,623,o),
(667,574,c),
(624,543,o),
(347,339,o),
(279,290,c),
(240,260,o),
(77,142,o),
(36,114,c),
(30,109,o),
(22,88,o),
(22,44,cs),
(22,-7,o),
(25,-28,o),
(28,-26,c)
);
},
{
closed = 1;
nodes = (
(467,239,o),
(536,240,o),
(554,241,c),
(577,241,o),
(743,243,o),
(768,244,c),
(780,244,o),
(931,246,o),
(957,246,c),
(964,253,o),
(969,277,o),
(970,313,cs),
(971,342,o),
(967,376,o),
(964,378,c),
(955,378,o),
(837,376,o),
(792,376,c),
(768,375,o),
(600,373,o),
(577,372,c),
(545,372,o),
(489,371,o),
(457,371,c),
(451,371,o),
(446,341,o),
(443,306,cs),
(440,274,o),
(446,246,o),
(449,239,c)
);
},
{
pos = (925,0);
ref = "stick-xxl-top.component";
}
);
width = 1100;
},
{
anchors = (
{
name = ogonek;
pos = (948,0);
},
{
name = top;
pos = (977,800);
}
);
layerId = "E3B43ECB-7726-4A5D-9A6F-096C3D942908";
shapes = (
{
closed = 1;
nodes = (
(75,-10,o),
(289,141,o),
(329,170,c),
(505,299,o),
(677,425,o),
(717,455,c),
(752,481,o),
(922,604,o),
(934,613,c),
(945,630,o),
(951,663,o),
(953,707,cs),
(954,728,o),
(953,795,o),
(944,800,c),
(895,764,o),
(803,697,o),
(634,572,c),
(590,540,o),
(287,318,o),
(245,287,c),
(209,261,o),
(82,172,o),
(46,145,c),
(34,137,o),
(27,73,o),
(27,52,cs),
(27,-6,o),
(30,-38,o),
(34,-42,c)
);
},
{
closed = 1;
nodes = (
(482,215,o),
(534,216,o),
(561,216,c),
(583,217,o),
(750,219,o),
(774,219,c),
(797,220,o),
(948,221,o),
(963,222,c),
(967,231,o),
(980,240,o),
(981,314,cs),
(982,383,o),
(977,397,o),
(973,400,c),
(969,399,o),
(880,398,o),
(801,398,c),
(703,397,o),
(679,396,o),
(585,395,c),
(513,394,o),
(472,394,o),
(465,393,c),
(452,384,o),
(448,356,o),
(444,311,cs),
(441,273,o),
(447,221,o),
(455,215,c)
);
},
{
pos = (893,0);
ref = "stick-xxl-top.component";
}
);
width = 1119;
},
{
anchors = (
{
name = ogonek;
pos = (948,0);
},
{
name = top;
pos = (977,800);
}
);
layerId = "76B40D95-58B1-4323-9BD9-765A1287C92C";
shapes = (
{
closed = 1;
nodes = (
(71,34,o),
(217,145,o),
(371,258,c),
(438,308,o),
(691,485,o),
(758,536,c),
(818,578,o),
(915,650,o),
(974,694,c),
(982,702,o),
(986,724,o),
(989,749,cs),
(992,778,o),
(984,802,o),
(982,800,cs),
(914,751,o),
(741,623,o),
(673,574,c),
(630,543,o),
(353,339,o),
(285,290,c),
(246,260,o),
(74,136,o),
(33,108,c),
(27,103,o),
(19,86,o),
(19,41,cs),
(19,18,o),
(22,-2,o),
(25,0,c)
);
},
{
closed = 1;
nodes = (
(460,260,o),
(529,261,o),
(547,262,c),
(570,262,o),
(736,264,o),
(761,265,c),
(773,265,o),
(924,267,o),
(950,267,c),
(957,274,o),
(960,292,o),
(963,310,cs),
(965,324,o),
(962,336,o),
(957,355,c),
(948,355,o),
(830,354,o),
(785,354,c),
(761,353,o),
(593,351,o),
(570,350,c),
(538,350,o),
(482,349,o),
(450,349,c),
(444,349,o),
(436,329,o),
(436,304,cs),
(436,285,o),
(439,267,o),
(442,260,c)
);
},
{
pos = (931,0);
ref = "stick-xxl-top.component";
}
);
width = 1085;
},
{
anchors = (
{
name = ogonek;
pos = (664,0);
},
{
name = top;
pos = (699,800);
}
);
layerId = m004;
shapes = (
{
closed = 1;
nodes = (
(50,34,o),
(155,145,o),
(265,258,c),
(312,308,o),
(493,485,o),
(541,536,c),
(583,578,o),
(653,650,o),
(695,694,c),
(701,702,o),
(704,724,o),
(706,749,cs),
(709,778,o),
(704,802,o),
(702,800,cs),
(654,751,o),
(530,623,o),
(482,574,c),
(451,543,o),
(253,339,o),
(205,290,c),
(177,260,o),
(54,136,o),
(25,108,c),
(21,103,o),
(15,86,o),
(14,41,cs),
(14,18,o),
(15,-2,o),
(18,0,c)
);
},
{
closed = 1;
nodes = (
(327,260,o),
(375,261,o),
(388,262,c),
(404,262,o),
(520,264,o),
(538,265,c),
(546,265,o),
(652,267,o),
(670,267,c),
(675,274,o),
(677,292,o),
(680,310,cs),
(682,324,o),
(680,336,o),
(677,355,c),
(670,355,o),
(588,354,o),
(556,354,c),
(539,353,o),
(422,351,o),
(406,350,c),
(383,350,o),
(344,349,o),
(322,349,c),
(317,349,o),
(311,329,o),
(311,304,cs),
(311,285,o),
(312,267,o),
(314,260,c)
);
},
{
pos = (652,0);
ref = "stick-xxl-top.component";
}
);
width = 760;
},
{
anchors = (
{
name = ogonek;
pos = (664,0);
},
{
name = top;
pos = (699,800);
}
);
layerId = m005;
shapes = (
{
closed = 1;
nodes = (
(52,8,o),
(150,106,o),
(260,219,c),
(307,271,o),
(488,453,o),
(536,504,c),
(579,546,o),
(648,618,o),
(690,662,c),
(696,667,o),
(700,695,o),
(702,732,cs),
(704,766,o),
(700,802,o),
(698,800,cs),
(650,751,o),
(526,623,o),
(478,574,c),
(447,543,o),
(249,339,o),
(201,290,c),
(173,260,o),
(57,142,o),
(27,114,c),
(23,109,o),
(17,88,o),
(16,44,cs),
(15,-7,o),
(17,-28,o),
(19,-26,c)
);
},
{
closed = 1;
nodes = (
(331,239,o),
(380,240,o),
(392,241,c),
(408,241,o),
(525,243,o),
(542,244,c),
(551,244,o),
(656,246,o),
(674,246,c),
(680,253,o),
(683,277,o),
(685,313,cs),
(686,342,o),
(684,376,o),
(682,378,c),
(676,378,o),
(593,376,o),
(561,376,c),
(545,375,o),
(427,373,o),
(411,372,c),
(388,372,o),
(349,371,o),
(327,371,c),
(323,371,o),
(319,341,o),
(316,306,cs),
(313,274,o),
(317,246,o),
(319,239,c)
);
},
{
pos = (648,0);
ref = "stick-xxl-top.component";
}
);
width = 770;
},
{
anchors = (
{
name = ogonek;
pos = (664,0);
},
{
name = top;
pos = (699,800);
}
);
layerId = m006;
shapes = (
{
closed = 1;
nodes = (
(52,-10,o),
(205,141,o),
(233,170,c),
(359,299,o),
(482,425,o),
(510,455,c),
(535,481,o),
(657,604,o),
(665,613,c),
(673,630,o),
(678,663,o),
(680,707,cs),
(681,728,o),
(682,795,o),
(676,800,c),
(641,764,o),
(575,697,o),
(454,572,c),
(423,540,o),
(207,318,o),
(177,287,c),
(151,261,o),
(61,172,o),
(35,145,c),
(26,137,o),
(20,73,o),
(20,52,cs),
(19,-6,o),
(20,-38,o),
(23,-42,c)
);
},
{
closed = 1;
nodes = (
(341,215,o),
(378,216,o),
(397,216,c),
(412,217,o),
(529,219,o),
(546,219,c),
(562,220,o),
(668,221,o),
(678,222,c),
(681,231,o),
(690,240,o),
(693,314,cs),
(695,383,o),
(691,397,o),
(689,400,c),
(686,399,o),
(623,398,o),
(568,398,c),
(500,397,o),
(483,396,o),
(417,395,c),
(366,394,o),
(338,394,o),
(333,393,c),
(324,384,o),
(320,356,o),
(317,311,cs),
(314,273,o),
(317,221,o),
(323,215,c)
);
},
{
pos = (625,0);
ref = "stick-xxl-top.component";
}
);
width = 783;
},
{
anchors = (
{
name = ogonek;
pos = (1327,0);
},
{
name = top;
pos = (1348,800);
}
);
layerId = m007;
shapes = (
{
closed = 1;
nodes = (
(99,34,o),
(300,145,o),
(513,258,c),
(606,308,o),
(955,485,o),
(1048,536,c),
(1131,578,o),
(1265,650,o),
(1346,694,c),
(1357,702,o),
(1362,724,o),
(1366,749,cs),
(1369,778,o),
(1358,802,o),
(1355,800,cs),
(1261,751,o),
(1022,623,o),
(928,574,c),
(868,543,o),
(486,339,o),
(392,290,c),
(338,260,o),
(100,136,o),
(44,108,c),
(35,103,o),
(24,86,o),
(26,41,cs),
(26,18,o),
(31,-2,o),
(35,0,c)
);
},
{
closed = 1;
nodes = (
(638,260,o),
(734,261,o),
(759,262,c),
(791,262,o),
(1024,264,o),
(1059,265,c),
(1076,265,o),
(1287,267,o),
(1323,267,c),
(1333,274,o),
(1337,292,o),
(1340,310,cs),
(1343,324,o),
(1338,336,o),
(1331,355,c),
(1318,355,o),
(1153,354,o),
(1090,354,c),
(1057,353,o),
(821,351,o),
(789,350,c),
(744,350,o),
(666,349,o),
(621,349,c),
(613,349,o),
(602,329,o),
(603,304,cs),
(603,285,o),
(608,267,o),
(612,260,c)
);
},
{
pos = (1303,0);
ref = "stick-xxl-top.component";
}
);
width = 1519;
},
{
anchors = (
{
name = ogonek;
pos = (1327,0);
},
{
name = top;
pos = (1348,800);
}
);
layerId = m008;
shapes = (
{
closed = 1;
nodes = (
(103,8,o),
(293,106,o),
(506,219,c),
(598,271,o),
(948,453,o),
(1040,504,c),
(1123,546,o),
(1257,618,o),
(1339,662,c),
(1350,667,o),
(1356,695,o),
(1358,732,cs),
(1360,766,o),
(1349,802,o),
(1346,800,cs),
(1252,751,o),
(1013,623,o),
(919,574,c),
(860,543,o),
(477,339,o),
(383,290,c),
(330,260,o),
(104,142,o),
(48,114,c),
(39,109,o),
(29,88,o),
(30,44,cs),
(31,-7,o),
(36,-28,o),
(40,-26,c)
);
},
{
closed = 1;
nodes = (
(648,239,o),
(744,240,o),
(770,241,c),
(802,241,o),
(1034,243,o),
(1069,244,c),
(1086,244,o),
(1297,246,o),
(1334,246,c),
(1343,253,o),
(1350,277,o),
(1350,313,cs),
(1351,342,o),
(1344,376,o),
(1340,378,c),
(1328,378,o),
(1162,376,o),
(1099,376,c),
(1066,375,o),
(831,373,o),
(799,372,c),
(754,372,o),
(675,371,o),
(631,371,c),
(622,371,o),
(616,341,o),
(613,306,cs),
(609,274,o),
(618,246,o),
(623,239,c)
);
},
{
pos = (1295,0);
ref = "stick-xxl-top.component";
}
);
width = 1540;
},
{
anchors = (
{
name = ogonek;
pos = (1327,0);
},
{
name = top;
pos = (1348,800);
}
);
layerId = m009;
shapes = (
{
closed = 1;
nodes = (
(105,-10,o),
(401,141,o),
(456,170,c),
(700,299,o),
(937,425,o),
(992,455,c),
(1041,481,o),
(1276,604,o),
(1292,613,c),
(1307,630,o),
(1315,663,o),
(1317,707,cs),
(1317,728,o),
(1314,795,o),
(1302,800,c),
(1234,764,o),
(1107,697,o),
(873,572,c),
(813,540,o),
(394,318,o),
(336,287,c),
(286,261,o),
(111,172,o),
(61,145,c),
(44,137,o),
(36,73,o),
(37,52,cs),
(38,-6,o),
(43,-38,o),
(49,-42,c)
);
},
{
closed = 1;
nodes = (
(669,215,o),
(742,216,o),
(780,216,c),
(811,217,o),
(1045,219,o),
(1078,219,c),
(1110,220,o),
(1322,221,o),
(1343,222,c),
(1348,231,o),
(1366,240,o),
(1366,314,cs),
(1365,383,o),
(1358,397,o),
(1352,400,c),
(1347,399,o),
(1222,398,o),
(1111,398,c),
(974,397,o),
(941,396,o),
(809,395,c),
(708,394,o),
(651,394,o),
(641,393,c),
(623,384,o),
(618,356,o),
(614,311,cs),
(611,273,o),
(620,221,o),
(632,215,c)
);
},
{
pos = (1250,0);
ref = "stick-xxl-top.component";
}
);
width = 1567;
}
);
unicode = 65;
},
{
glyphname = AE;
kernLeft = A;
lastChange = "2024-09-04 11:19:47 +0000";
layers = (
{
layerId = "76B40D95-58B1-4323-9BD9-765A1287C92C";
shapes = (
{
ref = A;
},
{
closed = 1;
nodes = (
(1454,-5,o),
(1592,24,o),
(1673,99,c),
(1685,109,o),
(1687,115,o),
(1689,131,c),
(1690,135,o),
(1692,161,o),
(1692,181,cs),
(1691,194,o),
(1689,204,o),
(1685,201,c),
(1636,127,o),
(1467,88,o),
(1297,81,cs),
(1090,72,o),
(970,88,o),
(954,91,c),
(931,0,l),
(964,-9,o),
(1091,-20,o),
(1279,-12,cs)
);
},
{
closed = 1;
nodes = (
(1135,380,o),
(1297,373,o),
(1461,406,c),
(1479,409,o),
(1485,475,o),
(1476,503,c),
(1315,467,o),
(993,474,o),
(970,457,c),
(966,444,o),
(966,367,o),
(967,367,c)
);
},
{
closed = 1;
nodes = (
(1210,689,o),
(1387,700,o),
(1588,726,c),
(1598,733,o),
(1601,815,o),
(1592,820,c),
(1370,789,o),
(1250,789,o),
(1014,800,c),
(1010,800,o),
(999,713,o),
(1009,706,c)
);
}
);
width = 1716;
},
{
layerId = m01;
shapes = (
{
ref = A;
},
{
closed = 1;
nodes = (
(1429,-34,o),
(1570,-11,o),
(1680,76,c),
(1687,83,o),
(1694,88,o),
(1695,99,c),
(1701,122,o),
(1702,148,o),
(1703,171,c),
(1703,177,o),
(1703,233,o),
(1693,220,c),
(1623,152,o),
(1483,111,o),
(1354,106,cs),
(1186,99,o),
(1026,113,o),
(952,135,c),
(926,0,l),
(991,-23,o),
(1139,-32,o),
(1289,-33,cs)
);
},
{
closed = 1;
nodes = (
(1129,355,o),
(1301,354,o),
(1469,379,cs),
(1482,381,o),
(1491,519,o),
(1482,519,c),
(1316,483,o),
(1139,492,o),
(970,479,c),
(956,471,o),
(951,351,o),
(963,341,c)
);
},
{
closed = 1;
nodes = (
(1212,655,o),
(1383,658,o),
(1582,686,c),
(1596,694,o),
(1602,815,o),
(1589,824,c),
(1389,796,o),
(1228,794,o),
(1025,800,c),
(1011,792,o),
(997,671,o),
(1009,662,c)
);
}
);
width = 1733;
},
{
layerId = "E3B43ECB-7726-4A5D-9A6F-096C3D942908";
shapes = (
{
ref = A;
},
{
closed = 1;
nodes = (
(1352,-38,o),
(1527,-18,o),
(1662,77,cs),
(1674,85,o),
(1680,102,o),
(1682,127,c),
(1683,154,o),
(1684,182,o),
(1685,209,c),
(1685,217,o),
(1688,281,o),
(1678,270,c),
(1575,183,o),
(1448,157,o),
(1313,151,cs),
(1183,145,o),
(1019,159,o),
(937,187,c),
(893,0,l),
(984,-24,o),
(1108,-37,o),
(1224,-37,cs)
);
},
{
closed = 1;
nodes = (
(1127,335,o),
(1295,326,o),
(1456,361,c),
(1475,369,o),
(1484,531,o),
(1467,540,c),
(1304,506,o),
(1137,514,o),
(972,501,c),
(954,493,o),
(945,332,o),
(962,322,c)
);
},
{
closed = 1;
nodes = (
(1242,625,o),
(1363,624,o),
(1573,660,c),
(1590,669,o),
(1600,830,o),
(1582,840,c),
(1373,803,o),
(1252,804,o),
(1039,800,c),
(1023,791,o),
(1013,631,o),
(1030,620,c)
);
}
);
width = 1721;
},
{
layerId = m004;
shapes = (
{
ref = A;
},
{
closed = 1;
nodes = (
(1018,-5,o),
(1115,24,o),
(1173,99,c),
(1182,109,o),
(1183,115,o),
(1185,131,c),
(1186,135,o),
(1187,161,o),
(1188,181,cs),
(1187,194,o),
(1186,204,o),
(1183,201,c),
(1148,127,o),
(1029,88,o),
(909,81,cs),
(764,72,o),
(681,88,o),
(669,91,c),
(652,0,l),
(675,-9,o),
(763,-20,o),
(895,-12,cs)
);
},
{
closed = 1;
nodes = (
(802,380,o),
(915,373,o),
(1030,406,c),
(1043,409,o),
(1048,475,o),
(1043,503,c),
(929,467,o),
(704,474,o),
(688,457,c),
(684,444,o),
(683,367,o),
(684,367,c)
);
},
{
closed = 1;
nodes = (
(860,689,o),
(984,700,o),
(1125,726,c),
(1132,733,o),
(1136,815,o),
(1130,820,c),
(974,789,o),
(890,789,o),
(725,800,c),
(722,800,o),
(713,713,o),
(719,706,c)
);
}
);
width = 1201;
},
{
layerId = m005;
shapes = (
{
ref = A;
},
{
closed = 1;
nodes = (
(1000,-34,o),
(1099,-11,o),
(1177,76,c),
(1182,83,o),
(1187,88,o),
(1188,99,c),
(1193,122,o),
(1194,148,o),
(1195,171,c),
(1195,177,o),
(1196,233,o),
(1189,220,c),
(1139,152,o),
(1040,111,o),
(950,106,cs),
(832,99,o),
(720,113,o),
(669,135,c),
(648,0,l),
(693,-23,o),
(797,-32,o),
(902,-33,cs)
);
},
{
closed = 1;
nodes = (
(797,355,o),
(917,354,o),
(1035,379,cs),
(1045,381,o),
(1053,519,o),
(1047,519,c),
(930,483,o),
(806,492,o),
(688,479,c),
(678,471,o),
(672,351,o),
(680,341,c)
);
},
{
closed = 1;
nodes = (
(861,655,o),
(980,658,o),
(1120,686,c),
(1130,694,o),
(1137,815,o),
(1128,824,c),
(987,796,o),
(874,794,o),
(732,800,c),
(722,792,o),
(710,671,o),
(719,662,c)
);
}
);
width = 1213;
},
{
layerId = m006;
shapes = (
{
ref = A;
},
{
closed = 1;
nodes = (
(946,-38,o),
(1069,-18,o),
(1165,77,cs),
(1173,85,o),
(1178,102,o),
(1180,127,c),
(1181,154,o),
(1182,182,o),
(1183,209,c),
(1184,217,o),
(1187,281,o),
(1180,270,c),
(1106,183,o),
(1017,157,o),
(922,151,cs),
(831,145,o),
(716,159,o),
(659,187,c),
(625,0,l),
(688,-24,o),
(775,-37,o),
(856,-37,cs)
);
},
{
closed = 1;
nodes = (
(795,335,o),
(913,326,o),
(1026,361,c),
(1039,369,o),
(1049,531,o),
(1037,540,c),
(922,506,o),
(806,514,o),
(690,501,c),
(677,493,o),
(668,332,o),
(679,322,c)
);
},
{
closed = 1;
nodes = (
(881,625,o),
(966,624,o),
(1113,660,c),
(1125,669,o),
(1136,830,o),
(1123,840,c),
(976,803,o),
(891,804,o),
(742,800,c),
(731,791,o),
(721,631,o),
(733,620,c)
);
}
);
width = 1205;
},
{
layerId = m007;
shapes = (
{
ref = A;
},
{
closed = 1;
nodes = (
(2036,-5,o),
(2228,24,o),
(2340,99,c),
(2356,109,o),
(2359,115,o),
(2361,131,c),
(2363,135,o),
(2365,161,o),
(2364,181,cs),
(2363,194,o),
(2360,204,o),
(2354,201,c),
(2287,127,o),
(2052,88,o),
(1814,81,cs),
(1524,72,o),
(1356,88,o),
(1333,91,c),
(1303,0,l),
(1350,-9,o),
(1528,-20,o),
(1791,-12,cs)
);
},
{
closed = 1;
nodes = (
(1580,380,o),
(1806,373,o),
(2035,406,c),
(2060,409,o),
(2067,475,o),
(2054,503,c),
(1829,467,o),
(1378,474,o),
(1347,457,c),
(1341,444,o),
(1343,367,o),
(1345,367,c)
);
},
{
closed = 1;
nodes = (
(1677,689,o),
(1924,700,o),
(2205,726,c),
(2219,733,o),
(2221,815,o),
(2208,820,c),
(1898,789,o),
(1730,789,o),
(1400,800,c),
(1394,800,o),
(1381,713,o),
(1395,706,c)
);
}
);
width = 2402;
},
{
layerId = m008;
shapes = (
{
ref = A;
},
{
closed = 1;
nodes = (
(2001,-34,o),
(2198,-11,o),
(2350,76,c),
(2360,83,o),
(2369,88,o),
(2371,99,c),
(2378,122,o),
(2379,148,o),
(2380,171,c),
(2380,177,o),
(2378,233,o),
(2365,220,c),
(2268,152,o),
(2073,111,o),
(1893,106,cs),
(1658,99,o),
(1434,113,o),
(1329,135,c),
(1296,0,l),
(1388,-23,o),
(1595,-32,o),
(1805,-33,cs)
);
},
{
closed = 1;
nodes = (
(1572,355,o),
(1813,354,o),
(2047,379,cs),
(2065,381,o),
(2074,519,o),
(2062,519,c),
(1830,483,o),
(1582,492,o),
(1346,479,c),
(1327,471,o),
(1323,351,o),
(1340,341,c)
);
},
{
closed = 1;
nodes = (
(1680,655,o),
(1920,658,o),
(2198,686,c),
(2217,694,o),
(2222,815,o),
(2204,824,c),
(1925,796,o),
(1699,794,o),
(1415,800,c),
(1396,792,o),
(1379,671,o),
(1396,662,c)
);
}
);
width = 2426;
},
{
layerId = m009;
shapes = (
{
ref = A;
},
{
closed = 1;
nodes = (
(1894,-38,o),
(2138,-18,o),
(2325,77,cs),
(2341,85,o),
(2349,102,o),
(2352,127,c),
(2352,154,o),
(2353,182,o),
(2354,209,c),
(2354,217,o),
(2356,281,o),
(2342,270,c),
(2200,183,o),
(2023,157,o),
(1834,151,cs),
(1653,145,o),
(1423,159,o),
(1307,187,c),
(1250,0,l),
(1378,-24,o),
(1552,-37,o),
(1715,-37,cs)
);
},
{
closed = 1;
nodes = (
(1569,335,o),
(1805,326,o),
(2029,361,c),
(2056,369,o),
(2064,531,o),
(2040,540,c),
(1813,506,o),
(1579,514,o),
(1348,501,c),
(1323,493,o),
(1315,332,o),
(1339,322,c)
);
},
{
closed = 1;
nodes = (
(1723,625,o),
(1893,624,o),
(2186,660,c),
(2209,669,o),
(2219,830,o),
(2194,840,c),
(1902,803,o),
(1733,804,o),
(1435,800,c),
(1412,791,o),
(1402,631,o),
(1427,620,c)
);
}
);
width = 2409;
}
);
metricLeft = A;
metricRight = E;
unicode = 198;
},
{
glyphname = B;
lastChange = "2024-09-04 11:19:47 +0000";
layers = (
{
layerId = m01;
shapes = (
{
closed = 1;
nodes = (
(668,4,o),
(819,47,o),
(891,143,c),
(929,192,o),
(942,263,o),
(942,311,c),
(943,333,o),
(944,353,o),
(941,379,cs),
(937,412,o),
(894,442,o),
(855,454,cs),
(810,468,o),
(766,475,o),
(727,477,c),
(746,483,o),
(786,498,o),
(812,512,cs),
(842,528,o),
(897,564,o),
(903,598,cs),
(908,627,o),
(915,700,o),
(904,737,c),
(894,765,o),
(857,786,o),
(827,797,c),
(757,824,o),
(648,830,o),
(574,827,c),
(416,819,o),
(241,778,o),
(132,740,c),
(118,729,o),
(111,704,o),
(110,670,cs),
(109,639,o),
(113,618,o),
(119,607,c),
(248,649,o),
(398,684,o),
(532,692,c),
(619,699,o),
(774,691,o),
(835,650,c),
(764,598,o),
(684,547,o),
(436,514,cs),
(399,509,o),
(284,498,o),
(278,497,c),
(269,492,o),
(267,467,o),
(263,430,cs),
(260,402,o),
(264,365,o),
(269,366,c),
(297,371,o),
(398,380,o),
(438,381,c),
(606,381,o),
(800,371,o),
(903,291,c),
(821,173,o),
(654,139,o),
(509,127,c),
(375,115,o),
(227,121,o),
(110,135,c),
(75,0,l),
(223,-16,o),
(383,-25,o),
(530,-9,c)
);
},
{
pos = (75,0);
ref = "stick-xl.component";
}
);
width = 1026;
},
{
layerId = "E3B43ECB-7726-4A5D-9A6F-096C3D942908";
shapes = (
{
closed = 1;
nodes = (
(656,-18,o),
(830,17,o),
(914,121,c),
(959,177,o),
(968,254,o),
(970,318,c),
(971,333,o),
(972,356,o),
(969,381,cs),
(964,425,o),
(916,453,o),
(869,465,cs),
(849,470,o),
(810,478,o),
(776,481,c),
(816,494,o),
(839,505,o),
(863,520,cs),
(900,543,o),
(931,574,o),
(935,601,c),
(939,647,o),
(943,713,o),
(933,754,c),
(922,781,o),
(887,800,o),
(852,812,c),
(772,839,o),
(675,840,o),
(595,837,c),
(446,830,o),
(275,805,o),
(135,744,c),
(116,732,o),
(104,694,o),
(104,647,cs),
(104,593,o),
(116,550,o),
(133,560,c),
(271,618,o),
(410,650,o),
(554,661,c),
(643,666,o),
(733,667,o),
(816,637,c),
(748,584,o),
(604,550,o),
(471,531,cs),
(424,524,o),
(361,516,o),
(298,512,c),
(295,511,o),
(282,468,o),
(280,424,cs),
(278,372,o),
(283,354,o),
(288,343,c),
(338,349,o),
(387,355,o),
(472,357,c),
(594,362,o),
(816,339,o),
(902,284,c),
(836,202,o),
(627,155,o),
(522,145,c),
(392,134,o),
(214,146,o),
(122,164,c),
(79,0,l),
(204,-34,o),
(395,-46,o),
(531,-31,c)
);
},
{
pos = (79,0);
ref = "stick-xl.component";
}
);
width = 1059;
},
{
layerId = "76B40D95-58B1-4323-9BD9-765A1287C92C";
shapes = (
{
closed = 1;
nodes = (
(506,-15,o),
(748,5,o),
(862,132,cs),
(896,170,o),
(919,218,o),
(925,278,cs),
(928,305,o),
(928,325,o),
(925,357,cs),
(920,400,o),
(871,436,o),
(822,448,cs),
(772,460,o),
(723,467,o),
(668,472,c),
(706,481,o),
(734,490,o),
(757,500,cs),
(811,523,o),
(871,562,o),
(883,603,cs),
(890,626,o),
(895,686,o),
(889,713,cs),
(881,742,o),
(861,762,o),
(814,780,c),
(740,803,o),
(664,813,o),
(587,812,cs),
(429,811,o),
(269,769,o),
(123,721,c),
(119,720,o),
(116,705,o),
(113,680,cs),
(111,663,o),
(112,630,o),
(118,632,c),
(239,673,o),
(417,717,o),
(581,720,cs),
(685,722,o),
(784,702,o),
(858,656,c),
(749,567,o),
(654,524,o),
(396,492,c),
(349,486,o),
(304,481,o),
(265,477,c),
(260,475,o),
(257,456,o),
(255,432,cs),
(253,410,o),
(255,388,o),
(261,389,c),
(287,394,o),
(337,400,o),
(405,403,cs),
(642,413,o),
(811,387,o),
(905,297,c),
(848,121,o),
(540,84,o),
(333,86,c),
(260,88,o),
(176,88,o),
(103,97,c),
(72,0,l),
(147,-9,o),
(259,-9,o),
(334,-11,c)
);
},
{
pos = (72,0);
ref = "stick-xl.component";
}
);
width = 1007;
},
{
associatedMasterId = "E3B43ECB-7726-4A5D-9A6F-096C3D942908";
layerId = "6F04A2F3-1D8A-4EF5-8E50-07C986179008";
name = "Aug 12, 24 at 17:53";
shapes = (
{
closed = 1;
nodes = (
(665,-18,o),
(839,17,o),
(923,121,c),
(968,177,o),
(977,254,o),
(979,318,c),
(980,339,o),
(981,402,o),
(973,421,c),
(967,439,o),
(948,454,o),
(927,465,c),
(910,474,o),
(882,485,o),
(874,488,c),
(886,497,o),
(899,506,o),
(910,517,c),
(934,543,o),
(940,575,o),
(944,602,c),
(948,648,o),
(952,713,o),
(942,754,c),
(931,781,o),
(896,800,o),
(861,812,c),
(781,839,o),
(684,840,o),
(604,837,c),
(455,830,o),
(272,800,o),
(132,739,c),
(124,734,o),
(113,694,o),
(113,647,cs),
(113,593,o),
(115,551,o),
(121,553,c),
(259,611,o),
(419,639,o),
(563,650,c),
(652,655,o),
(725,654,o),
(816,637,c),
(730,598,o),
(591,561,o),
(489,542,c),
(454,535,o),
(310,517,o),
(307,516,c),
(304,515,o),
(291,468,o),
(289,424,cs),
(287,371,o),
(293,334,o),
(297,331,c),
(315,334,o),
(447,345,o),
(488,347,c),
(610,352,o),
(788,339,o),
(911,284,c),
(845,202,o),
(636,163,o),
(531,153,c),
(401,142,o),
(217,156,o),
(131,187,c),
(88,0,l),
(213,-34,o),
(404,-46,o),
(540,-31,c)
);
},
{
pos = (88,0);
ref = "stick-xl.component";
}
);
width = 1076;
},
{
layerId = m004;
shapes = (
{
closed = 1;
nodes = (
(354,-15,o),
(524,5,o),
(606,132,cs),
(630,170,o),
(647,218,o),
(653,278,cs),
(655,305,o),
(656,325,o),
(654,357,cs),
(651,400,o),
(618,436,o),
(584,448,cs),
(549,460,o),
(515,467,o),
(476,472,c),
(503,481,o),
(523,490,o),
(539,500,cs),
(577,523,o),
(620,562,o),
(629,603,cs),
(635,626,o),
(639,686,o),
(636,713,cs),
(631,742,o),
(617,762,o),
(584,780,c),
(533,803,o),
(480,813,o),
(426,812,cs),
(315,811,o),
(203,769,o),
(100,721,c),
(97,720,o),
(94,705,o),
(92,680,cs),
(90,663,o),
(90,630,o),
(94,632,c),
(180,673,o),
(305,717,o),
(420,720,cs),
(493,722,o),
(562,702,o),
(613,656,c),
(535,567,o),
(468,524,o),
(286,492,c),
(253,486,o),
(222,481,o),
(194,477,c),
(191,475,o),
(188,456,o),
(187,432,cs),
(185,410,o),
(186,388,o),
(190,389,c),
(208,394,o),
(243,400,o),
(291,403,cs),
(457,413,o),
(575,387,o),
(639,297,c),
(596,121,o),
(380,84,o),
(235,86,c),
(184,88,o),
(125,88,o),
(74,97,c),
(50,0,l),
(103,-9,o),
(181,-9,o),
(234,-11,c)
);
},
{
pos = (50,0);
ref = "stick-xl.component";
}
);
width = 705;
},
{
layerId = m005;
shapes = (
{
closed = 1;
nodes = (
(468,4,o),
(574,47,o),
(626,143,c),
(654,192,o),
(664,263,o),
(665,311,c),
(666,333,o),
(667,353,o),
(666,379,cs),
(664,412,o),
(634,442,o),
(607,454,cs),
(576,468,o),
(545,475,o),
(518,477,c),
(531,483,o),
(560,498,o),
(578,512,cs),
(599,528,o),
(638,564,o),
(643,598,cs),
(647,627,o),
(654,700,o),
(647,737,c),
(640,765,o),
(615,786,o),
(594,797,c),
(545,824,o),
(469,830,o),
(417,827,c),
(306,819,o),
(183,778,o),
(106,740,c),
(96,729,o),
(91,704,o),
(90,670,cs),
(88,639,o),
(91,618,o),
(95,607,c),
(186,649,o),
(291,684,o),
(385,692,c),
(446,699,o),
(555,691,o),
(597,650,c),
(546,598,o),
(489,547,o),
(315,514,cs),
(289,509,o),
(208,498,o),
(204,497,c),
(197,492,o),
(196,467,o),
(192,430,cs),
(190,402,o),
(192,365,o),
(195,366,c),
(215,371,o),
(286,380,o),
(314,381,c),
(431,381,o),
(567,371,o),
(638,291,c),
(578,173,o),
(460,139,o),
(359,127,c),
(265,115,o),
(161,121,o),
(80,135,c),
(53,0,l),
(156,-16,o),
(268,-25,o),
(371,-9,c)
);
},
{
pos = (53,0);
ref = "stick-xl.component";
}
);
width = 718;
},
{
layerId = m006;
shapes = (
{
closed = 1;
nodes = (
(459,-18,o),
(581,17,o),
(642,121,c),
(675,177,o),
(682,254,o),
(685,318,c),
(686,333,o),
(687,356,o),
(685,381,cs),
(683,425,o),
(650,453,o),
(617,465,cs),
(603,470,o),
(576,478,o),
(552,481,c),
(580,494,o),
(597,505,o),
(614,520,cs),
(640,543,o),
(662,574,o),
(666,601,c),
(669,647,o),
(673,713,o),
(667,754,c),
(660,781,o),
(636,800,o),
(612,812,c),
(556,839,o),
(488,840,o),
(432,837,c),
(328,830,o),
(208,805,o),
(108,744,c),
(95,732,o),
(86,694,o),
(85,647,cs),
(84,593,o),
(91,550,o),
(104,560,c),
(201,618,o),
(299,650,o),
(400,661,c),
(463,666,o),
(526,667,o),
(583,637,c),
(535,584,o),
(433,550,o),
(340,531,cs),
(307,524,o),
(262,516,o),
(218,512,c),
(216,511,o),
(206,468,o),
(204,424,cs),
(202,372,o),
(205,354,o),
(208,343,c),
(243,349,o),
(278,355,o),
(337,357,c),
(423,362,o),
(578,339,o),
(637,284,c),
(589,202,o),
(442,155,o),
(368,145,c),
(277,134,o),
(153,146,o),
(88,164,c),
(55,0,l),
(142,-34,o),
(276,-46,o),
(371,-31,c)
);
},
{
pos = (55,0);
ref = "stick-xl.component";
}
);
width = 741;
},
{
associatedMasterId = m006;
layerId = "F988E292-EA9A-4771-BD7A-43FABA8881CC";
name = "Aug 12, 24 at 17:53";
shapes = (
{
closed = 1;
nodes = (
(665,-18,o),
(839,17,o),
(923,121,c),
(968,177,o),
(977,254,o),
(979,318,c),
(980,339,o),
(981,402,o),
(973,421,c),
(967,439,o),
(948,454,o),
(927,465,c),
(910,474,o),
(882,485,o),
(874,488,c),
(886,497,o),
(899,506,o),
(910,517,c),
(934,543,o),
(940,575,o),
(944,602,c),
(948,648,o),
(952,713,o),
(942,754,c),
(931,781,o),
(896,800,o),
(861,812,c),
(781,839,o),
(684,840,o),
(604,837,c),
(455,830,o),
(272,800,o),
(132,739,c),
(124,734,o),
(113,694,o),
(113,647,cs),
(113,593,o),
(115,551,o),
(121,553,c),
(259,611,o),
(419,639,o),
(563,650,c),
(652,655,o),
(725,654,o),
(816,637,c),
(730,598,o),
(591,561,o),
(489,542,c),
(454,535,o),
(310,517,o),
(307,516,c),
(304,515,o),
(291,468,o),
(289,424,cs),
(287,371,o),
(293,334,o),
(297,331,c),
(315,334,o),
(447,345,o),
(488,347,c),
(610,352,o),
(788,339,o),
(911,284,c),
(845,202,o),
(636,163,o),
(531,153,c),
(401,142,o),
(217,156,o),
(131,187,c),
(88,0,l),
(213,-34,o),
(404,-46,o),
(540,-31,c)
);
},
{
pos = (88,0);
ref = "stick-xl.component";
}
);
width = 1076;
},
{
layerId = m007;
shapes = (
{
closed = 1;
nodes = (
(709,-15,o),
(1047,5,o),
(1204,132,cs),
(1250,170,o),
(1281,218,o),
(1288,278,cs),
(1292,305,o),
(1291,325,o),
(1286,357,cs),
(1278,400,o),
(1209,436,o),
(1140,448,cs),
(1069,460,o),
(1001,467,o),
(923,472,c),
(976,481,o),
(1015,490,o),
(1047,500,cs),
(1122,523,o),
(1205,562,o),
(1221,603,cs),
(1230,626,o),
(1236,686,o),
(1227,713,cs),
(1215,742,o),
(1186,762,o),
(1120,780,c),
(1016,803,o),
(909,813,o),
(802,812,cs),
(580,811,o),
(357,769,o),
(154,721,c),
(149,720,o),
(145,705,o),
(141,680,cs),
(139,663,o),
(141,630,o),
(149,632,c),
(318,673,o),
(566,717,o),
(795,720,cs),
(941,722,o),
(1080,702,o),
(1185,656,c),
(1034,567,o),
(903,524,o),
(542,492,c),
(476,486,o),
(414,481,o),
(359,477,c),
(352,475,o),
(348,456,o),
(346,432,cs),
(344,410,o),
(347,388,o),
(356,389,c),
(392,394,o),
(462,400,o),
(557,403,cs),
(888,413,o),
(1126,387,o),
(1260,297,c),
(1184,121,o),
(754,84,o),
(464,86,c),
(362,88,o),
(244,88,o),
(142,97,c),
(101,0,l),
(206,-9,o),
(363,-9,o),
(468,-11,c)
);
},
{
pos = (101,0);
ref = "stick-xl.component";
}
);
width = 1410;
},
{
layerId = m008;
shapes = (
{
closed = 1;
nodes = (
(935,4,o),
(1145,47,o),
(1244,143,c),
(1296,192,o),
(1312,263,o),
(1311,311,c),
(1312,333,o),
(1313,353,o),
(1308,379,cs),
(1302,412,o),
(1241,442,o),
(1186,454,cs),
(1122,468,o),
(1061,475,o),
(1006,477,c),
(1032,483,o),
(1088,498,o),
(1124,512,cs),
(1166,528,o),
(1242,564,o),
(1249,598,cs),
(1256,627,o),
(1264,700,o),
(1247,737,c),
(1233,765,o),
(1180,786,o),
(1138,797,c),
(1039,824,o),
(886,830,o),
(783,827,c),
(562,819,o),
(318,778,o),
(166,740,c),
(147,729,o),
(138,704,o),
(137,670,cs),
(137,639,o),
(143,618,o),
(151,607,c),
(331,649,o),
(540,684,o),
(728,692,c),
(849,699,o),
(1066,691,o),
(1153,650,c),
(1055,598,o),
(944,547,o),
(598,514,cs),
(546,509,o),
(385,498,o),
(377,497,c),
(364,492,o),
(362,467,o),
(357,430,cs),
(354,402,o),
(360,365,o),
(367,366,c),
(407,371,o),
(548,380,o),
(604,381,c),
(839,381,o),
(1111,371,o),
(1257,291,c),
(1145,173,o),
(912,139,o),
(709,127,c),
(522,115,o),
(315,121,o),
(151,135,c),
(105,0,l),
(313,-16,o),
(537,-25,o),
(742,-9,c)
);
},
{
pos = (105,0);
ref = "stick-xl.component";
}
);
width = 1436;
},
{
layerId = m009;
shapes = (
{
closed = 1;
nodes = (
(919,-18,o),
(1162,17,o),
(1277,121,c),
(1338,177,o),
(1349,254,o),
(1350,318,c),
(1351,333,o),
(1352,356,o),
(1347,381,cs),
(1339,425,o),
(1271,453,o),
(1205,465,cs),
(1177,470,o),
(1122,478,o),
(1074,481,c),
(1130,494,o),
(1162,505,o),
(1195,520,cs),
(1246,543,o),
(1289,574,o),
(1294,601,c),
(1298,647,o),
(1302,713,o),
(1287,754,c),
(1271,781,o),
(1222,800,o),
(1173,812,c),
(1060,839,o),
(924,840,o),
(812,837,c),
(604,830,o),
(365,805,o),
(170,744,c),
(144,732,o),
(128,694,o),
(129,647,cs),
(131,593,o),
(149,550,o),
(172,560,c),
(364,618,o),
(558,650,o),
(759,661,c),
(884,666,o),
(1010,667,o),
(1126,637,c),
(1033,584,o),
(832,550,o),
(646,531,cs),
(581,524,o),
(493,516,o),
(404,512,c),
(400,511,o),
(383,468,o),
(381,424,cs),
(380,372,o),
(387,354,o),
(395,343,c),
(464,349,o),
(533,355,o),
(652,357,c),
(823,362,o),
(1134,339,o),
(1256,284,c),
(1165,202,o),
(874,155,o),
(727,145,c),
(545,134,o),
(296,146,o),
(167,164,c),
(111,0,l),
(286,-34,o),
(554,-46,o),
(744,-31,c)
);
},
{
pos = (111,0);
ref = "stick-xl.component";
}
);
width = 1483;
},
{
associatedMasterId = m009;
layerId = "91130581-6D7C-4F6C-A4D6-A67E4A08F82A";
name = "Aug 12, 24 at 17:53";
shapes = (
{
closed = 1;
nodes = (
(665,-18,o),
(839,17,o),
(923,121,c),
(968,177,o),
(977,254,o),
(979,318,c),
(980,339,o),
(981,402,o),
(973,421,c),
(967,439,o),
(948,454,o),
(927,465,c),
(910,474,o),
(882,485,o),
(874,488,c),
(886,497,o),
(899,506,o),
(910,517,c),
(934,543,o),
(940,575,o),
(944,602,c),
(948,648,o),
(952,713,o),
(942,754,c),
(931,781,o),
(896,800,o),
(861,812,c),
(781,839,o),
(684,840,o),
(604,837,c),
(455,830,o),
(272,800,o),
(132,739,c),
(124,734,o),
(113,694,o),
(113,647,cs),
(113,593,o),
(115,551,o),
(121,553,c),
(259,611,o),
(419,639,o),
(563,650,c),
(652,655,o),
(725,654,o),
(816,637,c),
(730,598,o),
(591,561,o),
(489,542,c),
(454,535,o),
(310,517,o),
(307,516,c),
(304,515,o),
(291,468,o),
(289,424,cs),
(287,371,o),
(293,334,o),
(297,331,c),
(315,334,o),
(447,345,o),
(488,347,c),
(610,352,o),
(788,339,o),
(911,284,c),
(845,202,o),
(636,163,o),
(531,153,c),
(401,142,o),
(217,156,o),
(131,187,c),
(88,0,l),
(213,-34,o),
(404,-46,o),
(540,-31,c)
);
},
{
pos = (88,0);
ref = "stick-xl.component";
}
);
width = 1076;
}
);
unicode = 66;
},
{
glyphname = C;
lastChange = "2024-09-04 11:19:47 +0000";
layers = (
{
anchors = (
{
name = bottom;
pos = (527,-11);
},
{
name = top;
pos = (554,800);
}
);
layerId = m01;
shapes = (
{
closed = 1;
nodes = (
(624,-27,o),
(778,24,o),
(911,179,cs),
(936,209,o),
(951,229,o),
(968,263,c),
(979,282,o),
(982,370,o),
(976,390,c),
(976,398,o),
(969,399,o),
(965,390,cs),
(944,346,o),
(889,284,o),
(851,252,cs),
(744,161,o),
(613,110,o),
(452,113,cs),
(304,116,o),
(120,175,o),
(88,335,c),
(142,552,o),
(440,683,o),
(641,683,cs),
(726,683,o),
(809,659,o),
(846,585,cs),
(850,577,o),
(855,580,o),
(856,586,cs),
(860,612,o),
(871,694,o),
(860,715,c),
(823,793,o),
(742,823,o),
(652,824,cs),
(457,826,o),
(145,709,o),
(76,427,cs),
(64,376,o),
(61,279,o),
(67,227,cs),
(71,194,o),
(85,159,o),
(103,130,cs),
(172,16,o),
(316,-25,o),
(453,-26,cs)
);
}
);
width = 1031;
},
{
anchors = (
{
name = bottom;
pos = (529,-20);
},
{
name = top;
pos = (554,800);
}
);
layerId = "E3B43ECB-7726-4A5D-9A6F-096C3D942908";
shapes = (
{
closed = 1;
nodes = (
(582,-40,o),
(777,3,o),
(912,164,cs),
(932,188,o),
(951,214,o),
(967,245,c),
(981,277,o),
(981,371,o),
(981,410,cs),
(981,430,o),
(969,420,o),
(963,410,c),
(942,372,o),
(893,310,o),
(855,279,cs),
(743,187,o),
(608,142,o),
(450,145,cs),
(316,148,o),
(150,211,o),
(107,343,c),
(193,551,o),
(447,654,o),
(636,654,cs),
(722,654,o),
(794,629,o),
(831,560,c),
(836,550,o),
(847,561,o),
(847,564,c),
(856,586,o),
(866,696,o),
(853,730,c),
(815,808,o),
(742,835,o),
(654,836,cs),
(448,839,o),
(149,722,o),
(87,445,cs),
(72,377,o),
(68,284,o),
(77,215,cs),
(82,181,o),
(93,146,o),
(111,117,cs),
(175,13,o),
(305,-33,o),
(439,-36,cs)
);
}
);
width = 1039;
},
{
anchors = (
{
name = bottom;
pos = (522,-6);
},
{
name = top;
pos = (554,800);
}
);
layerId = "76B40D95-58B1-4323-9BD9-765A1287C92C";
shapes = (
{
closed = 1;
nodes = (
(645,-19,o),
(818,69,o),
(923,207,cs),
(940,230,o),
(956,254,o),
(969,280,c),
(974,299,o),
(974,351,o),
(974,364,c),
(974,372,o),
(971,377,o),
(966,366,cs),
(951,337,o),
(912,283,o),
(876,247,cs),
(763,135,o),
(604,77,o),
(447,80,cs),
(279,84,o),
(101,152,o),
(81,331,c),
(112,492,o),
(324,710,o),
(631,714,cs),
(715,715,o),
(794,693,o),
(838,614,cs),
(845,602,o),
(845,601,o),
(849,615,cs),
(854,637,o),
(857,688,o),
(850,700,c),
(811,785,o),
(725,811,o),
(638,811,cs),
(419,811,o),
(127,666,o),
(71,411,cs),
(61,364,o),
(57,321,o),
(59,283,cs),
(61,247,o),
(68,216,o),
(79,187,cs),
(131,51,o),
(274,-14,o),
(440,-16,cs)
);
}
);
width = 1022;
},
{
anchors = (
{
name = bottom;
pos = (365,-6);
},
{
name = top;
pos = (403,800);
}
);
layerId = m004;
shapes = (
{
closed = 1;
nodes = (
(451,-19,o),
(574,69,o),
(650,207,cs),
(662,230,o),
(674,254,o),
(684,280,c),
(687,299,o),
(688,351,o),
(689,364,c),
(689,372,o),
(687,377,o),
(683,366,cs),
(672,337,o),
(644,283,o),
(618,247,cs),
(537,135,o),
(424,77,o),
(314,80,cs),
(197,84,o),
(74,152,o),
(63,331,c),
(88,492,o),
(240,710,o),
(455,714,cs),
(514,715,o),
(569,693,o),
(598,614,cs),
(603,602,o),
(603,601,o),
(606,615,cs),
(610,637,o),
(613,688,o),
(608,700,c),
(582,785,o),
(523,811,o),
(462,811,cs),
(308,811,o),
(101,666,o),
(57,411,cs),
(49,364,o),
(46,321,o),
(47,283,cs),
(47,247,o),
(52,216,o),
(59,187,cs),
(93,51,o),
(192,-14,o),
(308,-16,cs)
);
}
);
width = 715;
},
{
anchors = (
{
name = bottom;
pos = (369,-11);
},
{
name = top;
pos = (403,800);
}
);
layerId = m005;
shapes = (
{
closed = 1;
nodes = (
(436,-27,o),
(545,24,o),
(641,179,cs),
(659,209,o),
(670,229,o),
(683,263,c),
(691,282,o),
(694,370,o),
(690,390,c),
(691,398,o),
(686,399,o),
(683,390,cs),
(667,346,o),
(628,284,o),
(600,252,cs),
(524,161,o),
(431,110,o),
(319,113,cs),
(215,116,o),
(87,175,o),
(68,335,c),
(110,552,o),
(321,683,o),
(461,683,cs),
(521,683,o),
(579,659,o),
(603,585,cs),
(606,577,o),
(609,580,o),
(610,586,cs),
(613,612,o),
(623,694,o),
(615,715,c),
(591,793,o),
(535,823,o),
(472,824,cs),
(335,826,o),
(115,709,o),
(61,427,cs),
(52,376,o),
(48,279,o),
(51,227,cs),
(53,194,o),
(62,159,o),
(75,130,cs),
(121,16,o),
(221,-25,o),
(317,-26,cs)
);
}
);
width = 722;
},
{
anchors = (
{
name = bottom;
pos = (370,-20);
},
{
name = top;
pos = (403,800);
}
);
layerId = m006;
shapes = (
{
closed = 1;
nodes = (
(407,-40,o),
(544,3,o),
(641,164,cs),
(656,188,o),
(670,214,o),
(681,245,c),
(692,277,o),
(694,371,o),
(694,410,cs),
(695,430,o),
(686,420,o),
(682,410,c),
(666,372,o),
(631,310,o),
(604,279,cs),
(524,187,o),
(428,142,o),
(318,145,cs),
(224,148,o),
(109,211,o),
(81,343,c),
(145,551,o),
(325,654,o),
(457,654,cs),
(518,654,o),
(568,629,o),
(592,560,c),
(595,550,o),
(603,561,o),
(603,564,c),
(610,586,o),
(619,696,o),
(611,730,c),
(586,808,o),
(535,835,o),
(473,836,cs),
(329,839,o),
(118,722,o),
(69,445,cs),
(57,377,o),
(53,284,o),
(58,215,cs),
(61,181,o),
(68,146,o),
(80,117,cs),
(123,13,o),
(213,-33,o),
(307,-36,cs)
);
}
);
width = 727;
},
{
anchors = (
{
name = bottom;
pos = (731,-6);
},
{
name = top;
pos = (756,800);
}
);
layerId = m007;
shapes = (
{
closed = 1;
nodes = (
(903,-19,o),
(1143,69,o),
(1287,207,cs),
(1310,230,o),
(1332,254,o),
(1350,280,c),
(1356,299,o),
(1355,351,o),
(1355,364,c),
(1354,372,o),
(1350,377,o),
(1343,366,cs),
(1323,337,o),
(1270,283,o),
(1220,247,cs),
(1065,135,o),
(844,77,o),
(624,80,cs),
(389,84,o),
(138,152,o),
(105,331,c),
(145,492,o),
(436,710,o),
(866,714,cs),
(983,715,o),
(1094,693,o),
(1158,614,cs),
(1168,602,o),
(1168,601,o),
(1173,615,cs),
(1180,637,o),
(1183,688,o),
(1173,700,c),
(1116,785,o),
(995,811,o),
(873,811,cs),
(566,811,o),
(161,666,o),
(89,411,cs),
(76,364,o),
(72,321,o),
(76,283,cs),
(79,247,o),
(90,216,o),
(106,187,cs),
(182,51,o),
(384,-14,o),
(616,-16,cs)
);
}
);
width = 1431;
},
{
anchors = (
{
name = bottom;
pos = (738,-11);
},
{
name = top;
pos = (756,800);
}
);
layerId = m008;
shapes = (
{
closed = 1;
nodes = (
(874,-27,o),
(1089,24,o),
(1271,179,cs),
(1305,209,o),
(1326,229,o),
(1349,263,c),
(1364,282,o),
(1366,370,o),
(1357,390,c),
(1356,398,o),
(1347,399,o),
(1341,390,cs),
(1313,346,o),
(1238,284,o),
(1185,252,cs),
(1038,161,o),
(855,110,o),
(630,113,cs),
(423,116,o),
(164,175,o),
(115,335,c),
(185,552,o),
(599,683,o),
(880,683,cs),
(999,683,o),
(1116,659,o),
(1170,585,cs),
(1176,577,o),
(1183,580,o),
(1184,586,cs),
(1189,612,o),
(1202,694,o),
(1186,715,c),
(1132,793,o),
(1018,823,o),
(892,824,cs),
(619,826,o),
(185,709,o),
(96,427,cs),
(80,376,o),
(78,279,o),
(88,227,cs),
(95,194,o),
(115,159,o),
(141,130,cs),
(240,16,o),
(443,-25,o),
(635,-26,cs)
);
}
);
width = 1443;
},
{
anchors = (
{
name = bottom;
pos = (741,-20);
},
{
name = top;
pos = (756,800);
}
);
layerId = m009;
shapes = (
{
closed = 1;
nodes = (
(816,-40,o),
(1088,3,o),
(1273,164,cs),
(1300,188,o),
(1326,214,o),
(1348,245,c),
(1366,277,o),
(1364,371,o),
(1363,410,cs),
(1363,430,o),
(1346,420,o),
(1338,410,c),
(1310,372,o),
(1242,310,o),
(1190,279,cs),
(1036,187,o),
(848,142,o),
(626,145,cs),
(439,148,o),
(205,211,o),
(141,343,c),
(256,551,o),
(609,654,o),
(874,654,cs),
(994,654,o),
(1096,629,o),
(1149,560,c),
(1157,550,o),
(1172,561,o),
(1172,564,c),
(1184,586,o),
(1195,696,o),
(1176,730,c),
(1121,808,o),
(1018,835,o),
(895,836,cs),
(606,839,o),
(191,722,o),
(111,445,cs),
(91,377,o),
(88,284,o),
(102,215,cs),
(110,181,o),
(127,146,o),
(152,117,cs),
(245,13,o),
(428,-33,o),
(615,-36,cs)
);
}
);
width = 1455;
}
);
unicode = 67;
},
{
glyphname = D;
lastChange = "2024-09-04 11:19:47 +0000";
layers = (
{
anchors = (
{
name = top;
pos = (524,800);
}
);
layerId = m01;
shapes = (
{
closed = 1;
nodes = (
(567,-13,o),
(789,50,o),
(907,221,cs),
(940,272,o),
(960,328,o),
(970,388,cs),
(982,454,o),
(992,554,o),
(959,629,cs),
(894,773,o),
(706,828,o),
(551,826,cs),
(404,824,o),
(243,775,o),
(124,713,c),
(115,711,o),
(112,682,o),
(109,645,cs),
(106,602,o),
(112,572,o),
(118,574,c),
(254,638,o),
(397,681,o),
(536,684,cs),
(699,688,o),
(924,614,o),
(954,463,c),
(912,337,o),
(841,266,o),
(734,208,cs),
(614,146,o),
(475,124,o),
(364,121,cs),
(291,119,o),
(206,125,o),
(114,138,c),
(75,0,l),
(157,-21,o),
(271,-24,o),
(366,-21,cs)
);
},
{
pos = (75,0);
ref = "stick-xl.component";
}
);
width = 1045;
},
{
anchors = (
{
name = top;
pos = (536,800);
}
);
layerId = "E3B43ECB-7726-4A5D-9A6F-096C3D942908";
shapes = (
{
closed = 1;
nodes = (
(582,-35,o),
(798,34,o),
(918,195,cs),
(955,246,o),
(978,303,o),
(990,363,cs),
(1004,432,o),
(1019,567,o),
(985,642,cs),
(913,787,o),
(713,836,o),
(554,835,cs),
(405,833,o),
(248,794,o),
(128,734,c),
(122,732,o),
(108,691,o),
(105,645,cs),
(102,595,o),
(103,543,o),
(115,547,c),
(250,609,o),
(402,648,o),
(541,650,cs),
(680,652,o),
(913,600,o),
(968,462,c),
(937,372,o),
(858,288,o),
(746,231,cs),
(627,170,o),
(486,151,o),
(357,148,cs),
(260,146,o),
(172,169,o),
(115,180,c),
(79,0,l),
(168,-30,o),
(259,-39,o),
(356,-38,cs)
);
},
{
pos = (79,0);
ref = "stick-xl.component";
}
);
width = 1076;
},
{
anchors = (
{
name = top;
pos = (504,800);
}
);
layerId = "76B40D95-58B1-4323-9BD9-765A1287C92C";
shapes = (
{
closed = 1;
nodes = (
(554,-29,o),
(782,45,o),
(892,213,cs),
(929,269,o),
(957,333,o),
(965,402,cs),
(972,468,o),
(978,543,o),
(952,605,cs),
(894,742,o),
(712,817,o),
(542,815,cs),
(380,814,o),
(239,758,o),
(120,698,c),
(115,694,o),
(111,669,o),
(109,645,cs),
(108,621,o),
(109,599,o),
(114,598,c),
(240,663,o),
(392,714,o),
(541,715,cs),
(726,717,o),
(898,632,o),
(944,463,c),
(924,363,o),
(868,282,o),
(791,219,cs),
(670,122,o),
(500,72,o),
(342,71,cs),
(282,71,o),
(151,86,o),
(91,94,c),
(72,0,l),
(151,-24,o),
(248,-29,o),
(329,-29,cs)
);
},
{
pos = (72,0);
ref = "stick-xl.component";
}
);
width = 1031;
},
{
anchors = (
{
name = top;
pos = (368,800);
}
);
layerId = m004;
shapes = (
{
closed = 1;
nodes = (
(387,-29,o),
(548,45,o),
(628,213,cs),
(655,269,o),
(676,333,o),
(683,402,cs),
(689,468,o),
(695,543,o),
(678,605,cs),
(640,742,o),
(514,817,o),
(395,815,cs),
(281,814,o),
(181,758,o),
(97,698,c),
(93,694,o),
(90,669,o),
(88,645,cs),
(87,621,o),
(87,599,o),
(91,598,c),
(180,663,o),
(288,714,o),
(392,715,cs),
(522,717,o),
(640,632,o),
(669,463,c),
(654,363,o),
(613,282,o),
(558,219,cs),
(471,122,o),
(351,72,o),
(241,71,cs),
(199,71,o),
(107,86,o),
(65,94,c),
(50,0,l),
(105,-24,o),
(173,-29,o),
(230,-29,cs)
);
},
{
pos = (50,0);
ref = "stick-xl.component";
}
);
width = 722;
},
{
anchors = (
{
name = top;
pos = (382,800);
}
);
layerId = m005;
shapes = (
{
closed = 1;
nodes = (
(397,-13,o),
(553,50,o),
(639,221,cs),
(663,272,o),
(678,328,o),
(686,388,cs),
(696,454,o),
(705,554,o),
(683,629,cs),
(640,773,o),
(510,828,o),
(401,826,cs),
(298,824,o),
(185,775,o),
(100,713,c),
(94,711,o),
(91,682,o),
(88,645,cs),
(85,602,o),
(89,572,o),
(93,574,c),
(190,638,o),
(291,681,o),
(388,684,cs),
(502,688,o),
(658,614,o),
(676,463,c),
(645,337,o),
(594,266,o),
(518,208,cs),
(433,146,o),
(335,124,o),
(257,121,cs),
(206,119,o),
(147,125,o),
(82,138,c),
(53,0,l),
(110,-21,o),
(189,-24,o),
(256,-21,cs)
);
},
{
pos = (53,0);
ref = "stick-xl.component";
}
);
width = 732;
},
{
anchors = (
{
name = top;
pos = (390,800);
}
);
layerId = m006;
shapes = (
{
closed = 1;
nodes = (
(407,-35,o),
(559,34,o),
(646,195,cs),
(673,246,o),
(690,303,o),
(700,363,cs),
(711,432,o),
(724,567,o),
(701,642,cs),
(654,787,o),
(515,836,o),
(403,835,cs),
(299,833,o),
(188,794,o),
(103,734,c),
(99,732,o),
(89,691,o),
(86,645,cs),
(83,595,o),
(82,543,o),
(91,547,c),
(186,609,o),
(294,648,o),
(391,650,cs),
(488,652,o),
(650,600,o),
(686,462,c),
(663,372,o),
(606,288,o),
(527,231,cs),
(442,170,o),
(343,151,o),
(253,148,cs),
(185,146,o),
(124,169,o),
(84,180,c),
(55,0,l),
(117,-30,o),
(181,-39,o),
(248,-38,cs)
);
},
{
pos = (55,0);
ref = "stick-xl.component";
}
);
width = 753;
},
{
anchors = (
{
name = top;
pos = (686,800);
}
);
layerId = m007;
shapes = (
{
closed = 1;
nodes = (
(776,-29,o),
(1094,45,o),
(1243,213,cs),
(1294,269,o),
(1331,333,o),
(1341,402,cs),
(1349,468,o),
(1356,543,o),
(1318,605,cs),
(1233,742,o),
(976,817,o),
(738,815,cs),
(512,814,o),
(316,758,o),
(151,698,c),
(144,694,o),
(139,669,o),
(136,645,cs),
(136,621,o),
(138,599,o),
(145,598,c),
(319,663,o),
(531,714,o),
(740,715,cs),
(999,717,o),
(1241,632,o),
(1310,463,c),
(1285,363,o),
(1208,282,o),
(1102,219,cs),
(935,122,o),
(698,72,o),
(477,71,cs),
(393,71,o),
(209,86,o),
(125,94,c),
(101,0,l),
(212,-24,o),
(348,-29,o),
(461,-29,cs)
);
},
{
pos = (101,0);
ref = "stick-xl.component";
}
);
width = 1443;
},
{
anchors = (
{
name = top;
pos = (714,800);
}
);
layerId = m008;
shapes = (
{
closed = 1;
nodes = (
(794,-13,o),
(1103,50,o),
(1264,221,cs),
(1309,272,o),
(1336,328,o),
(1348,388,cs),
(1363,454,o),
(1375,554,o),
(1327,629,cs),
(1232,773,o),
(968,828,o),
(751,826,cs),
(545,824,o),
(321,775,o),
(156,713,c),
(143,711,o),
(140,682,o),
(136,645,cs),
(133,602,o),
(143,572,o),
(151,574,c),
(340,638,o),
(539,681,o),
(733,684,cs),
(961,688,o),
(1278,614,o),
(1324,463,c),
(1268,337,o),
(1171,266,o),
(1022,208,cs),
(856,146,o),
(662,124,o),
(507,121,cs),
(404,119,o),
(285,125,o),
(156,138,c),
(105,0,l),
(220,-21,o),
(380,-24,o),
(513,-21,cs)
);
},
{
pos = (105,0);
ref = "stick-xl.component";
}
);
width = 1463;
},
{
anchors = (
{
name = top;
pos = (730,800);
}
);
layerId = m009;
shapes = (
{
closed = 1;
nodes = (
(816,-35,o),
(1116,34,o),
(1280,195,cs),
(1331,246,o),
(1362,303,o),
(1377,363,cs),
(1395,432,o),
(1412,567,o),
(1363,642,cs),
(1259,787,o),
(977,836,o),
(755,835,cs),
(546,833,o),
(327,794,o),
(161,734,c),
(153,732,o),
(134,691,o),
(131,645,cs),
(128,595,o),
(131,543,o),
(147,547,c),
(335,609,o),
(547,648,o),
(741,650,cs),
(936,652,o),
(1263,600,o),
(1344,462,c),
(1303,372,o),
(1194,288,o),
(1039,231,cs),
(874,170,o),
(677,151,o),
(496,148,cs),
(360,146,o),
(237,169,o),
(157,180,c),
(111,0,l),
(236,-30,o),
(364,-39,o),
(499,-38,cs)
);
},
{
pos = (111,0);
ref = "stick-xl.component";
}
);
width = 1506;
}
);
unicode = 68;
},
{
glyphname = Dcroat;
lastChange = "2024-09-04 11:19:47 +0000";
layers = (
{
layerId = "76B40D95-58B1-4323-9BD9-765A1287C92C";
shapes = (
{
pos = (18,0);
ref = D;
},
{
closed = 1;
nodes = (
(100,327,o),
(400,327,o),
(481,328,c),
(493,336,o),
(498,421,o),
(486,431,c),
(387,431,o),
(100,431,o),
(27,430,c),
(17,423,o),
(13,336,o),
(21,327,c)
);
}
);
width = 1049;
},
{
layerId = m01;
shapes = (
{
pos = (23,0);
ref = D;
},
{
closed = 1;
nodes = (
(113,312,o),
(414,312,o),
(496,313,c),
(508,324,o),
(513,437,o),
(501,450,c),
(401,450,o),
(113,450,o),
(39,449,c),
(29,439,o),
(22,324,o),
(33,312,c)
);
}
);
width = 1068;
},
{
layerId = "E3B43ECB-7726-4A5D-9A6F-096C3D942908";
shapes = (
{
pos = (14,0);
ref = D;
},
{
closed = 1;
nodes = (
(120,293,o),
(423,293,o),
(502,293,c),
(518,301,o),
(526,451,o),
(510,462,c),
(432,462,o),
(129,462,o),
(50,462,c),
(33,453,o),
(25,302,o),
(41,293,c)
);
}
);
width = 1090;
},
{
layerId = m004;
shapes = (
{
pos = (13,0);
ref = D;
},
{
closed = 1;
nodes = (
(76,327,o),
(286,327,o),
(343,328,c),
(351,336,o),
(356,421,o),
(348,431,c),
(279,431,o),
(78,431,o),
(27,430,c),
(20,423,o),
(15,336,o),
(21,327,c)
);
}
);
width = 734;
},
{
layerId = m005;
shapes = (
{
pos = (16,0);
ref = D;
},
{
closed = 1;
nodes = (
(85,312,o),
(296,312,o),
(353,313,c),
(362,324,o),
(367,437,o),
(359,450,c),
(289,450,o),
(88,450,o),
(36,449,c),
(28,439,o),
(21,324,o),
(29,312,c)
);
}
);
width = 748;
},
{
layerId = m006;
shapes = (
{
pos = (10,0);
ref = D;
},
{
closed = 1;
nodes = (
(89,293,o),
(302,293,o),
(357,293,c),
(368,301,o),
(377,451,o),
(366,462,c),
(311,462,o),
(99,462,o),
(44,462,c),
(32,453,o),
(23,302,o),
(34,293,c)
);
}
);
width = 763;
},
{
layerId = m007;
shapes = (
{
pos = (25,0);
ref = D;
},
{
closed = 1;
nodes = (
(132,327,o),
(552,327,o),
(665,328,c),
(682,336,o),
(687,421,o),
(670,431,c),
(531,431,o),
(129,431,o),
(27,430,c),
(13,423,o),
(10,336,o),
(21,327,c)
);
}
);
width = 1469;
},
{
layerId = m008;
shapes = (
{
pos = (32,0);
ref = D;
},
{
closed = 1;
nodes = (
(150,312,o),
(572,312,o),
(687,313,c),
(703,324,o),
(707,437,o),
(690,450,c),
(550,450,o),
(147,450,o),
(43,449,c),
(30,439,o),
(23,324,o),
(38,312,c)
);
}
);
width = 1495;
},
{
layerId = m009;
shapes = (
{
pos = (20,0);
ref = D;
},
{
closed = 1;
nodes = (
(161,293,o),
(585,293,o),
(695,293,c),
(718,301,o),
(725,451,o),
(702,462,c),
(593,462,o),
(169,462,o),
(58,462,c),
(35,453,o),
(27,302,o),
(50,293,c)
);
}
);
width = 1526;
}
);
unicode = 272;
},
{
glyphname = Eth;
lastChange = "2024-09-04 11:19:47 +0000";
layers = (
{
layerId = "76B40D95-58B1-4323-9BD9-765A1287C92C";
shapes = (
{
pos = (18,0);
ref = D;
},
{
closed = 1;
nodes = (
(100,327,o),
(400,327,o),
(481,328,c),
(493,336,o),
(498,421,o),
(486,431,c),
(387,431,o),
(100,431,o),
(27,430,c),
(17,423,o),
(13,336,o),
(21,327,c)
);
}
);
width = 1049;
},
{
layerId = m01;
shapes = (
{
pos = (23,0);
ref = D;
},
{
closed = 1;
nodes = (
(113,312,o),
(414,312,o),
(496,313,c),
(508,324,o),
(513,437,o),
(501,450,c),
(401,450,o),
(113,450,o),
(39,449,c),
(29,439,o),
(22,324,o),
(33,312,c)
);
}
);
width = 1068;
},
{
layerId = "E3B43ECB-7726-4A5D-9A6F-096C3D942908";
shapes = (
{
pos = (14,0);
ref = D;
},
{
closed = 1;
nodes = (
(120,293,o),
(423,293,o),
(502,293,c),
(518,301,o),
(526,451,o),
(510,462,c),
(432,462,o),
(129,462,o),
(50,462,c),
(33,453,o),
(25,302,o),
(41,293,c)
);
}
);
width = 1090;
},
{
layerId = m004;
shapes = (
{
pos = (13,0);
ref = D;
},
{
closed = 1;
nodes = (
(76,327,o),
(286,327,o),
(343,328,c),
(351,336,o),
(356,421,o),
(348,431,c),
(279,431,o),
(78,431,o),
(27,430,c),
(20,423,o),
(15,336,o),
(21,327,c)
);
}
);
width = 734;
},
{
layerId = m005;
shapes = (
{
pos = (16,0);
ref = D;
},
{
closed = 1;
nodes = (
(85,312,o),
(296,312,o),
(353,313,c),
(362,324,o),
(367,437,o),
(359,450,c),
(289,450,o),
(88,450,o),
(36,449,c),
(28,439,o),
(21,324,o),
(29,312,c)
);
}
);
width = 748;
},
{
layerId = m006;
shapes = (
{
pos = (10,0);
ref = D;
},
{
closed = 1;
nodes = (
(89,293,o),
(302,293,o),
(357,293,c),
(368,301,o),
(377,451,o),
(366,462,c),
(311,462,o),
(99,462,o),
(44,462,c),
(32,453,o),
(23,302,o),
(34,293,c)
);
}
);
width = 763;
},
{
layerId = m007;
shapes = (
{
pos = (25,0);
ref = D;
},
{
closed = 1;
nodes = (
(132,327,o),
(552,327,o),
(665,328,c),
(682,336,o),
(687,421,o),
(670,431,c),
(531,431,o),
(129,431,o),
(27,430,c),
(13,423,o),
(10,336,o),
(21,327,c)
);
}
);
width = 1469;
},
{
layerId = m008;
shapes = (
{
pos = (32,0);
ref = D;
},
{
closed = 1;
nodes = (
(150,312,o),
(572,312,o),
(687,313,c),
(703,324,o),
(707,437,o),
(690,450,c),
(550,450,o),
(147,450,o),
(43,449,c),
(30,439,o),
(23,324,o),
(38,312,c)
);
}
);
width = 1495;
},
{
layerId = m009;
shapes = (
{
pos = (20,0);
ref = D;
},
{
closed = 1;
nodes = (
(161,293,o),
(585,293,o),
(695,293,c),
(718,301,o),
(725,451,o),
(702,462,c),
(593,462,o),
(169,462,o),
(58,462,c),
(35,453,o),
(27,302,o),
(50,293,c)
);
}
);
width = 1526;
}
);
unicode = 208;
},
{
glyphname = E;
lastChange = "2024-09-04 11:19:47 +0000";
layers = (
{
anchors = (
{
name = ogonek;
pos = (706,42);
},
{
name = top;
pos = (432,800);
}
);
layerId = m01;
shapes = (
{
closed = 1;
nodes = (
(578,-34,o),
(719,-11,o),
(829,76,c),
(836,83,o),
(843,88,o),
(844,99,c),
(850,122,o),
(851,148,o),
(852,171,c),
(852,177,o),
(852,233,o),
(842,220,c),
(772,152,o),
(632,111,o),
(503,106,cs),
(335,99,o),
(175,113,o),
(101,135,c),
(75,0,l),
(140,-23,o),
(288,-32,o),
(438,-33,cs)
);
},
{
pos = (75,0);
ref = "stick-xl.component";
},
{
closed = 1;
nodes = (
(278,355,o),
(450,354,o),
(618,379,cs),
(631,381,o),
(640,519,o),
(631,519,c),
(465,483,o),
(288,492,o),
(119,479,c),
(105,471,o),
(100,351,o),
(112,341,c)
);
},
{
closed = 1;
nodes = (
(327,630,o),
(540,650,o),
(739,686,c),
(753,694,o),
(759,815,o),
(746,824,c),
(546,788,o),
(335,769,o),
(132,795,c),
(118,787,o),
(112,666,o),
(124,657,c)
);
}
);
width = 882;
},
{
anchors = (
{
name = ogonek;
pos = (706,42);
},
{
name = top;
pos = (447,800);
}
);
layerId = "E3B43ECB-7726-4A5D-9A6F-096C3D942908";
shapes = (
{
closed = 1;
nodes = (
(538,-38,o),
(713,-18,o),
(848,77,cs),
(860,85,o),
(866,102,o),
(868,127,c),
(869,154,o),
(870,182,o),
(871,209,c),
(871,217,o),
(874,281,o),
(864,270,c),
(761,183,o),
(634,157,o),
(499,151,cs),
(369,145,o),
(205,159,o),
(123,187,c),
(79,0,l),
(170,-24,o),
(294,-37,o),
(410,-37,cs)
);
},
{
pos = (79,0);
ref = "stick-xl.component";
},
{
closed = 1;
nodes = (
(313,335,o),
(481,326,o),
(642,361,c),
(661,369,o),
(670,531,o),
(653,540,c),
(490,506,o),
(323,514,o),
(158,501,c),
(140,493,o),
(131,332,o),
(148,322,c)
);
},
{
closed = 1;
nodes = (
(331,607,o),
(549,624,o),
(759,660,c),
(776,669,o),
(786,830,o),
(768,840,c),
(559,803,o),
(341,786,o),
(128,812,c),
(112,803,o),
(102,643,o),
(119,632,c)
);
}
);
width = 907;
},
{
anchors = (
{
name = ogonek;
pos = (706,42);
},
{
name = top;
pos = (420,800);
}
);
layerId = "76B40D95-58B1-4323-9BD9-765A1287C92C";
shapes = (
{
closed = 1;
nodes = (
(595,-5,o),
(733,24,o),
(814,99,c),
(826,109,o),
(828,115,o),
(830,131,c),
(831,135,o),
(833,161,o),
(833,181,cs),
(832,194,o),
(830,204,o),
(826,201,c),
(777,127,o),
(608,88,o),
(438,81,cs),
(231,72,o),
(111,88,o),
(95,91,c),
(72,0,l),
(105,-9,o),
(232,-20,o),
(420,-12,cs)
);
},
{
pos = (72,0);
ref = "stick-xl.component";
},
{
closed = 1;
nodes = (
(276,380,o),
(438,373,o),
(602,406,c),
(620,409,o),
(626,475,o),
(617,503,c),
(456,467,o),
(134,474,o),
(111,457,c),
(107,444,o),
(107,367,o),
(108,367,c)
);
},
{
closed = 1;
nodes = (
(325,660,o),
(528,680,o),
(729,716,c),
(739,723,o),
(742,805,o),
(733,810,c),
(511,769,o),
(365,760,o),
(129,781,c),
(125,781,o),
(114,694,o),
(124,687,c)
);
}
);
width = 857;
},
{
anchors = (
{
name = ogonek;
pos = (495,42);
},
{
name = top;
pos = (309,800);
}
);
layerId = m004;
shapes = (
{
closed = 1;
nodes = (
(416,-5,o),
(514,24,o),
(572,99,c),
(580,109,o),
(582,115,o),
(583,131,c),
(584,135,o),
(586,161,o),
(586,181,cs),
(586,194,o),
(585,204,o),
(582,201,c),
(546,127,o),
(427,88,o),
(308,81,cs),
(163,72,o),
(79,88,o),
(68,91,c),
(50,0,l),
(73,-9,o),
(162,-20,o),
(294,-12,cs)
);
},
{
pos = (50,0);
ref = "stick-xl.component";
},
{
closed = 1;
nodes = (
(200,380,o),
(314,373,o),
(429,406,c),
(442,409,o),
(447,475,o),
(441,503,c),
(328,467,o),
(103,474,o),
(86,457,c),
(83,444,o),
(82,367,o),
(82,367,c)
);
},
{
closed = 1;
nodes = (
(240,660,o),
(382,680,o),
(524,716,c),
(531,723,o),
(534,805,o),
(528,810,c),
(372,769,o),
(270,760,o),
(105,781,c),
(102,781,o),
(93,694,o),
(100,687,c)
);
}
);
width = 600;
},
{
anchors = (
{
name = ogonek;
pos = (495,42);
},
{
name = top;
pos = (317,800);
}
);
layerId = m005;
shapes = (
{
closed = 1;
nodes = (
(404,-34,o),
(503,-11,o),
(582,76,c),
(587,83,o),
(592,88,o),
(593,99,c),
(597,122,o),
(598,148,o),
(600,171,c),
(600,177,o),
(601,233,o),
(594,220,c),
(543,152,o),
(444,111,o),
(354,106,cs),
(236,99,o),
(125,113,o),
(73,135,c),
(53,0,l),
(98,-23,o),
(201,-32,o),
(306,-33,cs)
);
},
{
pos = (53,0);
ref = "stick-xl.component";
},
{
closed = 1;
nodes = (
(201,355,o),
(322,354,o),
(440,379,cs),
(449,381,o),
(458,519,o),
(451,519,c),
(335,483,o),
(211,492,o),
(92,479,c),
(82,471,o),
(77,351,o),
(85,341,c)
);
},
{
closed = 1;
nodes = (
(241,630,o),
(390,650,o),
(530,686,c),
(540,694,o),
(547,815,o),
(538,824,c),
(397,788,o),
(249,769,o),
(107,795,c),
(97,787,o),
(91,666,o),
(99,657,c)
);
}
);
width = 617;
},
{
anchors = (
{
name = ogonek;
pos = (495,42);
},
{
name = top;
pos = (328,800);
}
);
layerId = m006;
shapes = (
{
closed = 1;
nodes = (
(376,-38,o),
(499,-18,o),
(595,77,cs),
(604,85,o),
(608,102,o),
(610,127,c),
(611,154,o),
(612,182,o),
(614,209,c),
(614,217,o),
(617,281,o),
(610,270,c),
(536,183,o),
(447,157,o),
(352,151,cs),
(261,145,o),
(146,159,o),
(90,187,c),
(55,0,l),
(119,-24,o),
(205,-37,o),
(286,-37,cs)
);
},
{
pos = (55,0);
ref = "stick-xl.component";
},
{
closed = 1;
nodes = (
(225,335,o),
(343,326,o),
(456,361,c),
(470,369,o),
(479,531,o),
(467,540,c),
(352,506,o),
(236,514,o),
(120,501,c),
(107,493,o),
(98,332,o),
(110,322,c)
);
},
{
closed = 1;
nodes = (
(243,607,o),
(396,624,o),
(544,660,c),
(556,669,o),
(566,830,o),
(553,840,c),
(406,803,o),
(253,786,o),
(105,812,c),
(93,803,o),
(83,643,o),
(95,632,c)
);
}
);
width = 635;
},
{
anchors = (
{
name = ogonek;
pos = (987,42);
},
{
name = top;
pos = (568,800);
}
);
layerId = m007;
shapes = (
{
closed = 1;
nodes = (
(833,-5,o),
(1026,24,o),
(1137,99,c),
(1154,109,o),
(1156,115,o),
(1159,131,c),
(1160,135,o),
(1162,161,o),
(1162,181,cs),
(1160,194,o),
(1157,204,o),
(1151,201,c),
(1085,127,o),
(849,88,o),
(611,81,cs),
(322,72,o),
(153,88,o),
(131,91,c),
(101,0,l),
(147,-9,o),
(325,-20,o),
(588,-12,cs)
);
},
{
pos = (101,0);
ref = "stick-xl.component";
},
{
closed = 1;
nodes = (
(377,380,o),
(604,373,o),
(833,406,c),
(858,409,o),
(865,475,o),
(851,503,c),
(627,467,o),
(176,474,o),
(144,457,c),
(139,444,o),
(141,367,o),
(142,367,c)
);
},
{
closed = 1;
nodes = (
(439,660,o),
(722,680,o),
(1003,716,c),
(1017,723,o),
(1019,805,o),
(1006,810,c),
(696,769,o),
(492,760,o),
(161,781,c),
(156,781,o),
(142,694,o),
(156,687,c)
);
}
);
width = 1200;
},
{
anchors = (
{
name = ogonek;
pos = (987,42);
},
{
name = top;
pos = (585,800);
}
);
layerId = m008;
shapes = (
{
closed = 1;
nodes = (
(810,-34,o),
(1007,-11,o),
(1159,76,c),
(1168,83,o),
(1178,88,o),
(1179,99,c),
(1187,122,o),
(1188,148,o),
(1189,171,c),
(1188,177,o),
(1187,233,o),
(1173,220,c),
(1077,152,o),
(882,111,o),
(702,106,cs),
(467,99,o),
(242,113,o),
(138,135,c),
(105,0,l),
(197,-23,o),
(404,-32,o),
(614,-33,cs)
);
},
{
pos = (105,0);
ref = "stick-xl.component";
},
{
closed = 1;
nodes = (
(380,355,o),
(621,354,o),
(856,379,cs),
(874,381,o),
(883,519,o),
(870,519,c),
(639,483,o),
(391,492,o),
(155,479,c),
(135,471,o),
(131,351,o),
(148,341,c)
);
},
{
closed = 1;
nodes = (
(442,630,o),
(740,650,o),
(1017,686,c),
(1037,694,o),
(1042,815,o),
(1024,824,c),
(745,788,o),
(450,769,o),
(165,795,c),
(146,787,o),
(140,666,o),
(157,657,c)
);
}
);
width = 1235;
},
{
anchors = (
{
name = ogonek;
pos = (987,42);
},
{
name = top;
pos = (606,800);
}
);
layerId = m009;
shapes = (
{
closed = 1;
nodes = (
(754,-38,o),
(999,-18,o),
(1185,77,cs),
(1202,85,o),
(1210,102,o),
(1212,127,c),
(1213,154,o),
(1213,182,o),
(1214,209,c),
(1214,217,o),
(1217,281,o),
(1203,270,c),
(1061,183,o),
(884,157,o),
(695,151,cs),
(513,145,o),
(283,159,o),
(168,187,c),
(111,0,l),
(239,-24,o),
(413,-37,o),
(575,-37,cs)
);
},
{
pos = (111,0);
ref = "stick-xl.component";
},
{
closed = 1;
nodes = (
(430,335,o),
(665,326,o),
(890,361,c),
(916,369,o),
(925,531,o),
(901,540,c),
(673,506,o),
(439,514,o),
(209,501,c),
(184,493,o),
(175,332,o),
(199,322,c)
);
},
{
closed = 1;
nodes = (
(448,607,o),
(753,624,o),
(1046,660,c),
(1070,669,o),
(1080,830,o),
(1054,840,c),
(763,803,o),
(458,786,o),
(159,812,c),
(137,803,o),
(127,643,o),
(151,632,c)
);
}
);
width = 1270;
}
);
unicode = 69;
},
{
glyphname = F;
lastChange = "2024-09-04 11:19:47 +0000";
layers = (
{
layerId = m01;
shapes = (
{
closed = 1;
nodes = (
(310,356,o),
(505,355,o),
(696,381,cs),
(725,385,o),
(722,506,o),
(705,522,c),
(517,486,o),
(321,495,o),
(129,482,c),
(113,474,o),
(107,352,o),
(121,342,c)
);
},
{
closed = 1;
nodes = (
(325,630,o),
(624,642,o),
(845,694,c),
(859,702,o),
(865,823,o),
(852,832,c),
(628,785,o),
(332,769,o),
(129,795,c),
(116,787,o),
(110,666,o),
(122,657,c)
);
},
{
pos = (74,0);
ref = "stick-xl.component";
}
);
width = 891;
},
{
layerId = "E3B43ECB-7726-4A5D-9A6F-096C3D942908";
shapes = (
{
closed = 1;
nodes = (
(281,328,o),
(526,314,o),
(688,349,c),
(706,357,o),
(716,519,o),
(698,528,c),
(535,494,o),
(291,507,o),
(127,494,c),
(108,486,o),
(99,325,o),
(116,315,c)
);
},
{
closed = 1;
nodes = (
(339,588,o),
(621,621,o),
(831,657,c),
(849,666,o),
(858,827,o),
(840,837,c),
(631,800,o),
(348,767,o),
(97,812,c),
(80,803,o),
(59,650,o),
(87,632,c)
);
},
{
pos = (48,0);
ref = "stick-xl.component";
}
);
width = 890;
},
{
layerId = "76B40D95-58B1-4323-9BD9-765A1287C92C";
shapes = (
{
closed = 1;
nodes = (
(313,380,o),
(500,373,o),
(690,406,c),
(710,409,o),
(718,475,o),
(707,503,c),
(521,467,o),
(149,469,o),
(123,461,c),
(118,448,o),
(118,367,o),
(119,367,c)
);
},
{
closed = 1;
nodes = (
(359,660,o),
(601,680,o),
(840,716,c),
(852,723,o),
(855,805,o),
(844,810,c),
(580,769,o),
(405,760,o),
(125,781,c),
(120,781,o),
(108,694,o),
(119,687,c)
);
},
{
pos = (70,0);
ref = "stick-xl.component";
}
);
width = 874;
},
{
layerId = m004;
shapes = (
{
closed = 1;
nodes = (
(226,380,o),
(357,373,o),
(491,406,c),
(505,409,o),
(511,475,o),
(504,503,c),
(373,467,o),
(113,469,o),
(95,461,c),
(91,448,o),
(89,367,o),
(90,367,c)
);
},
{
closed = 1;
nodes = (
(264,660,o),
(433,680,o),
(601,716,c),
(610,723,o),
(614,805,o),
(606,810,c),
(420,769,o),
(298,760,o),
(102,781,c),
(99,781,o),
(89,694,o),
(96,687,c)
);
},
{
pos = (49,0);
ref = "stick-xl.component";
}
);
width = 612;
},
{
layerId = m005;
shapes = (
{
closed = 1;
nodes = (
(224,356,o),
(360,355,o),
(494,381,cs),
(515,385,o),
(515,506,o),
(503,522,c),
(371,486,o),
(234,495,o),
(99,482,c),
(88,474,o),
(81,352,o),
(91,342,c)
);
},
{
closed = 1;
nodes = (
(239,630,o),
(449,642,o),
(604,694,c),
(614,702,o),
(621,823,o),
(612,832,c),
(454,785,o),
(247,769,o),
(105,795,c),
(96,787,o),
(89,666,o),
(98,657,c)
);
},
{
pos = (52,0);
ref = "stick-xl.component";
}
);
width = 624;
},
{
layerId = m006;
shapes = (
{
closed = 1;
nodes = (
(203,328,o),
(374,314,o),
(488,349,c),
(501,357,o),
(511,519,o),
(498,528,c),
(384,494,o),
(213,507,o),
(98,494,c),
(85,486,o),
(75,325,o),
(87,315,c)
);
},
{
closed = 1;
nodes = (
(248,588,o),
(446,621,o),
(594,657,c),
(607,666,o),
(616,827,o),
(604,837,c),
(457,800,o),
(258,767,o),
(83,812,c),
(71,803,o),
(53,650,o),
(73,632,c)
);
},
{
pos = (34,0);
ref = "stick-xl.component";
}
);
width = 623;
},
{
layerId = m007;
shapes = (
{
closed = 1;
nodes = (
(429,380,o),
(691,373,o),
(956,406,c),
(984,409,o),
(993,475,o),
(977,503,c),
(718,467,o),
(197,469,o),
(161,461,c),
(154,448,o),
(156,367,o),
(157,367,c)
);
},
{
closed = 1;
nodes = (
(486,660,o),
(824,680,o),
(1158,716,c),
(1175,723,o),
(1177,805,o),
(1161,810,c),
(793,769,o),
(548,760,o),
(156,781,c),
(149,781,o),
(134,694,o),
(149,687,c)
);
},
{
pos = (98,0);
ref = "stick-xl.component";
}
);
width = 1224;
},
{
layerId = m008;
shapes = (
{
closed = 1;
nodes = (
(425,356,o),
(698,355,o),
(965,381,cs),
(1005,385,o),
(998,506,o),
(974,522,c),
(712,486,o),
(437,495,o),
(169,482,c),
(146,474,o),
(141,352,o),
(161,342,c)
);
},
{
closed = 1;
nodes = (
(439,630,o),
(858,642,o),
(1166,694,c),
(1185,702,o),
(1190,823,o),
(1172,832,c),
(860,785,o),
(446,769,o),
(161,795,c),
(143,787,o),
(137,666,o),
(154,657,c)
);
},
{
pos = (104,0);
ref = "stick-xl.component";
}
);
width = 1247;
},
{
layerId = m009;
shapes = (
{
closed = 1;
nodes = (
(385,328,o),
(729,314,o),
(954,349,c),
(979,357,o),
(989,519,o),
(964,528,c),
(737,494,o),
(395,507,o),
(165,494,c),
(139,486,o),
(130,325,o),
(155,315,c)
);
},
{
closed = 1;
nodes = (
(460,588,o),
(854,621,o),
(1147,657,c),
(1172,666,o),
(1181,827,o),
(1155,837,c),
(863,800,o),
(468,767,o),
(116,812,c),
(92,803,o),
(66,650,o),
(106,632,c)
);
},
{
pos = (67,0);
ref = "stick-xl.component";
}
);
width = 1246;
}
);
unicode = 70;
},
{
glyphname = G;
lastChange = "2024-09-04 11:19:47 +0000";
layers = (
{
anchors = (
{
name = bottom;
pos = (529,-17);
},
{
name = top;
pos = (505,800);
}
);
layerId = m01;
shapes = (
{
closed = 1;
nodes = (
(594,-26,o),
(730,16,o),
(824,92,cs),
(950,195,o),
(993,366,o),
(992,521,c),
(992,553,o),
(973,548,o),
(932,541,c),
(775,517,o),
(618,494,o),
(461,470,c),
(445,459,o),
(440,341,o),
(453,330,c),
(619,355,o),
(785,380,o),
(950,405,c),
(878,200,o),
(677,117,o),
(470,116,cs),
(310,115,o),
(142,163,o),
(89,338,c),
(145,528,o),
(358,640,o),
(507,669,c),
(591,686,o),
(680,694,o),
(764,667,c),
(768,666,o),
(771,689,o),
(771,688,c),
(778,723,o),
(781,761,o),
(775,797,c),
(765,826,o),
(659,824,o),
(629,824,c),
(345,817,o),
(50,607,o),
(65,310,c),
(64,251,o),
(71,191,o),
(102,140,c),
(181,25,o),
(320,-26,o),
(462,-26,cs)
);
}
);
width = 1048;
},
{
anchors = (
{
name = bottom;
pos = (538,-16);
},
{
name = top;
pos = (508,800);
}
);
layerId = "E3B43ECB-7726-4A5D-9A6F-096C3D942908";
shapes = (
{
closed = 1;
nodes = (
(607,-38,o),
(736,4,o),
(830,76,c),
(964,186,o),
(1005,369,o),
(1002,532,c),
(1000,567,o),
(990,564,o),
(943,561,c),
(785,537,o),
(629,515,o),
(473,492,c),
(452,481,o),
(444,325,o),
(462,309,c),
(619,333,o),
(778,356,o),
(935,380,c),
(857,218,o),
(664,145,o),
(484,145,cs),
(331,144,o),
(156,198,o),
(109,345,c),
(196,542,o),
(424,651,o),
(640,657,c),
(685,658,o),
(728,653,o),
(770,639,c),
(776,638,o),
(781,668,o),
(780,666,c),
(790,713,o),
(792,761,o),
(787,809,c),
(783,840,o),
(667,839,o),
(639,839,c),
(338,830,o),
(55,613,o),
(73,305,c),
(72,244,o),
(77,178,o),
(111,124,c),
(193,8,o),
(334,-41,o),
(478,-40,cs)
);
}
);
width = 1062;
},
{
anchors = (
{
name = bottom;
pos = (522,-6);
},
{
name = top;
pos = (496,800);
}
);
layerId = "76B40D95-58B1-4323-9BD9-765A1287C92C";
shapes = (
{
closed = 1;
nodes = (
(589,-11,o),
(722,32,o),
(821,109,c),
(967,234,o),
(992,463,o),
(984,520,cs),
(983,527,o),
(976,529,o),
(971,528,cs),
(800,494,o),
(627,476,o),
(454,450,c),
(444,444,o),
(440,358,o),
(448,354,c),
(620,379,o),
(791,405,o),
(961,431,c),
(912,238,o),
(759,89,o),
(468,89,cs),
(273,89,o),
(129,147,o),
(89,346,c),
(142,558,o),
(379,708,o),
(629,714,c),
(672,715,o),
(717,712,o),
(761,697,c),
(763,696,o),
(765,705,o),
(767,716,cs),
(770,734,o),
(770,792,o),
(765,793,c),
(726,803,o),
(686,808,o),
(645,809,cs),
(371,816,o),
(82,628,o),
(60,347,cs),
(53,251,o),
(76,151,o),
(156,87,c),
(241,21,o),
(349,-9,o),
(459,-10,cs)
);
}
);
width = 1037;
},
{
anchors = (
{
name = bottom;
pos = (365,-6);
},
{
name = top;
pos = (362,800);
}
);
layerId = m004;
shapes = (
{
closed = 1;
nodes = (
(412,-11,o),
(506,32,o),
(577,109,c),
(681,234,o),
(703,463,o),
(699,520,cs),
(698,527,o),
(693,529,o),
(690,528,cs),
(569,494,o),
(448,476,o),
(326,450,c),
(319,444,o),
(315,358,o),
(320,354,c),
(441,379,o),
(561,405,o),
(681,431,c),
(643,238,o),
(533,89,o),
(329,89,cs),
(193,89,o),
(93,147,o),
(69,346,c),
(110,558,o),
(279,708,o),
(454,714,c),
(484,715,o),
(515,712,o),
(546,697,c),
(547,696,o),
(549,705,o),
(550,716,cs),
(553,734,o),
(554,792,o),
(550,793,c),
(523,803,o),
(495,808,o),
(467,809,cs),
(275,816,o),
(69,628,o),
(48,347,cs),
(42,251,o),
(56,151,o),
(111,87,c),
(169,21,o),
(244,-9,o),
(321,-10,cs)
);
}
);
width = 726;
},
{
anchors = (
{
name = bottom;
pos = (370,-17);
},
{
name = top;
pos = (368,800);
}
);
layerId = m005;
shapes = (
{
closed = 1;
nodes = (
(415,-26,o),
(511,16,o),
(579,92,cs),
(669,195,o),
(702,366,o),
(704,521,c),
(705,553,o),
(691,548,o),
(663,541,c),
(552,517,o),
(442,494,o),
(331,470,c),
(320,459,o),
(314,341,o),
(323,330,c),
(440,355,o),
(557,380,o),
(673,405,c),
(618,200,o),
(476,117,o),
(331,116,cs),
(219,115,o),
(102,163,o),
(69,338,c),
(111,528,o),
(263,640,o),
(367,669,c),
(427,686,o),
(489,694,o),
(547,667,c),
(550,666,o),
(553,689,o),
(553,688,c),
(558,723,o),
(561,761,o),
(557,797,c),
(551,826,o),
(477,824,o),
(456,824,c),
(257,817,o),
(46,607,o),
(51,310,c),
(49,251,o),
(53,191,o),
(74,140,c),
(127,25,o),
(224,-26,o),
(323,-26,cs)
);
}
);
width = 734;
},
{
anchors = (
{
name = bottom;
pos = (376,-16);
},
{
name = top;
pos = (371,800);
}
);
layerId = m006;
shapes = (
{
closed = 1;
nodes = (
(424,-38,o),
(515,4,o),
(582,76,c),
(678,186,o),
(710,369,o),
(711,532,c),
(711,567,o),
(704,564,o),
(671,561,c),
(560,537,o),
(450,515,o),
(340,492,c),
(325,481,o),
(317,325,o),
(329,309,c),
(440,333,o),
(551,356,o),
(662,380,c),
(604,218,o),
(468,145,o),
(342,145,cs),
(234,144,o),
(113,198,o),
(83,345,c),
(147,542,o),
(309,651,o),
(460,657,c),
(492,658,o),
(522,653,o),
(551,639,c),
(555,638,o),
(559,668,o),
(558,666,c),
(566,713,o),
(569,761,o),
(566,809,c),
(564,840,o),
(483,839,o),
(463,839,c),
(252,830,o),
(50,613,o),
(57,305,c),
(55,244,o),
(57,178,o),
(80,124,c),
(135,8,o),
(233,-41,o),
(334,-40,cs)
);
}
);
width = 743;
},
{
anchors = (
{
name = bottom;
pos = (731,-6);
},
{
name = top;
pos = (674,800);
}
);
layerId = m007;
shapes = (
{
closed = 1;
nodes = (
(825,-11,o),
(1010,32,o),
(1147,109,c),
(1348,234,o),
(1377,463,o),
(1365,520,cs),
(1363,527,o),
(1353,529,o),
(1346,528,cs),
(1108,494,o),
(866,476,o),
(624,450,c),
(611,444,o),
(607,358,o),
(618,354,c),
(859,379,o),
(1097,405,o),
(1335,431,c),
(1271,238,o),
(1060,89,o),
(653,89,cs),
(380,89,o),
(177,147,o),
(116,346,c),
(185,558,o),
(513,708,o),
(863,714,c),
(923,715,o),
(986,712,o),
(1048,697,c),
(1051,696,o),
(1053,705,o),
(1056,716,cs),
(1060,734,o),
(1058,792,o),
(1051,793,c),
(996,803,o),
(940,808,o),
(883,809,cs),
(499,816,o),
(99,628,o),
(75,347,cs),
(68,251,o),
(103,151,o),
(216,87,c),
(337,21,o),
(489,-9,o),
(643,-10,cs)
);
}
);
width = 1452;
},
{
anchors = (
{
name = bottom;
pos = (741,-17);
},
{
name = top;
pos = (687,800);
}
);
layerId = m008;
shapes = (
{
closed = 1;
nodes = (
(832,-26,o),
(1022,16,o),
(1151,92,cs),
(1325,195,o),
(1381,366,o),
(1376,521,c),
(1375,553,o),
(1349,548,o),
(1291,541,c),
(1072,517,o),
(853,494,o),
(634,470,c),
(612,459,o),
(607,341,o),
(626,330,c),
(858,355,o),
(1090,380,o),
(1320,405,c),
(1224,200,o),
(945,117,o),
(655,116,cs),
(431,115,o),
(195,163,o),
(116,338,c),
(190,528,o),
(485,640,o),
(693,669,c),
(810,686,o),
(935,694,o),
(1053,667,c),
(1059,666,o),
(1062,689,o),
(1062,688,c),
(1071,723,o),
(1074,761,o),
(1065,797,c),
(1050,826,o),
(902,824,o),
(860,824,c),
(463,817,o),
(55,607,o),
(83,310,c),
(83,251,o),
(95,191,o),
(139,140,c),
(253,25,o),
(449,-26,o),
(647,-26,cs)
);
}
);
width = 1467;
},
{
anchors = (
{
name = bottom;
pos = (754,-16);
},
{
name = top;
pos = (691,800);
}
);
layerId = m009;
shapes = (
{
closed = 1;
nodes = (
(851,-38,o),
(1030,4,o),
(1160,76,c),
(1345,186,o),
(1398,369,o),
(1390,532,c),
(1386,567,o),
(1372,564,o),
(1306,561,c),
(1086,537,o),
(868,515,o),
(650,492,c),
(621,481,o),
(613,325,o),
(639,309,c),
(858,333,o),
(1080,356,o),
(1300,380,c),
(1194,218,o),
(926,145,o),
(674,145,cs),
(460,144,o),
(213,198,o),
(144,345,c),
(261,542,o),
(577,651,o),
(880,657,c),
(943,658,o),
(1003,653,o),
(1062,639,c),
(1070,638,o),
(1077,668,o),
(1075,666,c),
(1088,713,o),
(1090,761,o),
(1082,809,c),
(1075,840,o),
(913,839,o),
(874,839,c),
(452,830,o),
(62,613,o),
(95,305,c),
(95,244,o),
(103,178,o),
(152,124,c),
(270,8,o),
(469,-41,o),
(670,-40,cs)
);
}
);
width = 1487;
}
);
unicode = 71;
},
{
glyphname = H;
lastChange = "2024-09-04 11:19:47 +0000";
layers = (
{
layerId = m01;
shapes = (
{
pos = (64,0);
ref = "stick-xxl-top.component";
},
{
pos = (762,0);
ref = "stick-xxl-top.component";
},
{
closed = 1;
nodes = (
(347,337,o),
(580,317,o),
(811,342,c),
(828,352,o),
(838,477,o),
(820,488,c),
(588,463,o),
(356,482,o),
(124,479,c),
(106,470,o),
(96,344,o),
(114,333,c)
);
}
);
width = 926;
},
{
layerId = "E3B43ECB-7726-4A5D-9A6F-096C3D942908";
shapes = (
{
pos = (72,0);
ref = "stick-xxl-top.component";
},
{
pos = (777,0);
ref = "stick-xxl-top.component";
},
{
closed = 1;
nodes = (
(368,310,o),
(614,284,o),
(858,317,c),
(877,330,o),
(886,495,o),
(868,509,c),
(624,476,o),
(378,501,o),
(133,497,c),
(114,485,o),
(105,319,o),
(123,305,c)
);
}
);
width = 995;
},
{
layerId = "76B40D95-58B1-4323-9BD9-765A1287C92C";
shapes = (
{
pos = (64,0);
ref = "stick-xxl-top.component";
},
{
pos = (762,0);
ref = "stick-xxl-top.component";
},
{
closed = 1;
nodes = (
(339,367,o),
(575,347,o),
(806,372,c),
(810,393,o),
(809,453,o),
(806,466,c),
(574,441,o),
(348,461,o),
(116,458,c),
(108,449,o),
(98,374,o),
(106,363,c)
);
}
);
width = 909;
},
{
layerId = m004;
shapes = (
{
pos = (45,0);
ref = "stick-xxl-top.component";
},
{
pos = (533,0);
ref = "stick-xxl-top.component";
},
{
closed = 1;
nodes = (
(244,367,o),
(409,347,o),
(571,372,c),
(574,393,o),
(575,453,o),
(573,466,c),
(410,441,o),
(252,461,o),
(90,458,c),
(84,449,o),
(76,374,o),
(81,363,c)
);
}
);
width = 636;
},
{
layerId = m005;
shapes = (
{
pos = (45,0);
ref = "stick-xxl-top.component";
},
{
pos = (533,0);
ref = "stick-xxl-top.component";
},
{
closed = 1;
nodes = (
(249,337,o),
(412,317,o),
(574,342,c),
(586,352,o),
(596,477,o),
(583,488,c),
(420,463,o),
(258,482,o),
(96,479,c),
(83,470,o),
(74,344,o),
(86,333,c)
);
}
);
width = 648;
},
{
layerId = m006;
shapes = (
{
pos = (50,0);
ref = "stick-xxl-top.component";
},
{
pos = (544,0);
ref = "stick-xxl-top.component";
},
{
closed = 1;
nodes = (
(263,310,o),
(435,284,o),
(607,317,c),
(620,330,o),
(629,495,o),
(617,509,c),
(446,476,o),
(274,501,o),
(102,497,c),
(89,485,o),
(79,319,o),
(92,305,c)
);
}
);
width = 697;
},
{
layerId = m007;
shapes = (
{
pos = (90,0);
ref = "stick-xxl-top.component";
},
{
pos = (1067,0);
ref = "stick-xxl-top.component";
},
{
closed = 1;
nodes = (
(465,367,o),
(796,347,o),
(1119,372,c),
(1124,393,o),
(1121,453,o),
(1117,466,c),
(793,441,o),
(476,461,o),
(151,458,c),
(140,449,o),
(128,374,o),
(139,363,c)
);
}
);
width = 1273;
},
{
layerId = m008;
shapes = (
{
pos = (90,0);
ref = "stick-xxl-top.component";
},
{
pos = (1067,0);
ref = "stick-xxl-top.component";
},
{
closed = 1;
nodes = (
(477,337,o),
(804,317,o),
(1127,342,c),
(1150,352,o),
(1161,477,o),
(1136,488,c),
(812,463,o),
(486,482,o),
(162,479,c),
(137,470,o),
(126,344,o),
(151,333,c)
);
}
);
width = 1296;
},
{
layerId = m009;
shapes = (
{
pos = (101,0);
ref = "stick-xxl-top.component";
},
{
pos = (1088,0);
ref = "stick-xxl-top.component";
},
{
closed = 1;
nodes = (
(507,310,o),
(853,284,o),
(1193,317,c),
(1220,330,o),
(1228,495,o),
(1202,509,c),
(862,476,o),
(517,501,o),
(174,497,c),
(147,485,o),
(139,319,o),
(165,305,c)
);
}
);
width = 1393;
}
);
unicode = 72;
},
{
glyphname = Hbar;
lastChange = "2024-09-04 11:19:47 +0000";
layers = (
{
layerId = "76B40D95-58B1-4323-9BD9-765A1287C92C";
shapes = (
{
ref = H;
},
{
closed = 1;
nodes = (
(20,603,l),
(906,603,l),
(908,636,l),
(22,636,l)
);
}
);
width = 909;
},
{
layerId = m01;
shapes = (
{
ref = H;
},
{
closed = 1;
nodes = (
(27,602,l),
(916,602,l),
(919,655,l),
(30,655,l)
);
}
);
width = 926;
},
{
layerId = "E3B43ECB-7726-4A5D-9A6F-096C3D942908";
shapes = (
{
ref = H;
},
{
closed = 1;
nodes = (
(59,601,l),
(951,601,l),
(956,697,l),
(64,697,l)
);
}
);
width = 995;
},
{
layerId = m004;
shapes = (
{
ref = H;
},
{
closed = 1;
nodes = (
(25,603,l),
(645,603,l),
(647,636,l),
(27,636,l)
);
}
);
width = 636;
},
{
layerId = m005;
shapes = (
{
ref = H;
},
{
closed = 1;
nodes = (
(30,602,l),
(652,602,l),
(656,655,l),
(33,655,l)
);
}
);
width = 648;
},
{
layerId = m006;
shapes = (
{
ref = H;
},
{
closed = 1;
nodes = (
(53,601,l),
(677,601,l),
(682,697,l),
(58,697,l)
);
}
);
width = 697;
},
{
layerId = m007;
shapes = (
{
ref = H;
},
{
closed = 1;
nodes = (
(13,603,l),
(1253,603,l),
(1255,636,l),
(15,636,l)
);
}
);
width = 1273;
},
{
layerId = m008;
shapes = (
{
ref = H;
},
{
closed = 1;
nodes = (
(23,602,l),
(1267,602,l),
(1270,655,l),
(26,655,l)
);
}
);
width = 1296;
},
{
layerId = m009;
shapes = (
{
ref = H;
},
{
closed = 1;
nodes = (
(68,601,l),
(1316,601,l),
(1321,697,l),
(72,697,l)
);
}
);
width = 1393;
}
);
unicode = 294;
},
{
glyphname = I;
kernLeft = I;
kernRight = I;
lastChange = "2024-09-04 11:19:47 +0000";
layers = (
{
anchors = (
{
name = ogonek;
pos = (858,42);
},
{
name = top;
pos = (518,800);
}
);
layerId = m01;
shapes = (
{
closed = 1;
nodes = (
(193,528,o),
(405,563,o),
(493,676,c),
(506,719,o),
(507,760,o),
(494,800,c),
(382,700,o),
(212,666,o),
(61,658,c),
(47,646,o),
(39,531,o),
(54,518,c)
);
},
{
pos = (352,0);
ref = l;
}
);
width = 991;
},
{
anchors = (
{
name = ogonek;
pos = (858,42);
},
{
name = top;
pos = (525,800);
}
);
layerId = "E3B43ECB-7726-4A5D-9A6F-096C3D942908";
shapes = (
{
closed = 1;
nodes = (
(155,503,o),
(408,523,o),
(481,636,c),
(492,679,o),
(497,756,o),
(478,800,c),
(365,713,o),
(204,693,o),
(70,684,c),
(51,674,o),
(42,508,o),
(60,497,c)
);
},
{
pos = (335,0);
ref = l;
}
);
width = 1009;
},
{
anchors = (
{
name = ogonek;
pos = (858,42);
},
{
name = top;
pos = (514,800);
}
);
layerId = "76B40D95-58B1-4323-9BD9-765A1287C92C";
shapes = (
{
closed = 1;
nodes = (
(204,544,o),
(381,577,o),
(497,693,c),
(512,715,o),
(513,776,o),
(501,800,c),
(413,698,o),
(229,651,o),
(53,639,c),
(42,630,o),
(38,543,o),
(47,534,c)
);
},
{
pos = (362,0);
ref = l;
}
);
width = 981;
},
{
anchors = (
{
name = ogonek;
pos = (601,42);
},
{
name = top;
pos = (375,800);
}
);
layerId = m004;
shapes = (
{
closed = 1;
nodes = (
(153,544,o),
(277,577,o),
(361,693,c),
(372,715,o),
(374,776,o),
(366,800,c),
(302,698,o),
(172,651,o),
(49,639,c),
(41,630,o),
(37,543,o),
(43,534,c)
);
},
{
pos = (253,0);
ref = l;
}
);
width = 687;
},
{
anchors = (
{
name = ogonek;
pos = (601,42);
},
{
name = top;
pos = (378,800);
}
);
layerId = m005;
shapes = (
{
closed = 1;
nodes = (
(145,528,o),
(294,563,o),
(358,676,c),
(368,719,o),
(369,760,o),
(361,800,c),
(280,700,o),
(161,666,o),
(55,658,c),
(45,646,o),
(37,531,o),
(47,518,c)
);
},
{
pos = (246,0);
ref = l;
}
);
width = 694;
},
{
anchors = (
{
name = ogonek;
pos = (601,42);
},
{
name = top;
pos = (382,800);
}
);
layerId = m006;
shapes = (
{
closed = 1;
nodes = (
(118,503,o),
(295,523,o),
(349,636,c),
(357,679,o),
(362,756,o),
(350,800,c),
(269,713,o),
(156,693,o),
(62,684,c),
(48,674,o),
(39,508,o),
(51,497,c)
);
},
{
pos = (235,0);
ref = l;
}
);
width = 706;
},
{
anchors = (
{
name = ogonek;
pos = (1200,42);
},
{
name = top;
pos = (700,800);
}
);
layerId = m007;
shapes = (
{
closed = 1;
nodes = (
(272,544,o),
(519,577,o),
(679,693,c),
(699,715,o),
(699,776,o),
(681,800,c),
(561,698,o),
(304,651,o),
(58,639,c),
(43,630,o),
(40,543,o),
(52,534,c)
);
},
{
pos = (507,0);
ref = l;
}
);
width = 1373;
},
{
anchors = (
{
name = ogonek;
pos = (1200,42);
},
{
name = top;
pos = (705,800);
}
);
layerId = m008;
shapes = (
{
closed = 1;
nodes = (
(257,528,o),
(553,563,o),
(673,676,c),
(690,719,o),
(691,760,o),
(672,800,c),
(517,700,o),
(280,666,o),
(69,658,c),
(50,646,o),
(41,531,o),
(63,518,c)
);
},
{
pos = (493,0);
ref = l;
}
);
width = 1387;
},
{
anchors = (
{
name = ogonek;
pos = (1200,42);
},
{
name = top;
pos = (715,800);
}
);
layerId = m009;
shapes = (
{
closed = 1;
nodes = (
(204,503,o),
(558,523,o),
(658,636,c),
(672,679,o),
(677,756,o),
(649,800,c),
(493,713,o),
(268,693,o),
(81,684,c),
(55,674,o),
(46,508,o),
(72,497,c)
);
},
{
pos = (469,0);
ref = l;
}
);
width = 1413;
}
);
unicode = 73;
},
{
glyphname = J;
lastChange = "2024-09-04 11:19:47 +0000";
layers = (
{
layerId = m01;
shapes = (
{
closed = 1;
nodes = (
(210,-250,o),
(371,-218,o),
(460,-122,cs),
(541,-35,o),
(553,102,o),
(558,212,c),
(509,222,l),
(488,67,o),
(480,5,o),
(359,-49,cs),
(282,-84,o),
(204,-97,o),
(153,-103,c),
(108,-107,o),
(22,-109,o),
(-21,-93,c),
(-25,-91,o),
(-35,-125,o),
(-35,-163,cs),
(-35,-193,o),
(-34,-233,o),
(-29,-237,c),
(9,-254,o),
(69,-254,o),
(109,-253,cs)
);
},
{
pos = (493,240);
ref = "stick-m-bottom.component";
},
{
closed = 1;
nodes = (
(246,528,o),
(458,563,o),
(546,676,c),
(559,719,o),
(560,760,o),
(547,800,c),
(435,700,o),
(265,666,o),
(114,658,c),
(100,646,o),
(92,531,o),
(107,518,c)
);
}
);
width = 670;
},
{
layerId = "E3B43ECB-7726-4A5D-9A6F-096C3D942908";
shapes = (
{
closed = 1;
nodes = (
(269,-292,o),
(394,-253,o),
(481,-164,cs),
(554,-89,o),
(588,0,o),
(594,200,c),
(499,206,l),
(495,147,o),
(496,9,o),
(384,-45,cs),
(323,-74,o),
(250,-90,o),
(182,-98,c),
(127,-103,o),
(47,-106,o),
(-9,-86,c),
(-12,-88,o),
(-29,-111,o),
(-30,-179,cs),
(-31,-226,o),
(-27,-271,o),
(-19,-277,c),
(20,-293,o),
(60,-292,o),
(102,-292,cs)
);
},
{
pos = (497,240);
ref = "stick-m-bottom.component";
},
{
closed = 1;
nodes = (
(216,503,o),
(469,523,o),
(542,636,c),
(553,679,o),
(558,756,o),
(539,800,c),
(426,713,o),
(265,693,o),
(131,684,c),
(112,674,o),
(103,508,o),
(121,497,c)
);
}
);
width = 714;
},
{
layerId = "76B40D95-58B1-4323-9BD9-765A1287C92C";
shapes = (
{
closed = 1;
nodes = (
(227,-231,o),
(354,-186,o),
(443,-95,cs),
(518,-20,o),
(533,101,o),
(537,213,c),
(506,216,l),
(492,33,o),
(464,-23,o),
(353,-69,cs),
(281,-99,o),
(208,-119,o),
(143,-125,c),
(97,-130,o),
(-11,-129,o),
(-33,-113,c),
(-35,-112,o),
(-40,-136,o),
(-40,-163,cs),
(-40,-194,o),
(-40,-214,o),
(-38,-216,c),
(-1,-232,o),
(62,-231,o),
(103,-231,cs)
);
},
{
pos = (501,240);
ref = "stick-m-bottom.component";
},
{
closed = 1;
nodes = (
(246,544,o),
(423,577,o),
(539,693,c),
(554,715,o),
(555,776,o),
(543,800,c),
(455,698,o),
(271,651,o),
(95,639,c),
(84,630,o),
(80,543,o),
(89,534,c)
);
}
);
width = 644;
},
{
layerId = m004;
shapes = (
{
closed = 1;
nodes = (
(155,-231,o),
(244,-186,o),
(308,-95,cs),
(362,-20,o),
(375,101,o),
(380,213,c),
(358,216,l),
(345,33,o),
(324,-23,o),
(246,-69,cs),
(195,-99,o),
(143,-119,o),
(98,-125,c),
(65,-130,o),
(-10,-129,o),
(-25,-113,c),
(-27,-112,o),
(-31,-136,o),
(-31,-163,cs),
(-32,-194,o),
(-32,-214,o),
(-31,-216,c),
(-5,-232,o),
(39,-231,o),
(68,-231,cs)
);
},
{
pos = (355,240);
ref = "stick-m-bottom.component";
},
{
closed = 1;
nodes = (
(182,544,o),
(307,577,o),
(390,693,c),
(401,715,o),
(403,776,o),
(395,800,c),
(332,698,o),
(202,651,o),
(78,639,c),
(71,630,o),
(66,543,o),
(72,534,c)
);
}
);
width = 451;
},
{
layerId = m005;
shapes = (
{
closed = 1;
nodes = (
(142,-250,o),
(256,-218,o),
(320,-122,cs),
(378,-35,o),
(389,102,o),
(395,212,c),
(360,222,l),
(343,67,o),
(336,5,o),
(250,-49,cs),
(196,-84,o),
(141,-97,o),
(105,-103,c),
(74,-107,o),
(13,-109,o),
(-16,-93,c),
(-19,-91,o),
(-27,-125,o),
(-28,-163,cs),
(-28,-193,o),
(-28,-233,o),
(-25,-237,c),
(2,-254,o),
(44,-254,o),
(72,-253,cs)
);
},
{
pos = (350,240);
ref = "stick-m-bottom.component";
},
{
closed = 1;
nodes = (
(182,528,o),
(331,563,o),
(395,676,c),
(405,719,o),
(406,760,o),
(398,800,c),
(318,700,o),
(198,666,o),
(92,658,c),
(82,646,o),
(74,531,o),
(85,518,c)
);
}
);
width = 469;
},
{
layerId = m006;
shapes = (
{
closed = 1;
nodes = (
(183,-292,o),
(271,-253,o),
(334,-164,cs),
(386,-89,o),
(412,0,o),
(420,200,c),
(353,206,l),
(349,147,o),
(347,9,o),
(268,-45,cs),
(225,-74,o),
(173,-90,o),
(126,-98,c),
(87,-103,o),
(31,-106,o),
(-8,-86,c),
(-10,-88,o),
(-22,-111,o),
(-24,-179,cs),
(-26,-226,o),
(-24,-271,o),
(-18,-277,c),
(9,-293,o),
(37,-292,o),
(66,-292,cs)
);
},
{
pos = (352,240);
ref = "stick-m-bottom.component";
},
{
closed = 1;
nodes = (
(161,503,o),
(338,523,o),
(391,636,c),
(400,679,o),
(405,756,o),
(392,800,c),
(312,713,o),
(198,693,o),
(104,684,c),
(91,674,o),
(82,508,o),
(94,497,c)
);
}
);
width = 500;
},
{
layerId = m007;
shapes = (
{
closed = 1;
nodes = (
(324,-231,o),
(500,-186,o),
(623,-95,cs),
(726,-20,o),
(744,101,o),
(746,213,c),
(703,216,l),
(688,33,o),
(650,-23,o),
(496,-69,cs),
(396,-99,o),
(294,-119,o),
(203,-125,c),
(139,-130,o),
(-12,-129,o),
(-43,-113,c),
(-46,-112,o),
(-53,-136,o),
(-52,-163,cs),
(-51,-194,o),
(-51,-214,o),
(-48,-216,c),
(4,-232,o),
(93,-231,o),
(150,-231,cs)
);
},
{
pos = (695,240);
ref = "stick-m-bottom.component";
},
{
closed = 1;
nodes = (
(331,544,o),
(578,577,o),
(737,693,c),
(758,715,o),
(758,776,o),
(740,800,c),
(620,698,o),
(363,651,o),
(117,639,c),
(102,630,o),
(98,543,o),
(111,534,c)
);
}
);
width = 902;
},
{
layerId = m008;
shapes = (
{
closed = 1;
nodes = (
(300,-250,o),
(525,-218,o),
(647,-122,cs),
(758,-35,o),
(772,102,o),
(776,212,c),
(707,222,l),
(682,67,o),
(672,5,o),
(504,-49,cs),
(397,-84,o),
(288,-97,o),
(217,-103,c),
(154,-107,o),
(34,-109,o),
(-27,-93,c),
(-33,-91,o),
(-46,-125,o),
(-45,-163,cs),
(-44,-193,o),
(-42,-233,o),
(-35,-237,c),
(19,-254,o),
(103,-254,o),
(159,-253,cs)
);
},
{
pos = (684,240);
ref = "stick-m-bottom.component";
},
{
closed = 1;
nodes = (
(331,528,o),
(627,563,o),
(748,676,c),
(765,719,o),
(765,760,o),
(746,800,c),
(592,700,o),
(354,666,o),
(143,658,c),
(124,646,o),
(116,531,o),
(137,518,c)
);
}
);
width = 938;
},
{
layerId = m009;
shapes = (
{
closed = 1;
nodes = (
(384,-292,o),
(558,-253,o),
(677,-164,cs),
(778,-89,o),
(823,0,o),
(827,200,c),
(693,206,l),
(689,147,o),
(694,9,o),
(539,-45,cs),
(454,-74,o),
(352,-90,o),
(257,-98,c),
(180,-103,o),
(68,-106,o),
(-10,-86,c),
(-15,-88,o),
(-38,-111,o),
(-38,-179,cs),
(-38,-226,o),
(-31,-271,o),
(-20,-277,c),
(35,-293,o),
(91,-292,o),
(150,-292,cs)
);
},
{
pos = (690,240);
ref = "stick-m-bottom.component";
},
{
closed = 1;
nodes = (
(290,503,o),
(644,523,o),
(743,636,c),
(757,679,o),
(762,756,o),
(735,800,c),
(579,713,o),
(354,693,o),
(166,684,c),
(140,674,o),
(132,508,o),
(157,497,c)
);
}
);
width = 1000;
}
);
unicode = 74;
},
{
glyphname = K;
lastChange = "2024-09-04 11:19:47 +0000";
layers = (
{
anchors = (
{
name = bottom;
pos = (280,-6);
}
);
layerId = m01;
shapes = (
{
closed = 1;
nodes = (
(789,-21,o),
(931,34,o),
(1037,86,c),
(1052,103,o),
(1047,228,o),
(1044,226,cs),
(918,160,o),
(787,123,o),
(664,125,cs),
(494,128,o),
(338,207,o),
(227,389,c),
(421,437,o),
(605,533,o),
(744,676,c),
(756,709,o),
(754,822,o),
(746,811,c),
(601,658,o),
(361,541,o),
(144,511,c),
(138,509,o),
(127,512,o),
(126,503,c),
(116,474,o),
(114,420,o),
(116,390,c),
(118,383,o),
(116,374,o),
(123,369,c),
(134,370,o),
(147,372,o),
(158,374,c),
(170,283,o),
(342,-4,o),
(646,-15,cs)
);
},
{
pos = (75,0);
ref = "stick-xxl-top.component";
}
);
width = 1091;
},
{
anchors = (
{
name = bottom;
pos = (299,-6);
}
);
layerId = "E3B43ECB-7726-4A5D-9A6F-096C3D942908";
shapes = (
{
closed = 1;
nodes = (
(818,-40,o),
(959,12,o),
(1061,65,c),
(1089,122,o),
(1075,253,o),
(1071,250,c),
(953,189,o),
(828,151,o),
(708,150,cs),
(546,148,o),
(393,213,o),
(283,374,c),
(463,424,o),
(636,517,o),
(767,654,c),
(783,697,o),
(781,848,o),
(770,833,c),
(613,668,o),
(364,561,o),
(170,535,c),
(148,535,o),
(150,526,o),
(145,506,c),
(137,457,o),
(133,409,o),
(140,360,c),
(140,355,o),
(142,350,o),
(146,347,c),
(159,348,o),
(171,350,o),
(183,352,c),
(200,264,o),
(356,-30,o),
(682,-37,cs)
);
},
{
pos = (79,0);
ref = "stick-xxl-top.component";
}
);
width = 1126;
},
{
anchors = (
{
name = bottom;
pos = (264,-6);
}
);
layerId = "76B40D95-58B1-4323-9BD9-765A1287C92C";
shapes = (
{
closed = 1;
nodes = (
(788,-16,o),
(932,42,o),
(1024,91,c),
(1033,111,o),
(1033,158,o),
(1029,186,c),
(951,150,o),
(765,80,o),
(655,81,cs),
(463,85,o),
(298,191,o),
(189,396,c),
(389,440,o),
(582,539,o),
(728,687,c),
(745,716,o),
(744,799,o),
(734,789,c),
(594,637,o),
(360,513,o),
(134,482,c),
(120,479,o),
(116,483,o),
(114,465,c),
(110,442,o),
(109,420,o),
(110,397,c),
(111,395,o),
(111,382,o),
(114,383,c),
(127,384,o),
(138,386,o),
(150,388,c),
(161,282,o),
(349,-10,o),
(648,-14,cs)
);
},
{
pos = (72,0);
ref = "stick-xxl-top.component";
}
);
width = 1072;
},
{
anchors = (
{
name = bottom;
pos = (185,-6);
}
);
layerId = m004;
shapes = (
{
closed = 1;
nodes = (
(551,-16,o),
(653,42,o),
(718,91,c),
(725,111,o),
(726,158,o),
(724,186,c),
(669,150,o),
(537,80,o),
(460,81,cs),
(326,85,o),
(212,191,o),
(140,396,c),
(281,440,o),
(417,539,o),
(522,687,c),
(535,716,o),
(536,799,o),
(529,789,c),
(428,637,o),
(262,513,o),
(103,482,c),
(93,479,o),
(90,483,o),
(88,465,c),
(85,442,o),
(84,420,o),
(84,397,c),
(85,395,o),
(85,382,o),
(87,383,c),
(96,384,o),
(104,386,o),
(112,388,c),
(118,282,o),
(244,-10,o),
(453,-14,cs)
);
},
{
pos = (50,0);
ref = "stick-xxl-top.component";
}
);
width = 750;
},
{
anchors = (
{
name = bottom;
pos = (196,-6);
}
);
layerId = m005;
shapes = (
{
closed = 1;
nodes = (
(552,-21,o),
(652,34,o),
(728,86,c),
(738,103,o),
(737,228,o),
(735,226,cs),
(646,160,o),
(553,123,o),
(467,125,cs),
(348,128,o),
(240,207,o),
(166,389,c),
(303,437,o),
(433,533,o),
(533,676,c),
(542,709,o),
(543,822,o),
(537,811,c),
(433,658,o),
(263,541,o),
(110,511,c),
(106,509,o),
(98,512,o),
(98,503,c),
(90,474,o),
(88,420,o),
(88,390,c),
(90,383,o),
(88,374,o),
(93,369,c),
(101,370,o),
(110,372,o),
(118,374,c),
(124,283,o),
(239,-4,o),
(452,-15,cs)
);
},
{
pos = (53,0);
ref = "stick-xxl-top.component";
}
);
width = 764;
},
{
anchors = (
{
name = bottom;
pos = (209,-6);
}
);
layerId = m006;
shapes = (
{
closed = 1;
nodes = (
(572,-40,o),
(672,12,o),
(744,65,c),
(765,122,o),
(757,253,o),
(754,250,c),
(671,189,o),
(582,151,o),
(498,150,cs),
(385,148,o),
(279,213,o),
(205,374,c),
(332,424,o),
(455,517,o),
(549,654,c),
(561,697,o),
(563,848,o),
(555,833,c),
(442,668,o),
(265,561,o),
(129,535,c),
(114,535,o),
(115,526,o),
(111,506,c),
(104,457,o),
(101,409,o),
(105,360,c),
(105,355,o),
(106,350,o),
(109,347,c),
(118,348,o),
(126,350,o),
(135,352,c),
(145,264,o),
(249,-30,o),
(477,-37,cs)
);
},
{
pos = (55,0);
ref = "stick-xxl-top.component";
}
);
width = 788;
},
{
anchors = (
{
name = bottom;
pos = (370,-6);
}
);
layerId = m007;
shapes = (
{
closed = 1;
nodes = (
(1104,-16,o),
(1304,42,o),
(1431,91,c),
(1443,111,o),
(1442,158,o),
(1436,186,c),
(1328,150,o),
(1069,80,o),
(915,81,cs),
(646,85,o),
(412,191,o),
(255,396,c),
(534,440,o),
(801,539,o),
(1002,687,c),
(1025,716,o),
(1022,799,o),
(1008,789,c),
(816,637,o),
(491,513,o),
(176,482,c),
(156,479,o),
(150,483,o),
(148,465,c),
(143,442,o),
(142,420,o),
(144,397,c),
(146,395,o),
(146,382,o),
(150,383,c),
(168,384,o),
(184,386,o),
(200,388,c),
(218,282,o),
(489,-10,o),
(908,-14,cs)
);
},
{
pos = (101,0);
ref = "stick-xxl-top.component";
}
);
width = 1501;
},
{
anchors = (
{
name = bottom;
pos = (392,-6);
}
);
layerId = m008;
shapes = (
{
closed = 1;
nodes = (
(1105,-21,o),
(1303,34,o),
(1450,86,c),
(1470,103,o),
(1460,228,o),
(1456,226,cs),
(1281,160,o),
(1099,123,o),
(926,125,cs),
(688,128,o),
(468,207,o),
(308,389,c),
(578,437,o),
(834,533,o),
(1025,676,c),
(1041,709,o),
(1035,822,o),
(1024,811,c),
(825,658,o),
(492,541,o),
(189,511,c),
(180,509,o),
(165,512,o),
(164,503,c),
(151,474,o),
(149,420,o),
(153,390,c),
(156,383,o),
(153,374,o),
(163,369,c),
(178,370,o),
(197,372,o),
(212,374,c),
(231,283,o),
(479,-4,o),
(905,-15,cs)
);
},
{
pos = (105,0);
ref = "stick-xxl-top.component";
}
);
width = 1527;
},
{
anchors = (
{
name = bottom;
pos = (419,-6);
}
);
layerId = m009;
shapes = (
{
closed = 1;
nodes = (
(1146,-40,o),
(1342,12,o),
(1484,65,c),
(1522,122,o),
(1499,253,o),
(1493,250,c),
(1329,189,o),
(1155,151,o),
(987,150,cs),
(761,148,o),
(545,213,o),
(387,374,c),
(638,424,o),
(877,517,o),
(1057,654,c),
(1079,697,o),
(1072,848,o),
(1057,833,c),
(842,668,o),
(496,561,o),
(225,535,c),
(194,535,o),
(197,526,o),
(190,506,c),
(180,457,o),
(176,409,o),
(187,360,c),
(187,355,o),
(190,350,o),
(196,347,c),
(214,348,o),
(231,350,o),
(247,352,c),
(273,264,o),
(499,-30,o),
(956,-37,cs)
);
},
{
pos = (111,0);
ref = "stick-xxl-top.component";
}
);
width = 1576;
}
);
unicode = 75;
},
{
glyphname = L;
lastChange = "2024-09-04 11:19:47 +0000";
layers = (
{
anchors = (
{
name = bottom;
pos = (454,-20);
},
{
name = top;
pos = (161,800);
}
);
layerId = m01;
shapes = (
{
pos = (75,0);
ref = "stick-xxl-top.component";
},
{
closed = 1;
nodes = (
(584,-34,o),
(727,-11,o),
(838,56,c),
(845,63,o),
(853,68,o),
(854,79,c),
(859,102,o),
(860,128,o),
(861,151,c),
(861,157,o),
(861,213,o),
(852,200,c),
(781,152,o),
(639,111,o),
(509,106,cs),
(338,99,o),
(176,113,o),
(101,135,c),
(75,0,l),
(141,-23,o),
(291,-32,o),
(442,-33,cs)
);
}
);
width = 905;
},
{
anchors = (
{
name = bottom;
pos = (472,-20);
},
{
name = top;
pos = (183,800);
}
);
layerId = "E3B43ECB-7726-4A5D-9A6F-096C3D942908";
shapes = (
{
pos = (79,0);
ref = "stick-xxl-top.component";
},
{
closed = 1;
nodes = (
(543,-38,o),
(717,-20,o),
(856,55,cs),
(873,64,o),
(880,82,o),
(882,107,c),
(883,134,o),
(884,162,o),
(885,189,c),
(885,197,o),
(888,261,o),
(878,250,c),
(774,180,o),
(640,157,o),
(504,151,cs),
(373,145,o),
(206,159,o),
(124,187,c),
(79,0,l),
(171,-24,o),
(297,-37,o),
(413,-37,cs)
);
}
);
width = 933;
},
{
anchors = (
{
name = bottom;
pos = (445,-20);
},
{
name = top;
pos = (145,800);
}
);
layerId = "76B40D95-58B1-4323-9BD9-765A1287C92C";
shapes = (
{
pos = (72,0);
ref = "stick-xxl-top.component";
},
{
closed = 1;
nodes = (
(605,-5,o),
(745,24,o),
(827,59,c),
(840,69,o),
(842,75,o),
(844,91,c),
(845,95,o),
(847,121,o),
(847,141,cs),
(846,154,o),
(844,164,o),
(840,161,c),
(790,127,o),
(618,88,o),
(444,81,cs),
(234,72,o),
(112,88,o),
(95,91,c),
(72,0,l),
(106,-9,o),
(235,-20,o),
(427,-12,cs)
);
}
);
width = 887;
},
{
anchors = (
{
name = bottom;
pos = (311,-20);
},
{
name = top;
pos = (116,800);
}
);
layerId = m004;
shapes = (
{
pos = (50,0);
ref = "stick-xxl-top.component";
},
{
closed = 1;
nodes = (
(423,-5,o),
(522,24,o),
(580,59,c),
(589,69,o),
(591,75,o),
(592,91,c),
(593,95,o),
(595,121,o),
(596,141,cs),
(595,154,o),
(594,164,o),
(591,161,c),
(555,127,o),
(434,88,o),
(312,81,cs),
(165,72,o),
(80,88,o),
(68,91,c),
(50,0,l),
(74,-9,o),
(164,-20,o),
(299,-12,cs)
);
}
);
width = 621;
},
{
anchors = (
{
name = bottom;
pos = (317,-20);
},
{
name = top;
pos = (128,800);
}
);
layerId = m005;
shapes = (
{
pos = (53,0);
ref = "stick-xxl-top.component";
},
{
closed = 1;
nodes = (
(408,-34,o),
(509,-11,o),
(588,56,c),
(593,63,o),
(598,68,o),
(599,79,c),
(603,102,o),
(604,128,o),
(606,151,c),
(606,157,o),
(607,213,o),
(600,200,c),
(550,152,o),
(449,111,o),
(358,106,cs),
(238,99,o),
(125,113,o),
(73,135,c),
(53,0,l),
(98,-23,o),
(203,-32,o),
(309,-33,cs)
);
}
);
width = 634;
},
{
anchors = (
{
name = bottom;
pos = (330,-20);
},
{
name = top;
pos = (143,800);
}
);
layerId = m006;
shapes = (
{
pos = (55,0);
ref = "stick-xxl-top.component";
},
{
closed = 1;
nodes = (
(379,-38,o),
(502,-20,o),
(600,55,cs),
(612,64,o),
(618,82,o),
(619,107,c),
(621,134,o),
(622,162,o),
(623,189,c),
(623,197,o),
(626,261,o),
(619,250,c),
(545,180,o),
(451,157,o),
(356,151,cs),
(264,145,o),
(147,159,o),
(90,187,c),
(55,0,l),
(119,-24,o),
(207,-37,o),
(288,-37,cs)
);
}
);
width = 653;
},
{
anchors = (
{
name = bottom;
pos = (623,-20);
},
{
name = top;
pos = (183,800);
}
);
layerId = m007;
shapes = (
{
pos = (101,0);
ref = "stick-xxl-top.component";
},
{
closed = 1;
nodes = (
(847,-5,o),
(1042,24,o),
(1156,59,c),
(1174,69,o),
(1177,75,o),
(1179,91,c),
(1181,95,o),
(1183,121,o),
(1182,141,cs),
(1181,154,o),
(1178,164,o),
(1172,161,c),
(1103,127,o),
(863,88,o),
(620,81,cs),
(326,72,o),
(155,88,o),
(131,91,c),
(101,0,l),
(149,-9,o),
(329,-20,o),
(598,-12,cs)
);
}
);
width = 1242;
},
{
anchors = (
{
name = bottom;
pos = (636,-20);
},
{
name = top;
pos = (205,800);
}
);
layerId = m008;
shapes = (
{
pos = (105,0);
ref = "stick-xxl-top.component";
},
{
closed = 1;
nodes = (
(818,-34,o),
(1018,-11,o),
(1172,56,c),
(1181,63,o),
(1193,68,o),
(1194,79,c),
(1200,102,o),
(1201,128,o),
(1202,151,c),
(1201,157,o),
(1200,213,o),
(1188,200,c),
(1090,152,o),
(892,111,o),
(710,106,cs),
(471,99,o),
(244,113,o),
(138,135,c),
(105,0,l),
(198,-23,o),
(408,-32,o),
(620,-33,cs)
);
}
);
width = 1267;
},
{
anchors = (
{
name = bottom;
pos = (661,-20);
},
{
name = top;
pos = (236,800);
}
);
layerId = m009;
shapes = (
{
pos = (111,0);
ref = "stick-xxl-top.component";
},
{
closed = 1;
nodes = (
(761,-38,o),
(1004,-20,o),
(1197,55,cs),
(1221,64,o),
(1230,82,o),
(1232,107,c),
(1233,134,o),
(1234,162,o),
(1234,189,c),
(1234,197,o),
(1237,261,o),
(1223,250,c),
(1079,180,o),
(892,157,o),
(702,151,cs),
(519,145,o),
(284,159,o),
(169,187,c),
(111,0,l),
(240,-24,o),
(417,-37,o),
(579,-37,cs)
);
}
);
width = 1306;
}
);
unicode = 76;
},
{
glyphname = Lslash;
lastChange = "2024-09-04 11:19:47 +0000";
layers = (
{
layerId = "76B40D95-58B1-4323-9BD9-765A1287C92C";
shapes = (
{
pos = (54,0);
ref = L;
},
{
closed = 1;
nodes = (
(135,405,o),
(242,445,o),
(358,481,c),
(358,482,o),
(360,484,o),
(360,486,c),
(364,500,o),
(368,536,o),
(366,553,c),
(366,556,o),
(366,558,o),
(362,560,c),
(248,523,o),
(140,481,o),
(25,446,c),
(23,445,o),
(22,444,o),
(21,441,c),
(17,424,o),
(17,396,o),
(17,379,c),
(17,375,o),
(18,373,o),
(20,371,c)
);
}
);
width = 941;
},
{
layerId = m01;
shapes = (
{
pos = (59,0);
ref = L;
},
{
closed = 1;
nodes = (
(145,392,o),
(256,433,o),
(371,470,c),
(372,471,o),
(374,473,o),
(374,475,c),
(379,488,o),
(383,549,o),
(380,565,c),
(380,568,o),
(380,571,o),
(376,573,c),
(262,535,o),
(151,493,o),
(36,457,c),
(34,456,o),
(34,455,o),
(33,452,c),
(25,434,o),
(27,382,o),
(27,366,c),
(27,362,o),
(28,359,o),
(30,357,c)
);
}
);
width = 964;
},
{
layerId = "E3B43ECB-7726-4A5D-9A6F-096C3D942908";
shapes = (
{
pos = (54,0);
ref = L;
},
{
closed = 1;
nodes = (
(179,389,o),
(239,412,o),
(383,459,c),
(384,460,o),
(387,462,o),
(387,464,c),
(393,481,o),
(397,556,o),
(393,576,c),
(393,580,o),
(391,583,o),
(386,585,c),
(244,538,o),
(186,515,o),
(42,469,c),
(41,468,o),
(41,467,o),
(39,463,c),
(30,440,o),
(32,376,o),
(32,356,c),
(32,351,o),
(33,347,o),
(36,345,c)
);
}
);
width = 987;
},
{
layerId = m004;
shapes = (
{
pos = (38,0);
ref = L;
},
{
closed = 1;
nodes = (
(102,405,o),
(178,445,o),
(260,481,c),
(260,482,o),
(261,484,o),
(261,486,c),
(264,500,o),
(268,536,o),
(267,553,c),
(267,556,o),
(267,558,o),
(264,560,c),
(183,523,o),
(107,481,o),
(26,446,c),
(24,445,o),
(24,444,o),
(23,441,c),
(20,424,o),
(19,396,o),
(19,379,c),
(19,375,o),
(20,373,o),
(21,371,c)
);
}
);
width = 659;
},
{
layerId = m005;
shapes = (
{
pos = (41,0);
ref = L;
},
{
closed = 1;
nodes = (
(109,392,o),
(187,433,o),
(268,470,c),
(269,471,o),
(271,473,o),
(271,475,c),
(274,488,o),
(278,549,o),
(277,565,c),
(277,568,o),
(277,571,o),
(274,573,c),
(193,535,o),
(115,493,o),
(34,457,c),
(32,456,o),
(32,455,o),
(32,452,c),
(26,434,o),
(26,382,o),
(26,366,c),
(26,362,o),
(26,359,o),
(28,357,c)
);
}
);
width = 675;
},
{
layerId = m006;
shapes = (
{
pos = (38,0);
ref = L;
},
{
closed = 1;
nodes = (
(133,389,o),
(175,412,o),
(277,459,c),
(277,460,o),
(280,462,o),
(280,464,c),
(284,481,o),
(288,556,o),
(286,576,c),
(286,580,o),
(285,583,o),
(281,585,c),
(181,538,o),
(140,515,o),
(38,469,c),
(37,468,o),
(37,467,o),
(36,463,c),
(29,440,o),
(29,376,o),
(29,356,c),
(29,351,o),
(30,347,o),
(32,345,c)
);
}
);
width = 691;
},
{
layerId = m007;
shapes = (
{
pos = (76,0);
ref = L;
},
{
closed = 1;
nodes = (
(179,405,o),
(328,445,o),
(489,481,c),
(489,482,o),
(492,484,o),
(492,486,c),
(497,500,o),
(502,536,o),
(499,553,c),
(499,556,o),
(498,558,o),
(493,560,c),
(334,523,o),
(184,481,o),
(24,446,c),
(21,445,o),
(20,444,o),
(18,441,c),
(13,424,o),
(14,396,o),
(14,379,c),
(14,375,o),
(16,373,o),
(19,371,c)
);
}
);
width = 1317;
},
{
layerId = m008;
shapes = (
{
pos = (83,0);
ref = L;
},
{
closed = 1;
nodes = (
(193,392,o),
(348,433,o),
(508,470,c),
(509,471,o),
(512,473,o),
(512,475,c),
(518,488,o),
(522,549,o),
(518,565,c),
(518,568,o),
(518,571,o),
(512,573,c),
(353,535,o),
(199,493,o),
(39,457,c),
(36,456,o),
(36,455,o),
(35,452,c),
(24,434,o),
(28,382,o),
(29,366,c),
(29,362,o),
(30,359,o),
(33,357,c)
);
}
);
width = 1350;
},
{
layerId = m009;
shapes = (
{
pos = (76,0);
ref = L;
},
{
closed = 1;
nodes = (
(241,389,o),
(324,412,o),
(525,459,c),
(526,460,o),
(530,462,o),
(530,464,c),
(538,481,o),
(542,556,o),
(536,576,c),
(536,580,o),
(533,583,o),
(526,585,c),
(328,538,o),
(248,515,o),
(47,469,c),
(46,468,o),
(46,467,o),
(43,463,c),
(31,440,o),
(35,376,o),
(36,356,c),
(36,351,o),
(38,347,o),
(42,345,c)
);
}
);
width = 1382;
}
);
unicode = 321;
},
{
glyphname = M;
kernLeft = M;
kernRight = M;
lastChange = "2024-09-04 11:19:47 +0000";
layers = (
{
layerId = m01;
shapes = (
{
closed = 1;
nodes = (
(1384,-14,o),
(1455,-3,o),
(1461,27,c),
(1465,58,o),
(1464,144,o),
(1460,143,c),
(1435,131,o),
(1392,117,o),
(1355,119,cs),
(1288,122,o),
(1240,167,o),
(1220,242,c),
(1218,247,o),
(1217,253,o),
(1216,258,c),
(1219,325,o),
(1247,767,o),
(1247,797,cs),
(1247,827,o),
(1216,830,o),
(1200,808,c),
(1059,619,o),
(928,458,o),
(786,272,c),
(771,254,o),
(737,161,o),
(735,144,c),
(700,356,o),
(666,575,o),
(631,788,c),
(628,799,o),
(596,817,o),
(588,777,c),
(566,718,o),
(545,661,o),
(523,607,cs),
(482,506,o),
(435,412,o),
(362,320,c),
(286,224,o),
(182,166,o),
(60,169,c),
(43,157,o),
(35,5,o),
(51,-9,c),
(222,-16,o),
(334,91,o),
(421,234,c),
(491,347,o),
(541,472,o),
(587,599,c),
(593,618,o),
(603,637,o),
(605,660,c),
(634,475,o),
(701,64,o),
(712,0,cs),
(715,-18,o),
(718,-15,o),
(730,0,cs),
(884,195,o),
(1033,389,o),
(1185,579,c),
(1181,507,o),
(1174,420,o),
(1167,351,c),
(1159,268,o),
(1148,195,o),
(1174,107,c),
(1211,5,o),
(1284,-15,o),
(1356,-15,cs)
);
}
);
width = 1500;
},
{
layerId = "E3B43ECB-7726-4A5D-9A6F-096C3D942908";
shapes = (
{
closed = 1;
nodes = (
(1385,-18,o),
(1478,-8,o),
(1484,30,c),
(1490,60,o),
(1485,178,o),
(1483,178,c),
(1459,168,o),
(1416,155,o),
(1379,156,cs),
(1316,159,o),
(1268,197,o),
(1248,267,c),
(1246,278,o),
(1243,289,o),
(1242,300,c),
(1247,403,o),
(1275,698,o),
(1275,800,cs),
(1275,837,o),
(1235,851,o),
(1202,804,c),
(1059,622,o),
(938,465,o),
(797,284,c),
(781,267,o),
(755,190,o),
(752,173,c),
(718,380,o),
(683,593,o),
(648,800,c),
(638,839,o),
(608,826,o),
(599,799,c),
(584,749,o),
(567,699,o),
(548,651,c),
(507,546,o),
(450,456,o),
(371,368,cs),
(295,282,o),
(197,208,o),
(71,211,c),
(49,199,o),
(39,-4,o),
(60,-17,c),
(236,-17,o),
(357,108,o),
(445,250,cs),
(500,338,o),
(541,412,o),
(573,507,cs),
(586,545,o),
(598,582,o),
(608,616,c),
(634,458,o),
(692,114,o),
(713,0,cs),
(727,-81,o),
(748,-11,o),
(758,1,cs),
(893,171,o),
(1027,341,o),
(1162,513,c),
(1158,439,o),
(1153,383,o),
(1145,305,cs),
(1138,234,o),
(1145,164,o),
(1168,103,c),
(1198,24,o),
(1275,-12,o),
(1347,-16,cs)
);
}
);
width = 1527;
},
{
layerId = "76B40D95-58B1-4323-9BD9-765A1287C92C";
shapes = (
{
closed = 1;
nodes = (
(1377,-10,o),
(1432,6,o),
(1456,19,c),
(1463,45,o),
(1461,114,o),
(1458,114,c),
(1424,98,o),
(1376,90,o),
(1346,92,cs),
(1255,96,o),
(1210,169,o),
(1207,278,cs),
(1207,282,o),
(1207,287,o),
(1207,291,c),
(1211,398,o),
(1237,670,o),
(1237,778,cs),
(1237,811,o),
(1215,817,o),
(1197,789,c),
(1055,601,o),
(926,444,o),
(785,255,c),
(770,235,o),
(727,146,o),
(723,131,c),
(690,332,o),
(617,770,o),
(614,789,c),
(613,804,o),
(590,812,o),
(585,789,c),
(568,732,o),
(552,671,o),
(533,614,cs),
(499,517,o),
(458,422,o),
(402,336,c),
(311,193,o),
(199,122,o),
(49,122,c),
(35,114,o),
(32,2,o),
(43,-7,c),
(232,-12,o),
(355,121,o),
(443,281,cs),
(499,382,o),
(541,515,o),
(575,618,cs),
(583,642,o),
(590,664,o),
(597,686,c),
(621,535,o),
(681,182,o),
(702,31,cs),
(708,-10,o),
(715,-17,o),
(737,31,c),
(887,230,o),
(1037,413,o),
(1187,613,c),
(1180,507,o),
(1169,357,o),
(1162,248,c),
(1161,182,o),
(1171,110,o),
(1215,57,c),
(1244,20,o),
(1296,-5,o),
(1342,-7,cs)
);
}
);
width = 1493;
},
{
layerId = m004;
shapes = (
{
closed = 1;
nodes = (
(964,-10,o),
(1003,6,o),
(1020,19,c),
(1025,45,o),
(1025,114,o),
(1023,114,c),
(999,98,o),
(965,90,o),
(944,92,cs),
(880,96,o),
(850,169,o),
(850,278,cs),
(850,282,o),
(850,287,o),
(850,291,c),
(855,398,o),
(878,670,o),
(880,778,cs),
(881,811,o),
(866,817,o),
(853,789,c),
(750,601,o),
(656,444,o),
(554,255,c),
(543,235,o),
(512,146,o),
(509,131,c),
(489,332,o),
(446,770,o),
(445,789,c),
(444,804,o),
(428,812,o),
(424,789,c),
(411,732,o),
(399,671,o),
(385,614,cs),
(359,517,o),
(328,422,o),
(288,336,c),
(221,193,o),
(142,122,o),
(37,122,c),
(27,114,o),
(22,2,o),
(30,-7,c),
(162,-12,o),
(251,121,o),
(315,281,cs),
(356,382,o),
(388,515,o),
(414,618,cs),
(420,642,o),
(425,664,o),
(431,686,c),
(445,535,o),
(480,182,o),
(492,31,cs),
(495,-10,o),
(500,-17,o),
(516,31,c),
(625,230,o),
(734,413,o),
(842,613,c),
(835,507,o),
(825,357,o),
(818,248,c),
(816,182,o),
(822,110,o),
(852,57,c),
(871,20,o),
(907,-5,o),
(939,-7,cs)
);
}
);
width = 1045;
},
{
layerId = m005;
shapes = (
{
closed = 1;
nodes = (
(969,-14,o),
(1018,-3,o),
(1023,27,c),
(1027,58,o),
(1027,144,o),
(1025,143,c),
(1007,131,o),
(977,117,o),
(951,119,cs),
(904,122,o),
(871,167,o),
(859,242,c),
(857,247,o),
(857,253,o),
(856,258,c),
(859,325,o),
(887,767,o),
(888,797,cs),
(888,827,o),
(867,830,o),
(855,808,c),
(753,619,o),
(658,458,o),
(555,272,c),
(544,254,o),
(519,161,o),
(517,144,c),
(497,356,o),
(477,575,o),
(456,788,c),
(455,799,o),
(432,817,o),
(426,777,c),
(410,718,o),
(394,661,o),
(377,607,cs),
(347,506,o),
(312,412,o),
(259,320,c),
(204,224,o),
(131,166,o),
(45,169,c),
(33,157,o),
(25,5,o),
(36,-9,c),
(155,-16,o),
(235,91,o),
(299,234,c),
(350,347,o),
(388,472,o),
(422,599,c),
(427,618,o),
(434,637,o),
(436,660,c),
(453,475,o),
(492,64,o),
(498,0,cs),
(500,-18,o),
(502,-15,o),
(511,0,cs),
(622,195,o),
(730,389,o),
(840,579,c),
(836,507,o),
(830,420,o),
(823,351,c),
(816,268,o),
(807,195,o),
(824,107,c),
(848,5,o),
(899,-15,o),
(949,-15,cs)
);
}
);
width = 1050;
},
{
layerId = m006;
shapes = (
{
closed = 1;
nodes = (
(969,-18,o),
(1034,-8,o),
(1039,30,c),
(1044,60,o),
(1043,178,o),
(1041,178,c),
(1024,168,o),
(994,155,o),
(968,156,cs),
(924,159,o),
(891,197,o),
(879,267,c),
(877,278,o),
(875,289,o),
(875,300,c),
(880,403,o),
(906,698,o),
(907,800,cs),
(908,837,o),
(880,851,o),
(856,804,c),
(753,622,o),
(665,465,o),
(563,284,c),
(552,267,o),
(532,190,o),
(530,173,c),
(510,380,o),
(489,593,o),
(469,800,c),
(462,839,o),
(441,826,o),
(434,799,c),
(423,749,o),
(410,699,o),
(396,651,c),
(365,546,o),
(324,456,o),
(267,368,cs),
(212,282,o),
(142,208,o),
(54,211,c),
(38,199,o),
(27,-4,o),
(42,-17,c),
(165,-17,o),
(252,108,o),
(316,250,cs),
(356,338,o),
(386,412,o),
(411,507,cs),
(420,545,o),
(429,582,o),
(437,616,c),
(452,458,o),
(487,114,o),
(499,0,cs),
(507,-81,o),
(523,-11,o),
(531,1,cs),
(628,171,o),
(725,341,o),
(823,513,c),
(819,439,o),
(814,383,o),
(807,305,cs),
(801,234,o),
(805,164,o),
(820,103,c),
(839,24,o),
(892,-12,o),
(943,-16,cs)
);
}
);
width = 1069;
},
{
layerId = m007;
shapes = (
{
closed = 1;
nodes = (
(1928,-10,o),
(2005,6,o),
(2038,19,c),
(2047,45,o),
(2043,114,o),
(2038,114,c),
(1991,98,o),
(1924,90,o),
(1882,92,cs),
(1755,96,o),
(1690,169,o),
(1683,278,cs),
(1683,282,o),
(1683,287,o),
(1683,291,c),
(1685,398,o),
(1715,670,o),
(1712,778,cs),
(1712,811,o),
(1681,817,o),
(1656,789,c),
(1462,601,o),
(1285,444,o),
(1093,255,c),
(1072,235,o),
(1014,146,o),
(1009,131,c),
(958,332,o),
(845,770,o),
(840,789,c),
(838,804,o),
(806,812,o),
(799,789,c),
(777,732,o),
(756,671,o),
(731,614,cs),
(686,517,o),
(631,422,o),
(554,336,c),
(431,193,o),
(276,122,o),
(66,122,c),
(46,114,o),
(45,2,o),
(60,-7,c),
(325,-12,o),
(494,121,o),
(613,281,cs),
(689,382,o),
(745,515,o),
(790,618,cs),
(800,642,o),
(809,664,o),
(819,686,c),
(856,535,o),
(949,182,o),
(982,31,cs),
(991,-10,o),
(1001,-17,o),
(1031,31,c),
(1236,230,o),
(1441,413,o),
(1646,613,c),
(1639,507,o),
(1628,357,o),
(1621,248,c),
(1621,182,o),
(1637,110,o),
(1700,57,c),
(1741,20,o),
(1815,-5,o),
(1879,-7,cs)
);
}
);
width = 2090;
},
{
layerId = m008;
shapes = (
{
closed = 1;
nodes = (
(1938,-14,o),
(2037,-3,o),
(2045,27,c),
(2050,58,o),
(2046,144,o),
(2040,143,c),
(2006,131,o),
(1946,117,o),
(1894,119,cs),
(1800,122,o),
(1732,167,o),
(1702,242,c),
(1699,247,o),
(1697,253,o),
(1696,258,c),
(1698,325,o),
(1727,767,o),
(1726,797,cs),
(1725,827,o),
(1682,830,o),
(1660,808,c),
(1467,619,o),
(1288,458,o),
(1094,272,c),
(1073,254,o),
(1028,161,o),
(1025,144,c),
(971,356,o),
(918,575,o),
(864,788,c),
(859,799,o),
(814,817,o),
(804,777,c),
(774,718,o),
(746,661,o),
(717,607,cs),
(662,506,o),
(599,412,o),
(499,320,c),
(395,224,o),
(251,166,o),
(80,169,c),
(56,157,o),
(49,5,o),
(72,-9,c),
(311,-16,o),
(465,91,o),
(584,234,c),
(679,347,o),
(746,472,o),
(807,599,c),
(815,618,o),
(828,637,o),
(831,660,c),
(876,475,o),
(980,64,o),
(997,0,cs),
(1001,-18,o),
(1006,-15,o),
(1022,0,cs),
(1233,195,o),
(1436,389,o),
(1645,579,c),
(1641,507,o),
(1633,420,o),
(1625,351,c),
(1616,268,o),
(1602,195,o),
(1641,107,c),
(1695,5,o),
(1798,-15,o),
(1899,-15,cs)
);
}
);
width = 2100;
},
{
layerId = m009;
shapes = (
{
closed = 1;
nodes = (
(1939,-18,o),
(2069,-8,o),
(2077,30,c),
(2085,60,o),
(2075,178,o),
(2072,178,c),
(2038,168,o),
(1979,155,o),
(1927,156,cs),
(1838,159,o),
(1770,197,o),
(1741,267,c),
(1737,278,o),
(1733,289,o),
(1731,300,c),
(1736,403,o),
(1768,698,o),
(1765,800,cs),
(1764,837,o),
(1708,851,o),
(1663,804,c),
(1467,622,o),
(1302,465,o),
(1109,284,c),
(1087,267,o),
(1052,190,o),
(1048,173,c),
(996,380,o),
(941,593,o),
(887,800,c),
(872,839,o),
(831,826,o),
(819,799,c),
(799,749,o),
(776,699,o),
(751,651,c),
(696,546,o),
(619,456,o),
(510,368,cs),
(406,282,o),
(271,208,o),
(94,211,c),
(64,199,o),
(55,-4,o),
(84,-17,c),
(331,-17,o),
(497,108,o),
(617,250,cs),
(692,338,o),
(747,412,o),
(790,507,cs),
(807,545,o),
(823,582,o),
(836,616,c),
(876,458,o),
(966,114,o),
(998,0,cs),
(1020,-81,o),
(1047,-11,o),
(1061,1,cs),
(1246,171,o),
(1429,341,o),
(1614,513,c),
(1610,439,o),
(1605,383,o),
(1595,305,cs),
(1587,234,o),
(1599,164,o),
(1633,103,c),
(1677,24,o),
(1785,-12,o),
(1886,-16,cs)
);
}
);
width = 2138;
}
);
unicode = 77;
},
{
glyphname = N;
kernLeft = N;
kernRight = N;
lastChange = "2024-09-04 11:19:47 +0000";
layers = (
{
anchors = (
{
name = bottom;
pos = (560,-6);
},
{
name = top;
pos = (785,800);
}
);
layerId = m01;
shapes = (
{
closed = 1;
nodes = (
(1314,663,o),
(1320,784,o),
(1307,794,c),
(1140,805,o),
(1042,713,o),
(985,588,cs),
(929,467,o),
(912,315,o),
(905,197,c),
(733,410,o),
(590,592,o),
(418,805,c),
(403,823,o),
(397,722,o),
(395,699,cs),
(391,657,o),
(377,440,o),
(364,381,c),
(327,222,o),
(220,142,o),
(59,144,c),
(42,134,o),
(36,-4,o),
(50,-13,c),
(189,-15,o),
(274,36,o),
(328,114,cs),
(410,234,o),
(418,420,o),
(430,581,c),
(594,377,o),
(738,205,o),
(903,1,cs),
(925,-27,o),
(933,-32,o),
(937,0,cs),
(945,68,o),
(955,221,o),
(960,266,c),
(970,368,o),
(998,472,o),
(1055,545,cs),
(1108,614,o),
(1187,657,o),
(1299,649,c)
);
}
);
width = 1346;
},
{
anchors = (
{
name = bottom;
pos = (570,-6);
},
{
name = top;
pos = (799,800);
}
);
layerId = "E3B43ECB-7726-4A5D-9A6F-096C3D942908";
shapes = (
{
closed = 1;
nodes = (
(1335,627,o),
(1345,787,o),
(1328,800,c),
(1162,812,o),
(1061,724,o),
(1001,604,cs),
(944,492,o),
(922,353,o),
(914,238,c),
(750,443,o),
(596,626,o),
(432,831,c),
(421,842,o),
(405,743,o),
(401,703,cs),
(393,612,o),
(392,519,o),
(374,428,c),
(337,270,o),
(227,198,o),
(69,199,c),
(49,191,o),
(40,7,o),
(57,0,c),
(199,-2,o),
(290,44,o),
(349,116,cs),
(433,218,o),
(453,374,o),
(464,524,c),
(622,330,o),
(736,196,o),
(894,1,cs),
(930,-44,o),
(957,-57,o),
(964,1,cs),
(973,70,o),
(981,208,o),
(988,259,c),
(999,370,o),
(1030,473,o),
(1096,539,cs),
(1147,589,o),
(1219,618,o),
(1317,611,c)
);
}
);
width = 1377;
},
{
anchors = (
{
name = bottom;
pos = (554,-6);
},
{
name = top;
pos = (773,800);
}
);
layerId = "76B40D95-58B1-4323-9BD9-765A1287C92C";
shapes = (
{
closed = 1;
nodes = (
(1307,701,o),
(1312,789,o),
(1302,792,c),
(1161,801,o),
(1074,730,o),
(1007,614,cs),
(925,474,o),
(922,305,o),
(909,154,c),
(799,297,o),
(521,657,o),
(411,792,c),
(405,802,o),
(394,715,o),
(391,686,cs),
(382,595,o),
(387,311,o),
(282,187,c),
(223,118,o),
(130,94,o),
(43,95,c),
(35,95,o),
(31,-5,o),
(39,-5,c),
(157,-5,o),
(236,41,o),
(311,135,cs),
(405,254,o),
(417,578,o),
(419,631,c),
(587,413,o),
(740,224,o),
(909,6,c),
(917,-3,o),
(934,-26,o),
(943,2,cs),
(946,10,o),
(954,160,o),
(959,228,c),
(971,367,o),
(995,496,o),
(1054,583,cs),
(1105,657,o),
(1181,701,o),
(1297,693,c)
);
}
);
width = 1331;
},
{
anchors = (
{
name = bottom;
pos = (388,-6);
},
{
name = top;
pos = (556,800);
}
);
layerId = m004;
shapes = (
{
closed = 1;
nodes = (
(928,701,o),
(933,789,o),
(926,792,c),
(828,801,o),
(765,730,o),
(716,614,cs),
(656,474,o),
(651,305,o),
(639,154,c),
(565,297,o),
(377,657,o),
(302,792,c),
(298,802,o),
(289,715,o),
(287,686,cs),
(279,595,o),
(277,311,o),
(201,187,c),
(158,118,o),
(93,94,o),
(32,95,c),
(26,95,o),
(22,-5,o),
(27,-5,c),
(110,-5,o),
(166,41,o),
(220,135,cs),
(288,254,o),
(303,578,o),
(305,631,c),
(419,413,o),
(522,224,o),
(636,6,c),
(642,-3,o),
(653,-26,o),
(660,2,cs),
(662,10,o),
(671,160,o),
(676,228,c),
(687,367,o),
(706,496,o),
(749,583,cs),
(786,657,o),
(840,701,o),
(921,693,c)
);
}
);
width = 932;
},
{
anchors = (
{
name = bottom;
pos = (392,-6);
},
{
name = top;
pos = (564,800);
}
);
layerId = m005;
shapes = (
{
closed = 1;
nodes = (
(932,663,o),
(939,784,o),
(930,794,c),
(813,805,o),
(743,713,o),
(700,588,cs),
(659,467,o),
(644,315,o),
(637,197,c),
(521,410,o),
(424,592,o),
(308,805,c),
(297,823,o),
(291,722,o),
(290,699,cs),
(286,657,o),
(272,440,o),
(262,381,c),
(233,222,o),
(157,142,o),
(44,144,c),
(32,134,o),
(25,-4,o),
(35,-13,c),
(132,-15,o),
(192,36,o),
(232,114,cs),
(291,234,o),
(300,420,o),
(312,581,c),
(423,377,o),
(520,205,o),
(632,1,cs),
(647,-27,o),
(653,-32,o),
(656,0,cs),
(663,68,o),
(673,221,o),
(677,266,c),
(686,368,o),
(707,472,o),
(749,545,cs),
(787,614,o),
(843,657,o),
(921,649,c)
);
}
);
width = 942;
},
{
anchors = (
{
name = bottom;
pos = (399,-6);
},
{
name = top;
pos = (574,800);
}
);
layerId = m006;
shapes = (
{
closed = 1;
nodes = (
(946,627,o),
(956,787,o),
(945,800,c),
(829,812,o),
(756,724,o),
(712,604,cs),
(670,492,o),
(652,353,o),
(644,238,c),
(533,443,o),
(429,626,o),
(318,831,c),
(310,842,o),
(297,743,o),
(294,703,cs),
(287,612,o),
(284,519,o),
(270,428,c),
(241,270,o),
(163,198,o),
(52,199,c),
(38,191,o),
(28,7,o),
(40,0,c),
(139,-2,o),
(204,44,o),
(246,116,cs),
(307,218,o),
(324,374,o),
(335,524,c),
(442,330,o),
(519,196,o),
(626,1,cs),
(650,-44,o),
(669,-57,o),
(675,1,cs),
(682,70,o),
(691,208,o),
(696,259,c),
(706,370,o),
(730,473,o),
(777,539,cs),
(814,589,o),
(865,618,o),
(933,611,c)
);
}
);
width = 964;
},
{
anchors = (
{
name = bottom;
pos = (776,-6);
},
{
name = top;
pos = (1062,800);
}
);
layerId = m007;
shapes = (
{
closed = 1;
nodes = (
(1812,701,o),
(1817,789,o),
(1803,792,c),
(1605,801,o),
(1485,730,o),
(1394,614,cs),
(1283,474,o),
(1283,305,o),
(1269,154,c),
(1111,297,o),
(713,657,o),
(556,792,c),
(547,802,o),
(534,715,o),
(530,686,cs),
(520,595,o),
(534,311,o),
(390,187,c),
(309,118,o),
(180,94,o),
(58,95,c),
(47,95,o),
(44,-5,o),
(55,-5,c),
(220,-5,o),
(329,41,o),
(432,135,cs),
(561,254,o),
(569,578,o),
(571,631,c),
(811,413,o),
(1030,224,o),
(1272,6,c),
(1284,-3,o),
(1308,-26,o),
(1320,2,cs),
(1324,10,o),
(1332,160,o),
(1337,228,c),
(1350,367,o),
(1381,496,o),
(1461,583,cs),
(1531,657,o),
(1636,701,o),
(1799,693,c)
);
}
);
width = 1863;
},
{
anchors = (
{
name = bottom;
pos = (784,-6);
},
{
name = top;
pos = (1079,800);
}
);
layerId = m008;
shapes = (
{
closed = 1;
nodes = (
(1823,663,o),
(1828,784,o),
(1810,794,c),
(1576,805,o),
(1441,713,o),
(1364,588,cs),
(1289,467,o),
(1269,315,o),
(1262,197,c),
(1016,410,o),
(811,592,o),
(565,805,c),
(544,823,o),
(538,722,o),
(536,699,cs),
(531,657,o),
(517,440,o),
(500,381,c),
(452,222,o),
(304,142,o),
(79,144,c),
(55,134,o),
(50,-4,o),
(70,-13,c),
(265,-15,o),
(383,36,o),
(456,114,cs),
(568,234,o),
(575,420,o),
(587,581,c),
(822,377,o),
(1028,205,o),
(1264,1,cs),
(1296,-27,o),
(1307,-32,o),
(1312,0,cs),
(1321,68,o),
(1331,221,o),
(1337,266,c),
(1349,368,o),
(1385,472,o),
(1463,545,cs),
(1536,614,o),
(1645,657,o),
(1802,649,c)
);
}
);
width = 1884;
},
{
anchors = (
{
name = bottom;
pos = (798,-6);
},
{
name = top;
pos = (1099,800);
}
);
layerId = m009;
shapes = (
{
closed = 1;
nodes = (
(1853,627,o),
(1863,787,o),
(1839,800,c),
(1607,812,o),
(1467,724,o),
(1386,604,cs),
(1309,492,o),
(1282,353,o),
(1274,238,c),
(1039,443,o),
(819,626,o),
(584,831,c),
(568,842,o),
(548,743,o),
(544,703,cs),
(535,612,o),
(536,519,o),
(513,428,c),
(465,270,o),
(313,198,o),
(92,199,c),
(64,191,o),
(56,7,o),
(80,0,c),
(279,-2,o),
(405,44,o),
(486,116,cs),
(601,218,o),
(625,374,o),
(637,524,c),
(863,330,o),
(1026,196,o),
(1252,1,cs),
(1303,-44,o),
(1341,-57,o),
(1350,1,cs),
(1360,70,o),
(1368,208,o),
(1377,259,c),
(1389,370,o),
(1430,473,o),
(1521,539,cs),
(1591,589,o),
(1691,618,o),
(1829,611,c)
);
}
);
width = 1928;
}
);
unicode = 78;
},
{
glyphname = O;
lastChange = "2024-09-04 11:19:47 +0000";
layers = (
{
anchors = (
{
name = top;
pos = (562,800);
}
);
layerId = m01;
shapes = (
{
closed = 1;
nodes = (
(637,-16,o),
(828,70,o),
(935,226,c),
(998,319,o),
(1009,435,o),
(1002,544,c),
(990,727,o),
(810,825,o),
(624,826,cs),
(507,827,o),
(389,791,o),
(290,733,c),
(173,662,o),
(102,571,o),
(72,462,cs),
(52,391,o),
(49,311,o),
(62,224,c),
(94,49,o),
(289,-29,o),
(451,-22,c)
);
},
{
closed = 1;
nodes = (
(286,118,o),
(138,182,o),
(88,311,cs),
(83,323,o),
(79,336,o),
(77,349,c),
(82,363,o),
(87,376,o),
(93,389,cs),
(175,569,o),
(391,678,o),
(595,685,cs),
(749,690,o),
(926,628,o),
(973,485,cs),
(976,475,o),
(979,465,o),
(981,455,c),
(978,446,o),
(976,437,o),
(972,429,c),
(953,386,o),
(928,347,o),
(898,313,cs),
(790,189,o),
(617,121,o),
(450,120,cs)
);
}
);
width = 1058;
},
{
anchors = (
{
name = top;
pos = (567,800);
}
);
layerId = "E3B43ECB-7726-4A5D-9A6F-096C3D942908";
shapes = (
{
closed = 1;
nodes = (
(640,-33,o),
(829,52,o),
(934,207,c),
(1002,309,o),
(1011,439,o),
(1003,558,c),
(992,742,o),
(822,840,o),
(635,843,cs),
(517,845,o),
(400,811,o),
(300,752,c),
(189,686,o),
(96,580,o),
(75,449,c),
(61,369,o),
(56,287,o),
(70,207,c),
(102,33,o),
(295,-46,o),
(456,-39,c)
);
},
{
closed = 1;
nodes = (
(345,140,o),
(187,183,o),
(117,302,cs),
(108,317,o),
(100,334,o),
(95,351,c),
(102,369,o),
(111,386,o),
(121,402,cs),
(216,561,o),
(415,655,o),
(605,659,cs),
(744,661,o),
(893,612,o),
(955,496,cs),
(962,483,o),
(968,468,o),
(973,453,c),
(964,431,o),
(954,410,o),
(941,391,cs),
(925,367,o),
(907,344,o),
(886,322,cs),
(785,219,o),
(631,153,o),
(483,146,cs)
);
}
);
width = 1067;
},
{
anchors = (
{
name = top;
pos = (554,800);
}
);
layerId = "76B40D95-58B1-4323-9BD9-765A1287C92C";
shapes = (
{
closed = 1;
nodes = (
(628,-6,o),
(819,82,o),
(926,242,c),
(982,324,o),
(998,430,o),
(989,529,c),
(978,714,o),
(792,810,o),
(609,811,cs),
(505,812,o),
(399,784,o),
(307,732,cs),
(203,675,o),
(105,588,o),
(65,457,cs),
(46,393,o),
(44,305,o),
(54,238,cs),
(79,70,o),
(271,-19,o),
(441,-12,c)
);
},
{
closed = 1;
nodes = (
(284,85,o),
(120,156,o),
(79,309,cs),
(76,320,o),
(75,332,o),
(73,343,c),
(76,358,o),
(79,371,o),
(84,385,c),
(154,580,o),
(386,710,o),
(599,714,cs),
(762,716,o),
(925,633,o),
(959,483,c),
(962,469,o),
(963,462,o),
(965,451,c),
(962,441,o),
(956,423,o),
(952,415,cs),
(936,371,o),
(914,332,o),
(885,295,cs),
(785,167,o),
(615,86,o),
(436,86,cs)
);
}
);
width = 1039;
},
{
anchors = (
{
name = top;
pos = (403,800);
}
);
layerId = m004;
shapes = (
{
closed = 1;
nodes = (
(439,-6,o),
(575,82,o),
(653,242,c),
(693,324,o),
(707,430,o),
(702,529,c),
(698,714,o),
(570,810,o),
(441,811,cs),
(369,812,o),
(294,784,o),
(229,732,cs),
(155,675,o),
(84,588,o),
(54,457,cs),
(40,393,o),
(36,305,o),
(42,238,cs),
(57,70,o),
(189,-19,o),
(308,-12,c)
);
},
{
closed = 1;
nodes = (
(200,85,o),
(87,156,o),
(61,309,cs),
(59,320,o),
(59,332,o),
(58,343,c),
(60,358,o),
(62,371,o),
(66,385,c),
(119,580,o),
(283,710,o),
(433,714,cs),
(547,716,o),
(659,633,o),
(680,483,c),
(682,469,o),
(683,462,o),
(684,451,c),
(682,441,o),
(677,423,o),
(674,415,cs),
(662,371,o),
(646,332,o),
(625,295,cs),
(553,167,o),
(432,86,o),
(307,86,cs)
);
}
);
width = 727;
},
{
anchors = (
{
name = top;
pos = (408,800);
}
);
layerId = m005;
shapes = (
{
closed = 1;
nodes = (
(446,-16,o),
(581,70,o),
(659,226,c),
(705,319,o),
(714,435,o),
(712,544,c),
(707,727,o),
(582,825,o),
(452,826,cs),
(370,827,o),
(287,791,o),
(217,733,c),
(133,662,o),
(82,571,o),
(59,462,cs),
(44,391,o),
(40,311,o),
(48,224,c),
(67,49,o),
(202,-29,o),
(315,-22,c)
);
},
{
closed = 1;
nodes = (
(202,118,o),
(100,182,o),
(67,311,cs),
(64,323,o),
(62,336,o),
(60,349,c),
(64,363,o),
(68,376,o),
(72,389,cs),
(133,569,o),
(286,678,o),
(429,685,cs),
(537,690,o),
(660,628,o),
(690,485,cs),
(692,475,o),
(694,465,o),
(695,455,c),
(693,446,o),
(691,437,o),
(688,429,c),
(674,386,o),
(656,347,o),
(634,313,cs),
(557,189,o),
(434,121,o),
(317,120,cs)
);
}
);
width = 741;
},
{
anchors = (
{
name = top;
pos = (412,800);
}
);
layerId = m006;
shapes = (
{
closed = 1;
nodes = (
(447,-33,o),
(581,52,o),
(658,207,c),
(707,309,o),
(716,439,o),
(713,558,c),
(708,742,o),
(591,840,o),
(460,843,cs),
(378,845,o),
(295,811,o),
(224,752,c),
(145,686,o),
(78,580,o),
(61,449,c),
(50,369,o),
(45,287,o),
(53,207,c),
(72,33,o),
(206,-46,o),
(318,-39,c)
);
},
{
closed = 1;
nodes = (
(244,140,o),
(134,183,o),
(88,302,cs),
(82,317,o),
(76,334,o),
(73,351,c),
(78,369,o),
(85,386,o),
(92,402,cs),
(162,561,o),
(303,655,o),
(436,659,cs),
(533,661,o),
(637,612,o),
(678,496,cs),
(682,483,o),
(686,468,o),
(690,453,c),
(683,431,o),
(675,410,o),
(666,391,cs),
(654,367,o),
(641,344,o),
(626,322,cs),
(554,219,o),
(445,153,o),
(341,146,cs)
);
}
);
width = 747;
},
{
anchors = (
{
name = top;
pos = (756,800);
}
);
layerId = m007;
shapes = (
{
closed = 1;
nodes = (
(879,-6,o),
(1145,82,o),
(1290,242,c),
(1367,324,o),
(1386,430,o),
(1371,529,c),
(1351,714,o),
(1089,810,o),
(832,811,cs),
(687,812,o),
(539,784,o),
(412,732,cs),
(267,675,o),
(132,588,o),
(80,457,cs),
(55,393,o),
(54,305,o),
(70,238,cs),
(109,70,o),
(380,-19,o),
(618,-12,c)
);
},
{
closed = 1;
nodes = (
(395,85,o),
(164,156,o),
(103,309,cs),
(98,320,o),
(97,332,o),
(94,343,c),
(97,358,o),
(101,371,o),
(108,385,c),
(201,580,o),
(523,710,o),
(821,714,cs),
(1049,716,o),
(1279,633,o),
(1331,483,c),
(1335,469,o),
(1337,462,o),
(1340,451,c),
(1336,441,o),
(1328,423,o),
(1322,415,cs),
(1301,371,o),
(1271,332,o),
(1232,295,cs),
(1095,167,o),
(859,86,o),
(608,86,cs)
);
}
);
width = 1455;
},
{
anchors = (
{
name = top;
pos = (767,800);
}
);
layerId = m008;
shapes = (
{
closed = 1;
nodes = (
(892,-16,o),
(1157,70,o),
(1303,226,c),
(1389,319,o),
(1402,435,o),
(1389,544,c),
(1368,727,o),
(1113,825,o),
(853,826,cs),
(689,827,o),
(525,791,o),
(388,733,c),
(226,662,o),
(129,571,o),
(89,462,cs),
(63,391,o),
(61,311,o),
(81,224,c),
(130,49,o),
(405,-29,o),
(632,-22,c)
);
},
{
closed = 1;
nodes = (
(397,118,o),
(189,182,o),
(115,311,cs),
(108,323,o),
(102,336,o),
(99,349,c),
(106,363,o),
(112,376,o),
(120,389,cs),
(231,569,o),
(530,678,o),
(816,685,cs),
(1031,690,o),
(1281,628,o),
(1350,485,cs),
(1355,475,o),
(1359,465,o),
(1362,455,c),
(1358,446,o),
(1355,437,o),
(1350,429,c),
(1325,386,o),
(1291,347,o),
(1249,313,cs),
(1101,189,o),
(861,121,o),
(627,120,cs)
);
}
);
width = 1481;
},
{
anchors = (
{
name = top;
pos = (774,800);
}
);
layerId = m009;
shapes = (
{
closed = 1;
nodes = (
(897,-33,o),
(1159,52,o),
(1302,207,c),
(1395,309,o),
(1404,439,o),
(1390,558,c),
(1370,742,o),
(1130,840,o),
(868,843,cs),
(703,845,o),
(540,811,o),
(401,752,c),
(247,686,o),
(120,580,o),
(94,449,c),
(76,369,o),
(71,287,o),
(93,207,c),
(142,33,o),
(414,-46,o),
(639,-39,c)
);
},
{
closed = 1;
nodes = (
(480,140,o),
(257,183,o),
(156,302,cs),
(143,317,o),
(132,334,o),
(124,351,c),
(134,369,o),
(146,386,o),
(159,402,cs),
(288,561,o),
(565,655,o),
(831,659,cs),
(1025,661,o),
(1235,612,o),
(1325,496,cs),
(1335,483,o),
(1344,468,o),
(1351,453,c),
(1339,431,o),
(1325,410,o),
(1308,391,cs),
(1286,367,o),
(1261,344,o),
(1232,322,cs),
(1094,219,o),
(880,153,o),
(673,146,cs)
);
}
);
width = 1494;
}
);
unicode = 79;
},
{
glyphname = Oslash;
lastChange = "2024-09-04 11:19:47 +0000";
layers = (
{
layerId = "76B40D95-58B1-4323-9BD9-765A1287C92C";
shapes = (
{
ref = O;
},
{
closed = 1;
nodes = (
(58,0,l),
(1019,800,l),
(969,800,l),
(8,0,l)
);
}
);
width = 1039;
},
{
layerId = m01;
shapes = (
{
ref = O;
},
{
closed = 1;
nodes = (
(82,0,l),
(1043,800,l),
(969,800,l),
(8,0,l)
);
}
);
width = 1058;
},
{
layerId = "E3B43ECB-7726-4A5D-9A6F-096C3D942908";
shapes = (
{
ref = O;
},
{
closed = 1;
nodes = (
(111,0,l),
(1072,800,l),
(939,800,l),
(-22,0,l)
);
}
);
width = 1067;
},
{
layerId = m004;
shapes = (
{
ref = O;
},
{
closed = 1;
nodes = (
(41,0,l),
(728,800,l),
(693,800,l),
(6,0,l)
);
}
);
width = 727;
},
{
layerId = m005;
shapes = (
{
ref = O;
},
{
closed = 1;
nodes = (
(57,0,l),
(745,800,l),
(693,800,l),
(6,0,l)
);
}
);
width = 741;
},
{
layerId = m006;
shapes = (
{
ref = O;
},
{
closed = 1;
nodes = (
(78,0,l),
(765,800,l),
(672,800,l),
(-15,0,l)
);
}
);
width = 747;
},
{
layerId = m007;
shapes = (
{
ref = O;
},
{
closed = 1;
nodes = (
(81,0,l),
(1407,800,l),
(1337,800,l),
(11,0,l)
);
}
);
width = 1455;
},
{
layerId = m008;
shapes = (
{
ref = O;
},
{
closed = 1;
nodes = (
(115,0,l),
(1440,800,l),
(1337,800,l),
(11,0,l)
);
}
);
width = 1481;
},
{
layerId = m009;
shapes = (
{
ref = O;
},
{
closed = 1;
nodes = (
(155,0,l),
(1481,800,l),
(1295,800,l),
(-31,0,l)
);
}
);
width = 1494;
}
);
unicode = 216;
},
{
glyphname = P;
lastChange = "2024-09-04 11:19:47 +0000";
layers = (
{
layerId = m01;
shapes = (
{
closed = 1;
nodes = (
(353,215,o),
(511,231,o),
(649,270,cs),
(771,305,o),
(885,363,o),
(949,467,c),
(974,518,o),
(977,579,o),
(976,636,c),
(982,794,o),
(732,822,o),
(589,821,cs),
(433,820,o),
(275,784,o),
(127,743,c),
(119,735,o),
(112,702,o),
(112,670,cs),
(111,634,o),
(117,599,o),
(119,600,c),
(264,643,o),
(413,672,o),
(564,677,c),
(691,676,o),
(840,674,o),
(938,582,c),
(861,482,o),
(734,433,o),
(610,402,cs),
(467,367,o),
(338,358,o),
(198,360,cs),
(171,360,o),
(144,361,o),
(116,362,c),
(108,219,l),
(141,217,o),
(174,216,o),
(206,216,cs)
);
},
{
pos = (75,-2);
ref = "stick-xl.component";
}
);
width = 1030;
},
{
layerId = "E3B43ECB-7726-4A5D-9A6F-096C3D942908";
shapes = (
{
closed = 1;
nodes = (
(410,200,o),
(576,218,o),
(713,264,cs),
(802,294,o),
(884,340,o),
(947,412,c),
(1003,486,o),
(1003,598,o),
(994,688,c),
(972,815,o),
(729,842,o),
(599,840,cs),
(440,837,o),
(278,799,o),
(126,755,c),
(117,745,o),
(109,706,o),
(107,666,cs),
(106,618,o),
(113,568,o),
(116,569,c),
(266,614,o),
(420,647,o),
(576,652,c),
(699,654,o),
(833,648,o),
(937,575,c),
(863,502,o),
(767,461,o),
(667,434,cs),
(539,399,o),
(408,390,o),
(260,388,cs),
(223,387,o),
(186,387,o),
(148,387,c),
(139,202,l),
(181,200,o),
(223,199,o),
(265,199,cs)
);
},
{
pos = (79,-2);
ref = "stick-xl.component";
}
);
width = 1058;
},
{
layerId = "76B40D95-58B1-4323-9BD9-765A1287C92C";
shapes = (
{
closed = 1;
nodes = (
(325,245,o),
(492,257,o),
(640,297,cs),
(779,335,o),
(899,398,o),
(951,498,c),
(970,537,o),
(980,581,o),
(976,632,c),
(984,776,o),
(727,812,o),
(582,810,cs),
(427,809,o),
(270,774,o),
(126,734,c),
(122,733,o),
(119,710,o),
(117,686,cs),
(115,659,o),
(118,637,o),
(122,637,c),
(221,669,o),
(403,708,o),
(575,712,cs),
(738,716,o),
(892,689,o),
(956,595,c),
(895,486,o),
(762,421,o),
(613,385,cs),
(472,350,o),
(317,341,o),
(198,342,cs),
(178,343,o),
(124,345,o),
(115,345,c),
(110,249,l),
(136,247,o),
(166,246,o),
(199,246,cs)
);
},
{
pos = (75,-2);
ref = "stick-xl.component";
}
);
width = 1025;
},
{
layerId = m004;
shapes = (
{
closed = 1;
nodes = (
(232,245,o),
(349,257,o),
(454,297,cs),
(552,335,o),
(637,398,o),
(675,498,c),
(689,537,o),
(697,581,o),
(695,632,c),
(703,776,o),
(524,812,o),
(423,810,cs),
(314,809,o),
(203,774,o),
(102,734,c),
(99,733,o),
(97,710,o),
(95,686,cs),
(93,659,o),
(94,637,o),
(97,637,c),
(167,669,o),
(295,708,o),
(416,712,cs),
(530,716,o),
(637,689,o),
(680,595,c),
(636,486,o),
(541,421,o),
(436,385,cs),
(337,350,o),
(228,341,o),
(145,342,cs),
(131,343,o),
(93,345,o),
(87,345,c),
(82,249,l),
(100,247,o),
(121,246,o),
(144,246,cs)
);
},
{
pos = (52,-2);
ref = "stick-xl.component";
}
);
width = 718;
},
{
layerId = m005;
shapes = (
{
closed = 1;
nodes = (
(251,215,o),
(362,231,o),
(459,270,cs),
(545,305,o),
(626,363,o),
(673,467,c),
(691,518,o),
(695,579,o),
(695,636,c),
(702,794,o),
(528,822,o),
(428,821,cs),
(318,820,o),
(207,784,o),
(103,743,c),
(97,735,o),
(92,702,o),
(91,670,cs),
(90,634,o),
(93,599,o),
(95,600,c),
(197,643,o),
(302,672,o),
(407,677,c),
(496,676,o),
(601,674,o),
(667,582,c),
(612,482,o),
(522,433,o),
(435,402,cs),
(334,367,o),
(243,358,o),
(145,360,cs),
(126,360,o),
(108,361,o),
(88,362,c),
(80,219,l),
(103,217,o),
(126,216,o),
(148,216,cs)
);
},
{
pos = (52,-2);
ref = "stick-xl.component";
}
);
width = 721;
},
{
layerId = m006;
shapes = (
{
closed = 1;
nodes = (
(291,200,o),
(407,218,o),
(504,264,cs),
(567,294,o),
(625,340,o),
(671,412,c),
(711,486,o),
(713,598,o),
(709,688,c),
(696,815,o),
(526,842,o),
(435,840,cs),
(324,837,o),
(210,799,o),
(102,755,c),
(96,745,o),
(89,706,o),
(87,666,cs),
(86,618,o),
(90,568,o),
(92,569,c),
(198,614,o),
(306,647,o),
(415,652,c),
(502,654,o),
(595,648,o),
(667,575,c),
(613,502,o),
(546,461,o),
(475,434,cs),
(385,399,o),
(293,390,o),
(189,388,cs),
(163,387,o),
(137,387,o),
(111,387,c),
(101,202,l),
(130,200,o),
(160,199,o),
(189,199,cs)
);
},
{
pos = (55,-2);
ref = "stick-xl.component";
}
);
width = 741;
},
{
layerId = m007;
shapes = (
{
closed = 1;
nodes = (
(449,245,o),
(682,257,o),
(889,297,cs),
(1082,335,o),
(1249,398,o),
(1319,498,c),
(1345,537,o),
(1357,581,o),
(1351,632,c),
(1358,776,o),
(998,812,o),
(795,810,cs),
(578,809,o),
(359,774,o),
(158,734,c),
(153,733,o),
(149,710,o),
(147,686,cs),
(145,659,o),
(149,637,o),
(155,637,c),
(293,669,o),
(547,708,o),
(787,712,cs),
(1015,716,o),
(1232,689,o),
(1324,595,c),
(1241,486,o),
(1056,421,o),
(849,385,cs),
(652,350,o),
(435,341,o),
(269,342,cs),
(241,343,o),
(165,345,o),
(152,345,c),
(148,249,l),
(184,247,o),
(226,246,o),
(272,246,cs)
);
},
{
pos = (105,-2);
ref = "stick-xl.component";
}
);
width = 1435;
},
{
layerId = m008;
shapes = (
{
closed = 1;
nodes = (
(489,215,o),
(710,231,o),
(902,270,cs),
(1072,305,o),
(1230,363,o),
(1317,467,c),
(1351,518,o),
(1353,579,o),
(1351,636,c),
(1355,794,o),
(1004,822,o),
(804,821,cs),
(586,820,o),
(365,784,o),
(159,743,c),
(148,735,o),
(139,702,o),
(140,670,cs),
(140,634,o),
(149,599,o),
(152,600,c),
(354,643,o),
(561,672,o),
(773,677,c),
(951,676,o),
(1159,674,o),
(1299,582,c),
(1193,482,o),
(1017,433,o),
(844,402,cs),
(645,367,o),
(464,358,o),
(268,360,cs),
(230,360,o),
(193,361,o),
(153,362,c),
(146,219,l),
(192,217,o),
(238,216,o),
(283,216,cs)
);
},
{
pos = (105,-2);
ref = "stick-xl.component";
}
);
width = 1442;
},
{
layerId = m009;
shapes = (
{
closed = 1;
nodes = (
(569,200,o),
(801,218,o),
(992,264,cs),
(1115,294,o),
(1229,340,o),
(1316,412,c),
(1392,486,o),
(1389,598,o),
(1374,688,c),
(1340,815,o),
(1000,842,o),
(818,840,cs),
(595,837,o),
(369,799,o),
(158,755,c),
(145,745,o),
(135,706,o),
(133,666,cs),
(133,618,o),
(144,568,o),
(148,569,c),
(357,614,o),
(572,647,o),
(790,652,c),
(962,654,o),
(1150,648,o),
(1297,575,c),
(1196,502,o),
(1062,461,o),
(923,434,cs),
(745,399,o),
(561,390,o),
(354,388,cs),
(303,387,o),
(251,387,o),
(198,387,c),
(190,202,l),
(248,200,o),
(307,199,o),
(366,199,cs)
);
},
{
pos = (111,-2);
ref = "stick-xl.component";
}
);
width = 1481;
}
);
unicode = 80;
},
{
glyphname = Thorn;
lastChange = "2024-09-04 11:19:47 +0000";
layers = (
{
layerId = "76B40D95-58B1-4323-9BD9-765A1287C92C";
shapes = (
{
closed = 1;
nodes = (
(322,146,o),
(489,158,o),
(637,198,cs),
(776,236,o),
(896,299,o),
(948,399,c),
(967,438,o),
(977,482,o),
(973,533,c),
(981,677,o),
(724,713,o),
(579,711,cs),
(424,710,o),
(267,675,o),
(123,635,c),
(119,634,o),
(116,611,o),
(114,587,cs),
(112,560,o),
(115,538,o),
(119,538,c),
(218,570,o),
(400,609,o),
(572,613,cs),
(735,617,o),
(889,590,o),
(953,496,c),
(892,387,o),
(759,322,o),
(610,286,cs),
(469,251,o),
(314,242,o),
(195,243,cs),
(175,244,o),
(121,246,o),
(112,246,c),
(107,150,l),
(133,148,o),
(163,147,o),
(196,147,cs)
);
},
{
pos = (75,0);
ref = "stick-xxl-top.component";
}
);
width = 1022;
},
{
layerId = m01;
shapes = (
{
closed = 1;
nodes = (
(351,123,o),
(509,139,o),
(647,178,cs),
(769,213,o),
(883,271,o),
(947,375,c),
(972,426,o),
(975,487,o),
(974,544,c),
(980,702,o),
(730,730,o),
(587,729,cs),
(431,728,o),
(281,692,o),
(133,651,c),
(125,643,o),
(118,610,o),
(118,578,cs),
(117,542,o),
(123,507,o),
(125,508,c),
(270,551,o),
(411,580,o),
(562,585,c),
(689,584,o),
(838,582,o),
(936,490,c),
(859,390,o),
(732,341,o),
(608,310,cs),
(465,275,o),
(336,266,o),
(196,268,cs),
(169,268,o),
(142,269,o),
(114,270,c),
(106,127,l),
(139,125,o),
(172,124,o),
(204,124,cs)
);
},
{
pos = (75,0);
ref = "stick-xxl-top.component";
}
);
width = 1028;
},
{
layerId = "E3B43ECB-7726-4A5D-9A6F-096C3D942908";
shapes = (
{
closed = 1;
nodes = (
(411,108,o),
(577,126,o),
(714,172,cs),
(803,202,o),
(885,248,o),
(948,320,c),
(1004,394,o),
(1004,506,o),
(995,596,c),
(973,723,o),
(730,750,o),
(600,748,cs),
(441,745,o),
(299,707,o),
(147,663,c),
(138,653,o),
(130,614,o),
(128,574,cs),
(127,526,o),
(134,476,o),
(137,477,c),
(287,522,o),
(421,555,o),
(577,560,c),
(700,562,o),
(834,556,o),
(938,483,c),
(864,410,o),
(768,369,o),
(668,342,cs),
(540,307,o),
(409,298,o),
(261,296,cs),
(224,295,o),
(187,295,o),
(149,295,c),
(140,110,l),
(182,108,o),
(224,107,o),
(266,107,cs)
);
},
{
pos = (79,0);
ref = "stick-xxl-top.component";
}
);
width = 1059;
},
{
layerId = m004;
shapes = (
{
closed = 1;
nodes = (
(228,146,o),
(345,158,o),
(450,198,cs),
(548,236,o),
(633,299,o),
(671,399,c),
(685,438,o),
(693,482,o),
(691,533,c),
(699,677,o),
(520,713,o),
(419,711,cs),
(310,710,o),
(200,675,o),
(98,635,c),
(95,634,o),
(93,611,o),
(91,587,cs),
(89,560,o),
(91,538,o),
(93,538,c),
(163,570,o),
(291,609,o),
(412,613,cs),
(526,617,o),
(633,590,o),
(676,496,c),
(632,387,o),
(537,322,o),
(432,286,cs),
(333,251,o),
(224,242,o),
(141,243,cs),
(127,244,o),
(89,246,o),
(83,246,c),
(78,150,l),
(96,148,o),
(117,147,o),
(140,147,cs)
);
},
{
pos = (53,0);
ref = "stick-xxl-top.component";
}
);
width = 715;
},
{
layerId = m005;
shapes = (
{
closed = 1;
nodes = (
(248,123,o),
(359,139,o),
(456,178,cs),
(542,213,o),
(623,271,o),
(670,375,c),
(688,426,o),
(692,487,o),
(692,544,c),
(699,702,o),
(525,730,o),
(425,729,cs),
(315,728,o),
(210,692,o),
(105,651,c),
(100,643,o),
(94,610,o),
(93,578,cs),
(92,542,o),
(96,507,o),
(97,508,c),
(199,551,o),
(299,580,o),
(404,585,c),
(493,584,o),
(597,582,o),
(664,490,c),
(609,390,o),
(519,341,o),
(431,310,cs),
(331,275,o),
(240,266,o),
(142,268,cs),
(123,268,o),
(104,269,o),
(85,270,c),
(77,127,l),
(100,125,o),
(123,124,o),
(145,124,cs)
);
},
{
pos = (53,0);
ref = "stick-xxl-top.component";
}
);
width = 720;
},
{
layerId = m006;
shapes = (
{
closed = 1;
nodes = (
(290,108,o),
(406,126,o),
(503,172,cs),
(566,202,o),
(624,248,o),
(670,320,c),
(710,394,o),
(712,506,o),
(708,596,c),
(695,723,o),
(525,750,o),
(434,748,cs),
(323,745,o),
(223,707,o),
(115,663,c),
(109,653,o),
(102,614,o),
(100,574,cs),
(99,526,o),
(103,476,o),
(105,477,c),
(211,522,o),
(305,555,o),
(414,560,c),
(500,562,o),
(594,556,o),
(666,483,c),
(612,410,o),
(544,369,o),
(474,342,cs),
(384,307,o),
(292,298,o),
(188,296,cs),
(162,295,o),
(136,295,o),
(110,295,c),
(100,110,l),
(129,108,o),
(159,107,o),
(188,107,cs)
);
},
{
pos = (55,0);
ref = "stick-xxl-top.component";
}
);
width = 741;
},
{
layerId = m007;
shapes = (
{
closed = 1;
nodes = (
(447,146,o),
(681,158,o),
(887,198,cs),
(1081,236,o),
(1247,299,o),
(1317,399,c),
(1343,438,o),
(1356,482,o),
(1349,533,c),
(1356,677,o),
(996,713,o),
(793,711,cs),
(576,710,o),
(357,675,o),
(156,635,c),
(151,634,o),
(147,611,o),
(145,587,cs),
(143,560,o),
(148,538,o),
(153,538,c),
(291,570,o),
(545,609,o),
(785,613,cs),
(1014,617,o),
(1230,590,o),
(1322,496,c),
(1239,387,o),
(1055,322,o),
(847,286,cs),
(650,251,o),
(434,242,o),
(267,243,cs),
(239,244,o),
(163,246,o),
(151,246,c),
(146,150,l),
(183,148,o),
(225,147,o),
(271,147,cs)
);
},
{
pos = (105,0);
ref = "stick-xxl-top.component";
}
);
width = 1431;
},
{
layerId = m008;
shapes = (
{
closed = 1;
nodes = (
(488,123,o),
(709,139,o),
(901,178,cs),
(1071,213,o),
(1229,271,o),
(1316,375,c),
(1350,426,o),
(1353,487,o),
(1350,544,c),
(1354,702,o),
(1004,730,o),
(804,729,cs),
(585,728,o),
(376,692,o),
(170,651,c),
(159,643,o),
(150,610,o),
(151,578,cs),
(150,542,o),
(160,507,o),
(162,508,c),
(364,551,o),
(561,580,o),
(772,585,c),
(950,584,o),
(1159,582,o),
(1298,490,c),
(1193,390,o),
(1016,341,o),
(843,310,cs),
(644,275,o),
(464,266,o),
(268,268,cs),
(230,268,o),
(192,269,o),
(153,270,c),
(145,127,l),
(191,125,o),
(238,124,o),
(283,124,cs)
);
},
{
pos = (105,0);
ref = "stick-xxl-top.component";
}
);
width = 1439;
},
{
layerId = m009;
shapes = (
{
closed = 1;
nodes = (
(573,108,o),
(805,126,o),
(995,172,cs),
(1119,202,o),
(1233,248,o),
(1319,320,c),
(1396,394,o),
(1393,506,o),
(1378,596,c),
(1344,723,o),
(1003,750,o),
(821,748,cs),
(599,745,o),
(401,707,o),
(189,663,c),
(177,653,o),
(167,614,o),
(165,574,cs),
(165,526,o),
(176,476,o),
(180,477,c),
(389,522,o),
(576,555,o),
(794,560,c),
(966,562,o),
(1154,556,o),
(1301,483,c),
(1199,410,o),
(1066,369,o),
(927,342,cs),
(748,307,o),
(565,298,o),
(358,296,cs),
(306,295,o),
(254,295,o),
(201,295,c),
(193,110,l),
(252,108,o),
(311,107,o),
(370,107,cs)
);
},
{
pos = (111,0);
ref = "stick-xxl-top.component";
}
);
width = 1483;
}
);
metricLeft = P;
metricRight = P;
unicode = 222;
},
{
glyphname = Q;
lastChange = "2024-09-04 11:19:47 +0000";
layers = (
{
layerId = m01;
shapes = (
{
ref = O;
},
{
closed = 1;
nodes = (
(724,95,o),
(862,7,o),
(1009,-24,c),
(1023,-16,o),
(1030,105,o),
(1017,115,c),
(870,148,o),
(731,236,o),
(623,339,c),
(609,330,o),
(602,209,o),
(615,198,c)
);
}
);
width = 1062;
},
{
layerId = "E3B43ECB-7726-4A5D-9A6F-096C3D942908";
shapes = (
{
ref = O;
},
{
closed = 1;
nodes = (
(730,79,o),
(876,-6,o),
(1020,-37,c),
(1038,-29,o),
(1047,136,o),
(1030,148,c),
(885,179,o),
(740,263,o),
(633,366,c),
(616,357,o),
(607,193,o),
(623,181,c)
);
}
);
width = 1083;
},
{
layerId = "76B40D95-58B1-4323-9BD9-765A1287C92C";
shapes = (
{
ref = O;
},
{
closed = 1;
nodes = (
(688,113,o),
(826,22,o),
(971,-10,c),
(981,-3,o),
(985,77,o),
(976,86,c),
(830,119,o),
(692,210,o),
(585,316,c),
(576,308,o),
(572,229,o),
(580,220,c)
);
}
);
width = 1023;
},
{
layerId = m004;
shapes = (
{
ref = O;
},
{
closed = 1;
nodes = (
(484,113,o),
(579,22,o),
(680,-10,c),
(687,-3,o),
(691,77,o),
(685,86,c),
(583,119,o),
(488,210,o),
(415,316,c),
(409,308,o),
(405,229,o),
(410,220,c)
);
}
);
width = 716;
},
{
layerId = m005;
shapes = (
{
ref = O;
},
{
closed = 1;
nodes = (
(509,95,o),
(604,7,o),
(706,-24,c),
(716,-16,o),
(723,105,o),
(714,115,c),
(612,148,o),
(516,236,o),
(442,339,c),
(432,330,o),
(425,209,o),
(434,198,c)
);
}
);
width = 743;
},
{
layerId = m006;
shapes = (
{
ref = O;
},
{
closed = 1;
nodes = (
(512,79,o),
(613,-6,o),
(713,-37,c),
(726,-29,o),
(735,136,o),
(724,148,c),
(623,179,o),
(523,263,o),
(450,366,c),
(438,357,o),
(429,193,o),
(439,181,c)
);
}
);
width = 758;
},
{
layerId = m007;
shapes = (
{
ref = O;
},
{
closed = 1;
nodes = (
(960,113,o),
(1156,22,o),
(1360,-10,c),
(1373,-3,o),
(1377,77,o),
(1364,86,c),
(1159,119,o),
(964,210,o),
(811,316,c),
(799,308,o),
(795,229,o),
(807,220,c)
);
}
);
width = 1432;
},
{
layerId = m008;
shapes = (
{
ref = O;
},
{
closed = 1;
nodes = (
(1011,95,o),
(1207,7,o),
(1413,-24,c),
(1433,-16,o),
(1439,105,o),
(1421,115,c),
(1214,148,o),
(1018,236,o),
(864,339,c),
(844,330,o),
(838,209,o),
(856,198,c)
);
}
);
width = 1487;
},
{
layerId = m009;
shapes = (
{
ref = O;
},
{
closed = 1;
nodes = (
(1020,79,o),
(1227,-6,o),
(1429,-37,c),
(1454,-29,o),
(1462,136,o),
(1438,148,c),
(1235,179,o),
(1029,263,o),
(877,366,c),
(853,357,o),
(845,193,o),
(868,181,c)
);
}
);
width = 1516;
}
);
unicode = 81;
},
{
glyphname = R;
lastChange = "2024-09-04 11:19:47 +0000";
layers = (
{
anchors = (
{
name = top;
pos = (524,800);
}
);
layerId = m01;
shapes = (
{
closed = 1;
nodes = (
(516,190,o),
(843,242,o),
(950,436,c),
(975,492,o),
(978,556,o),
(978,618,c),
(989,782,o),
(732,821,o),
(574,820,cs),
(422,818,o),
(268,783,o),
(124,742,c),
(115,734,o),
(111,706,o),
(110,678,cs),
(109,654,o),
(112,598,o),
(116,599,c),
(260,643,o),
(409,673,o),
(560,676,c),
(686,676,o),
(861,667,o),
(946,561,c),
(845,383,o),
(504,325,o),
(255,325,cs),
(200,325,o),
(150,327,o),
(107,332,c),
(100,189,l),
(147,186,o),
(202,185,o),
(260,186,cs)
);
},
{
pos = (75,0);
ref = "stick-xl.component";
},
{
closed = 1;
nodes = (
(1038,-12,o),
(1045,112,o),
(1031,122,c),
(864,153,o),
(702,224,o),
(571,333,c),
(557,324,o),
(550,202,o),
(564,190,c),
(696,82,o),
(857,11,o),
(1025,-20,c)
);
}
);
width = 1077;
},
{
anchors = (
{
name = top;
pos = (536,800);
}
);
layerId = "E3B43ECB-7726-4A5D-9A6F-096C3D942908";
shapes = (
{
closed = 1;
nodes = (
(519,165,o),
(785,193,o),
(943,364,c),
(1002,442,o),
(1004,550,o),
(1000,644,c),
(998,795,o),
(738,837,o),
(585,835,cs),
(430,833,o),
(272,794,o),
(127,747,c),
(117,736,o),
(112,703,o),
(110,669,cs),
(108,637,o),
(113,560,o),
(118,561,c),
(263,610,o),
(413,644,o),
(567,648,c),
(697,648,o),
(846,638,o),
(950,550,c),
(814,386,o),
(529,351,o),
(297,350,cs),
(245,350,o),
(196,352,o),
(152,354,c),
(143,169,l),
(188,167,o),
(236,166,o),
(284,166,cs)
);
},
{
pos = (79,0);
ref = "stick-xl.component";
},
{
closed = 1;
nodes = (
(1060,-25,o),
(1069,139,o),
(1052,151,c),
(888,182,o),
(732,250,o),
(603,356,c),
(585,347,o),
(576,183,o),
(594,171,c),
(722,65,o),
(879,-4,o),
(1042,-35,c)
);
}
);
width = 1105;
},
{
anchors = (
{
name = top;
pos = (504,800);
}
);
layerId = "76B40D95-58B1-4323-9BD9-765A1287C92C";
shapes = (
{
closed = 1;
nodes = (
(504,217,o),
(868,265,o),
(949,493,cs),
(962,530,o),
(968,571,o),
(965,619,c),
(975,772,o),
(718,815,o),
(563,812,cs),
(414,810,o),
(264,774,o),
(123,733,c),
(121,731,o),
(118,712,o),
(116,690,cs),
(113,664,o),
(113,635,o),
(119,635,c),
(261,680,o),
(408,711,o),
(558,715,c),
(677,715,o),
(888,702,o),
(949,578,c),
(862,361,o),
(514,313,o),
(265,311,cs),
(200,310,o),
(143,315,o),
(105,315,c),
(99,218,l),
(157,215,o),
(215,213,o),
(273,214,cs)
);
},
{
pos = (75,0);
ref = "stick-xl.component";
},
{
closed = 1;
nodes = (
(1022,-11,o),
(1033,71,o),
(1024,84,c),
(864,111,o),
(711,175,o),
(558,298,c),
(549,291,o),
(547,212,o),
(555,202,c),
(697,85,o),
(883,3,o),
(1020,-12,c)
);
}
);
width = 1059;
},
{
anchors = (
{
name = top;
pos = (368,800);
}
);
layerId = m004;
shapes = (
{
closed = 1;
nodes = (
(357,217,o),
(613,265,o),
(674,493,cs),
(683,530,o),
(688,571,o),
(687,619,c),
(697,772,o),
(518,815,o),
(409,812,cs),
(305,810,o),
(199,774,o),
(100,733,c),
(98,731,o),
(96,712,o),
(94,690,cs),
(92,664,o),
(91,635,o),
(95,635,c),
(195,680,o),
(299,711,o),
(404,715,c),
(487,715,o),
(635,702,o),
(675,578,c),
(610,361,o),
(366,313,o),
(191,311,cs),
(146,310,o),
(106,315,o),
(79,315,c),
(73,218,l),
(114,215,o),
(154,213,o),
(195,214,cs)
);
},
{
pos = (53,0);
ref = "stick-xl.component";
},
{
closed = 1;
nodes = (
(715,-11,o),
(724,71,o),
(718,84,c),
(607,111,o),
(501,175,o),
(396,298,c),
(390,291,o),
(387,212,o),
(392,202,c),
(489,85,o),
(618,3,o),
(714,-12,c)
);
}
);
width = 741;
},
{
anchors = (
{
name = top;
pos = (382,800);
}
);
layerId = m005;
shapes = (
{
closed = 1;
nodes = (
(365,190,o),
(595,242,o),
(673,436,c),
(692,492,o),
(695,556,o),
(696,618,c),
(707,782,o),
(528,821,o),
(417,820,cs),
(311,818,o),
(202,783,o),
(101,742,c),
(94,734,o),
(91,706,o),
(90,678,cs),
(89,654,o),
(90,598,o),
(92,599,c),
(194,643,o),
(299,673,o),
(405,676,c),
(493,676,o),
(615,667,o),
(673,561,c),
(599,383,o),
(359,325,o),
(185,325,cs),
(146,325,o),
(111,327,o),
(81,332,c),
(74,189,l),
(106,186,o),
(145,185,o),
(185,186,cs)
);
},
{
pos = (53,0);
ref = "stick-xl.component";
},
{
closed = 1;
nodes = (
(726,-12,o),
(734,112,o),
(724,122,c),
(608,153,o),
(496,224,o),
(406,333,c),
(396,324,o),
(389,202,o),
(398,190,c),
(489,82,o),
(600,11,o),
(717,-20,c)
);
}
);
width = 754;
},
{
anchors = (
{
name = top;
pos = (390,800);
}
);
layerId = m006;
shapes = (
{
closed = 1;
nodes = (
(366,165,o),
(553,193,o),
(667,364,c),
(710,442,o),
(713,550,o),
(712,644,c),
(713,795,o),
(532,837,o),
(425,835,cs),
(317,833,o),
(205,794,o),
(103,747,c),
(96,736,o),
(92,703,o),
(89,669,cs),
(87,637,o),
(90,560,o),
(93,561,c),
(195,610,o),
(301,644,o),
(409,648,c),
(500,648,o),
(604,638,o),
(675,550,c),
(577,386,o),
(377,351,o),
(214,350,cs),
(178,350,o),
(144,352,o),
(113,354,c),
(103,169,l),
(135,167,o),
(168,166,o),
(202,166,cs)
);
},
{
pos = (55,0);
ref = "stick-xl.component";
},
{
closed = 1;
nodes = (
(742,-25,o),
(751,139,o),
(739,151,c),
(625,182,o),
(517,250,o),
(429,356,c),
(416,347,o),
(407,183,o),
(419,171,c),
(507,65,o),
(615,-4,o),
(729,-35,c)
);
}
);
width = 774;
},
{
anchors = (
{
name = top;
pos = (686,800);
}
);
layerId = m007;
shapes = (
{
closed = 1;
nodes = (
(700,217,o),
(1209,265,o),
(1316,493,cs),
(1334,530,o),
(1341,571,o),
(1336,619,c),
(1346,772,o),
(985,815,o),
(768,812,cs),
(559,810,o),
(350,774,o),
(154,733,c),
(151,731,o),
(147,712,o),
(145,690,cs),
(142,664,o),
(142,635,o),
(151,635,c),
(348,680,o),
(553,711,o),
(763,715,c),
(930,715,o),
(1226,702,o),
(1314,578,c),
(1198,361,o),
(712,313,o),
(363,311,cs),
(272,310,o),
(192,315,o),
(139,315,c),
(133,218,l),
(214,215,o),
(296,213,o),
(377,214,cs)
);
},
{
pos = (105,0);
ref = "stick-xl.component";
},
{
closed = 1;
nodes = (
(1431,-11,o),
(1444,71,o),
(1432,84,c),
(1207,111,o),
(991,175,o),
(774,298,c),
(761,291,o),
(761,212,o),
(772,202,c),
(974,85,o),
(1236,3,o),
(1428,-12,c)
);
}
);
width = 1483;
},
{
anchors = (
{
name = top;
pos = (714,800);
}
);
layerId = m008;
shapes = (
{
closed = 1;
nodes = (
(718,190,o),
(1174,242,o),
(1319,436,c),
(1353,492,o),
(1355,556,o),
(1354,618,c),
(1365,782,o),
(1004,821,o),
(783,820,cs),
(570,818,o),
(356,783,o),
(155,742,c),
(143,734,o),
(138,706,o),
(137,678,cs),
(136,654,o),
(142,598,o),
(147,599,c),
(348,643,o),
(556,673,o),
(767,676,c),
(944,676,o),
(1189,667,o),
(1310,561,c),
(1173,383,o),
(697,325,o),
(349,325,cs),
(272,325,o),
(202,327,o),
(142,332,c),
(135,189,l),
(201,186,o),
(278,185,o),
(359,186,cs)
);
},
{
pos = (105,0);
ref = "stick-xl.component";
},
{
closed = 1;
nodes = (
(1453,-12,o),
(1460,112,o),
(1440,122,c),
(1206,153,o),
(977,224,o),
(791,333,c),
(772,324,o),
(765,202,o),
(785,190,c),
(972,82,o),
(1200,11,o),
(1435,-20,c)
);
}
);
width = 1508;
},
{
anchors = (
{
name = top;
pos = (730,800);
}
);
layerId = m009;
shapes = (
{
closed = 1;
nodes = (
(722,165,o),
(1094,193,o),
(1311,364,c),
(1392,442,o),
(1392,550,o),
(1384,644,c),
(1377,795,o),
(1012,837,o),
(798,835,cs),
(581,833,o),
(361,794,o),
(159,747,c),
(145,736,o),
(139,703,o),
(137,669,cs),
(135,637,o),
(144,560,o),
(151,561,c),
(353,610,o),
(562,644,o),
(778,648,c),
(960,648,o),
(1168,638,o),
(1316,550,c),
(1130,386,o),
(732,351,o),
(407,350,cs),
(334,350,o),
(266,352,o),
(204,354,c),
(196,169,l),
(259,167,o),
(326,166,o),
(393,166,cs)
);
},
{
pos = (111,0);
ref = "stick-xl.component";
},
{
closed = 1;
nodes = (
(1485,-25,o),
(1493,139,o),
(1469,151,c),
(1239,182,o),
(1019,250,o),
(835,356,c),
(810,347,o),
(802,183,o),
(827,171,c),
(1009,65,o),
(1231,-4,o),
(1460,-35,c)
);
}
);
width = 1547;
}
);
unicode = 82;
},
{
glyphname = S;
lastChange = "2024-09-04 11:19:47 +0000";
layers = (
{
anchors = (
{
name = bottom;
pos = (527,-11);
},
{
name = top;
pos = (519,800);
}
);
layerId = m01;
shapes = (
{
closed = 1;
nodes = (
(996,539,o),
(901,538,o),
(776,518,cs),
(642,497,o),
(474,454,o),
(342,443,cs),
(253,435,o),
(181,442,o),
(148,478,c),
(245,622,o),
(469,678,o),
(643,684,cs),
(723,687,o),
(799,680,o),
(860,665,c),
(874,709,o),
(882,788,o),
(868,805,c),
(802,819,o),
(734,826,o),
(666,825,cs),
(474,823,o),
(174,741,o),
(125,555,cs),
(115,518,o),
(110,441,o),
(117,404,cs),
(137,307,o),
(247,312,o),
(343,320,cs),
(468,331,o),
(658,373,o),
(787,395,cs),
(852,406,o),
(927,416,o),
(977,390,c),
(928,191,o),
(684,122,o),
(478,117,cs),
(336,113,o),
(210,127,o),
(70,218,cs),
(66,221,o),
(52,100,o),
(65,81,c),
(181,-16,o),
(350,-24,o),
(494,-22,c),
(775,-15,o),
(979,108,o),
(1004,371,cs),
(1008,406,o),
(1008,442,o),
(1005,481,c)
);
}
);
width = 1087;
},
{
anchors = (
{
name = bottom;
pos = (541,-20);
},
{
name = top;
pos = (534,800);
}
);
layerId = "E3B43ECB-7726-4A5D-9A6F-096C3D942908";
shapes = (
{
closed = 1;
nodes = (
(1014,551,o),
(927,553,o),
(809,536,cs),
(653,514,o),
(445,461,o),
(303,458,cs),
(250,457,o),
(206,463,o),
(178,480,c),
(282,598,o),
(507,651,o),
(655,656,cs),
(729,658,o),
(803,651,o),
(876,636,c),
(895,648,o),
(903,808,o),
(886,821,c),
(814,836,o),
(739,843,o),
(664,840,cs),
(460,834,o),
(148,741,o),
(129,538,c),
(123,495,o),
(120,452,o),
(123,410,c),
(125,319,o),
(206,304,o),
(299,304,cs),
(419,305,o),
(701,367,o),
(819,385,cs),
(875,394,o),
(932,399,o),
(982,382,c),
(889,182,o),
(640,146,o),
(442,148,cs),
(315,150,o),
(187,173,o),
(89,251,c),
(68,238,o),
(60,80,o),
(77,65,c),
(177,-13,o),
(318,-38,o),
(455,-37,cs),
(758,-35,o),
(977,67,o),
(1018,326,cs),
(1025,376,o),
(1026,432,o),
(1020,494,c)
);
}
);
width = 1112;
},
{
anchors = (
{
name = bottom;
pos = (515,-6);
},
{
name = top;
pos = (498,800);
}
);
layerId = "76B40D95-58B1-4323-9BD9-765A1287C92C";
shapes = (
{
closed = 1;
nodes = (
(1000,537,o),
(848,506,o),
(774,497,c),
(693,492,o),
(480,430,o),
(317,418,cs),
(219,411,o),
(140,422,o),
(120,474,c),
(197,634,o),
(455,706,o),
(642,712,cs),
(712,714,o),
(786,705,o),
(851,690,c),
(859,690,o),
(865,788,o),
(859,789,c),
(819,797,o),
(743,811,o),
(670,811,cs),
(463,809,o),
(156,723,o),
(111,537,c),
(106,502,o),
(99,458,o),
(106,420,cs),
(122,333,o),
(222,329,o),
(311,336,cs),
(404,342,o),
(697,406,o),
(772,417,cs),
(861,430,o),
(950,432,o),
(976,389,c),
(928,171,o),
(705,90,o),
(488,84,cs),
(359,80,o),
(156,100,o),
(63,191,c),
(61,193,o),
(48,107,o),
(58,93,c),
(173,-6,o),
(343,-15,o),
(487,-12,c),
(730,-9,o),
(968,103,o),
(990,362,cs),
(991,379,o),
(992,397,o),
(991,416,c)
);
}
);
width = 1063;
},
{
anchors = (
{
name = bottom;
pos = (360,-6);
},
{
name = top;
pos = (364,800);
}
);
layerId = m004;
shapes = (
{
closed = 1;
nodes = (
(710,537,o),
(603,506,o),
(551,497,c),
(494,492,o),
(344,430,o),
(230,418,cs),
(161,411,o),
(106,422,o),
(93,474,c),
(150,634,o),
(332,706,o),
(463,712,cs),
(512,714,o),
(563,705,o),
(609,690,c),
(614,690,o),
(620,788,o),
(616,789,c),
(588,797,o),
(535,811,o),
(484,811,cs),
(339,809,o),
(123,723,o),
(88,537,c),
(84,502,o),
(78,458,o),
(82,420,cs),
(92,333,o),
(162,329,o),
(224,336,cs),
(289,342,o),
(495,406,o),
(548,417,cs),
(611,430,o),
(673,432,o),
(690,389,c),
(653,171,o),
(495,90,o),
(343,84,cs),
(253,80,o),
(111,100,o),
(48,191,c),
(46,193,o),
(36,107,o),
(42,93,c),
(121,-6,o),
(240,-15,o),
(341,-12,c),
(511,-9,o),
(680,103,o),
(700,362,cs),
(701,379,o),
(702,397,o),
(701,416,c)
);
}
);
width = 744;
},
{
anchors = (
{
name = bottom;
pos = (369,-11);
},
{
name = top;
pos = (378,800);
}
);
layerId = m005;
shapes = (
{
closed = 1;
nodes = (
(707,539,o),
(641,538,o),
(553,518,cs),
(459,497,o),
(340,454,o),
(248,443,cs),
(185,435,o),
(135,442,o),
(113,478,c),
(183,622,o),
(341,678,o),
(463,684,cs),
(519,687,o),
(572,680,o),
(614,665,c),
(625,709,o),
(632,788,o),
(623,805,c),
(577,819,o),
(529,826,o),
(482,825,cs),
(347,823,o),
(136,741,o),
(98,555,cs),
(90,518,o),
(85,441,o),
(89,404,cs),
(102,307,o),
(179,312,o),
(246,320,cs),
(334,331,o),
(468,373,o),
(558,395,cs),
(604,406,o),
(657,416,o),
(691,390,c),
(653,191,o),
(481,122,o),
(337,117,cs),
(237,113,o),
(149,127,o),
(53,218,cs),
(50,221,o),
(38,100,o),
(47,81,c),
(126,-16,o),
(245,-24,o),
(345,-22,c),
(542,-15,o),
(687,108,o),
(710,371,cs),
(713,406,o),
(714,442,o),
(712,481,c)
);
}
);
width = 761;
},
{
anchors = (
{
name = bottom;
pos = (378,-20);
},
{
name = top;
pos = (389,800);
}
);
layerId = m006;
shapes = (
{
closed = 1;
nodes = (
(720,551,o),
(659,553,o),
(576,536,cs),
(467,514,o),
(320,461,o),
(221,458,cs),
(184,457,o),
(153,463,o),
(134,480,c),
(209,598,o),
(367,651,o),
(471,656,cs),
(523,658,o),
(574,651,o),
(625,636,c),
(639,648,o),
(647,808,o),
(636,821,c),
(585,836,o),
(533,843,o),
(480,840,cs),
(338,834,o),
(117,741,o),
(100,538,c),
(95,495,o),
(92,452,o),
(94,410,c),
(93,319,o),
(150,304,o),
(215,304,cs),
(299,305,o),
(498,367,o),
(580,385,cs),
(620,394,o),
(660,399,o),
(695,382,c),
(626,182,o),
(451,146,o),
(312,148,cs),
(223,150,o),
(134,173,o),
(67,251,c),
(52,238,o),
(43,80,o),
(55,65,c),
(124,-13,o),
(222,-38,o),
(318,-37,cs),
(530,-35,o),
(685,67,o),
(719,326,cs),
(725,376,o),
(726,432,o),
(723,494,c)
);
}
);
width = 778;
},
{
anchors = (
{
name = bottom;
pos = (721,-6);
},
{
name = top;
pos = (677,800);
}
);
layerId = m007;
shapes = (
{
closed = 1;
nodes = (
(1387,537,o),
(1175,506,o),
(1071,497,c),
(958,492,o),
(661,430,o),
(433,418,cs),
(296,411,o),
(185,422,o),
(156,474,c),
(260,634,o),
(619,706,o),
(881,712,cs),
(979,714,o),
(1083,705,o),
(1174,690,c),
(1185,690,o),
(1191,788,o),
(1183,789,c),
(1127,797,o),
(1020,811,o),
(918,811,cs),
(628,809,o),
(200,723,o),
(142,537,c),
(136,502,o),
(127,458,o),
(138,420,cs),
(162,333,o),
(303,329,o),
(427,336,cs),
(557,342,o),
(966,406,o),
(1070,417,cs),
(1195,430,o),
(1319,432,o),
(1357,389,c),
(1295,171,o),
(985,90,o),
(681,84,cs),
(501,80,o),
(216,100,o),
(83,191,c),
(81,193,o),
(65,107,o),
(79,93,c),
(242,-6,o),
(481,-15,o),
(682,-12,c),
(1022,-9,o),
(1353,103,o),
(1377,362,cs),
(1378,379,o),
(1379,397,o),
(1377,416,c)
);
}
);
width = 1488;
},
{
anchors = (
{
name = bottom;
pos = (738,-11);
},
{
name = top;
pos = (707,800);
}
);
layerId = m008;
shapes = (
{
closed = 1;
nodes = (
(1381,539,o),
(1248,538,o),
(1073,518,cs),
(886,497,o),
(652,454,o),
(468,443,cs),
(343,435,o),
(242,442,o),
(195,478,c),
(327,622,o),
(640,678,o),
(883,684,cs),
(995,687,o),
(1102,680,o),
(1187,665,c),
(1206,709,o),
(1215,788,o),
(1195,805,c),
(1102,819,o),
(1007,826,o),
(912,825,cs),
(643,823,o),
(225,741,o),
(161,555,cs),
(148,518,o),
(143,441,o),
(154,404,cs),
(184,307,o),
(338,312,o),
(472,320,cs),
(647,331,o),
(912,373,o),
(1092,395,cs),
(1183,406,o),
(1287,416,o),
(1358,390,c),
(1294,191,o),
(955,122,o),
(666,117,cs),
(468,113,o),
(291,127,o),
(93,218,cs),
(87,221,o),
(70,100,o),
(89,81,c),
(254,-16,o),
(491,-24,o),
(692,-22,c),
(1085,-15,o),
(1368,108,o),
(1396,371,cs),
(1401,406,o),
(1400,442,o),
(1395,481,c)
);
}
);
width = 1522;
},
{
anchors = (
{
name = bottom;
pos = (758,-20);
},
{
name = top;
pos = (728,800);
}
);
layerId = m009;
shapes = (
{
closed = 1;
nodes = (
(1406,551,o),
(1284,553,o),
(1119,536,cs),
(901,514,o),
(611,461,o),
(413,458,cs),
(339,457,o),
(277,463,o),
(237,480,c),
(380,598,o),
(694,651,o),
(901,656,cs),
(1004,658,o),
(1108,651,o),
(1211,636,c),
(1237,648,o),
(1244,808,o),
(1220,821,c),
(1119,836,o),
(1014,843,o),
(909,840,cs),
(623,834,o),
(189,741,o),
(167,538,c),
(160,495,o),
(157,452,o),
(162,410,c),
(167,319,o),
(281,304,o),
(411,304,cs),
(579,305,o),
(972,367,o),
(1137,385,cs),
(1215,394,o),
(1295,399,o),
(1365,382,c),
(1240,182,o),
(892,146,o),
(615,148,cs),
(437,150,o),
(257,173,o),
(118,251,c),
(89,238,o),
(82,80,o),
(106,65,c),
(248,-13,o),
(446,-38,o),
(638,-37,cs),
(1062,-35,o),
(1366,67,o),
(1417,326,cs),
(1426,376,o),
(1426,432,o),
(1416,494,c)
);
}
);
width = 1557;
}
);
unicode = 83;
},
{
glyphname = Germandbls;
lastChange = "2024-09-04 11:19:47 +0000";
layers = (
{
layerId = "76B40D95-58B1-4323-9BD9-765A1287C92C";
shapes = (
{
closed = 1;
nodes = (
(707,-11,o),
(852,27,o),
(915,141,c),
(945,211,o),
(964,298,o),
(931,369,cs),
(887,462,o),
(735,464,o),
(632,474,c),
(687,503,o),
(753,544,o),
(800,572,c),
(802,573,o),
(804,576,o),
(804,579,c),
(812,605,o),
(816,659,o),
(803,683,c),
(751,778,o),
(637,811,o),
(521,810,cs),
(347,809,o),
(121,707,o),
(108,560,c),
(105,512,l),
(136,512,l),
(144,541,o),
(162,579,o),
(183,601,c),
(255,675,o),
(387,718,o),
(513,718,cs),
(606,718,o),
(695,696,o),
(754,640,c),
(672,590,o),
(590,541,o),
(507,491,c),
(498,487,o),
(493,401,o),
(502,393,c),
(621,397,o),
(879,398,o),
(928,265,c),
(885,125,o),
(706,89,o),
(568,86,cs),
(446,83,o),
(301,107,o),
(264,231,c),
(258,261,o),
(252,196,o),
(252,190,cs),
(252,36,o),
(428,-13,o),
(573,-12,cs)
);
},
{
pos = (72,0);
ref = "stick-m.component";
}
);
width = 1028;
},
{
layerId = m01;
shapes = (
{
closed = 1;
nodes = (
(734,-35,o),
(863,9,o),
(922,119,cs),
(954,178,o),
(966,256,o),
(953,356,c),
(934,467,o),
(768,478,o),
(680,483,c),
(708,500,o),
(782,540,o),
(808,556,c),
(816,559,o),
(818,578,o),
(819,583,c),
(826,623,o),
(834,682,o),
(793,730,c),
(730,804,o),
(636,825,o),
(541,825,cs),
(373,825,o),
(132,747,o),
(111,560,c),
(107,496,l),
(147,498,l),
(156,526,o),
(173,557,o),
(193,578,c),
(267,651,o),
(394,691,o),
(516,692,cs),
(596,693,o),
(673,677,o),
(732,636,c),
(661,594,o),
(589,551,o),
(518,508,c),
(504,498,o),
(498,380,o),
(511,369,c),
(628,374,o),
(863,374,o),
(929,258,c),
(864,133,o),
(713,104,o),
(578,104,cs),
(477,103,o),
(305,127,o),
(272,256,c),
(261,244,o),
(260,205,o),
(259,187,cs),
(249,12,o),
(415,-37,o),
(565,-36,cs)
);
},
{
pos = (75,0);
ref = "stick-m.component";
}
);
width = 1041;
},
{
layerId = "E3B43ECB-7726-4A5D-9A6F-096C3D942908";
shapes = (
{
closed = 1;
nodes = (
(749,-37,o),
(863,9,o),
(919,111,cs),
(955,177,o),
(967,252,o),
(956,368,c),
(943,447,o),
(855,482,o),
(704,487,c),
(712,491,o),
(804,541,o),
(810,546,c),
(814,549,o),
(818,555,o),
(821,563,cs),
(835,605,o),
(835,683,o),
(821,714,c),
(768,813,o),
(658,839,o),
(551,839,cs),
(376,839,o),
(128,771,o),
(115,560,c),
(110,483,l),
(185,482,l),
(197,506,o),
(212,534,o),
(231,553,cs),
(304,627,o),
(423,663,o),
(533,665,cs),
(593,666,o),
(651,658,o),
(698,632,c),
(655,606,o),
(528,535,o),
(527,525,c),
(516,499,o),
(506,374,o),
(522,356,c),
(641,359,o),
(833,360,o),
(917,267,c),
(860,179,o),
(725,140,o),
(597,139,cs),
(477,137,o),
(323,166,o),
(293,288,c),
(278,273,o),
(278,222,o),
(276,201,c),
(253,13,o),
(419,-39,o),
(574,-38,cs)
);
},
{
pos = (79,0);
ref = "stick-m.component";
}
);
width = 1048;
},
{
layerId = m004;
shapes = (
{
closed = 1;
nodes = (
(495,-11,o),
(597,27,o),
(643,141,c),
(665,211,o),
(680,298,o),
(659,369,cs),
(630,462,o),
(523,464,o),
(451,474,c),
(490,503,o),
(537,544,o),
(571,572,c),
(572,573,o),
(574,576,o),
(574,579,c),
(580,605,o),
(584,659,o),
(575,683,c),
(540,778,o),
(461,811,o),
(380,810,cs),
(258,809,o),
(98,707,o),
(86,560,c),
(83,512,l),
(105,512,l),
(111,541,o),
(124,579,o),
(139,601,c),
(191,675,o),
(284,718,o),
(373,718,cs),
(438,718,o),
(499,696,o),
(540,640,c),
(481,590,o),
(423,541,o),
(364,491,c),
(358,487,o),
(353,401,o),
(359,393,c),
(442,397,o),
(623,398,o),
(655,265,c),
(622,125,o),
(496,89,o),
(399,86,cs),
(314,83,o),
(213,107,o),
(189,231,c),
(185,261,o),
(180,196,o),
(180,190,cs),
(177,36,o),
(299,-13,o),
(401,-12,cs)
);
},
{
pos = (50,0);
ref = "stick-m.component";
}
);
width = 720;
},
{
layerId = m005;
shapes = (
{
closed = 1;
nodes = (
(513,-35,o),
(604,9,o),
(648,119,cs),
(671,178,o),
(681,256,o),
(674,356,c),
(663,467,o),
(547,478,o),
(485,483,c),
(505,500,o),
(557,540,o),
(576,556,c),
(582,559,o),
(583,578,o),
(584,583,c),
(590,623,o),
(597,682,o),
(569,730,c),
(526,804,o),
(461,825,o),
(394,825,cs),
(277,825,o),
(106,747,o),
(88,560,c),
(84,496,l),
(112,498,l),
(119,526,o),
(132,557,o),
(146,578,c),
(199,651,o),
(289,691,o),
(374,692,cs),
(430,693,o),
(484,677,o),
(524,636,c),
(474,594,o),
(423,551,o),
(372,508,c),
(362,498,o),
(356,380,o),
(365,369,c),
(447,374,o),
(611,374,o),
(655,258,c),
(607,133,o),
(501,104,o),
(407,104,cs),
(336,103,o),
(216,127,o),
(195,256,c),
(187,244,o),
(186,205,o),
(185,187,cs),
(175,12,o),
(290,-37,o),
(395,-36,cs)
);
},
{
pos = (53,0);
ref = "stick-m.component";
}
);
width = 729;
},
{
layerId = m006;
shapes = (
{
closed = 1;
nodes = (
(524,-37,o),
(604,9,o),
(645,111,cs),
(672,177,o),
(682,252,o),
(676,368,c),
(668,447,o),
(608,482,o),
(502,487,c),
(508,491,o),
(573,541,o),
(577,546,c),
(580,549,o),
(583,555,o),
(585,563,cs),
(596,605,o),
(597,683,o),
(588,714,c),
(553,813,o),
(476,839,o),
(401,839,cs),
(279,839,o),
(104,771,o),
(91,560,c),
(86,483,l),
(139,482,l),
(147,506,o),
(158,534,o),
(172,553,cs),
(225,627,o),
(308,663,o),
(386,665,cs),
(428,666,o),
(468,658,o),
(500,632,c),
(470,606,o),
(380,535,o),
(379,525,c),
(371,499,o),
(361,374,o),
(372,356,c),
(455,359,o),
(590,360,o),
(647,267,c),
(605,179,o),
(510,140,o),
(420,139,cs),
(336,137,o),
(229,166,o),
(210,288,c),
(200,273,o),
(199,222,o),
(197,201,c),
(177,13,o),
(293,-39,o),
(401,-38,cs)
);
},
{
pos = (55,0);
ref = "stick-m.component";
}
);
width = 734;
},
{
layerId = m007;
shapes = (
{
closed = 1;
nodes = (
(990,-11,o),
(1192,27,o),
(1277,141,c),
(1318,211,o),
(1342,298,o),
(1294,369,cs),
(1230,462,o),
(1017,464,o),
(873,474,c),
(949,503,o),
(1041,544,o),
(1106,572,c),
(1108,573,o),
(1111,576,o),
(1111,579,c),
(1122,605,o),
(1126,659,o),
(1107,683,c),
(1032,778,o),
(872,811,o),
(709,810,cs),
(466,809,o),
(152,707,o),
(137,560,c),
(134,512,l),
(178,512,l),
(188,541,o),
(212,579,o),
(241,601,c),
(340,675,o),
(524,718,o),
(700,718,cs),
(830,718,o),
(956,696,o),
(1040,640,c),
(926,590,o),
(812,541,o),
(698,491,c),
(685,487,o),
(680,401,o),
(693,393,c),
(859,397,o),
(1221,398,o),
(1293,265,c),
(1236,125,o),
(986,89,o),
(793,86,cs),
(622,83,o),
(419,107,o),
(364,231,c),
(355,261,o),
(348,196,o),
(348,190,cs),
(352,36,o),
(600,-13,o),
(802,-12,cs)
);
},
{
pos = (101,0);
ref = "stick-m.component";
}
);
width = 1439;
},
{
layerId = m008;
shapes = (
{
closed = 1;
nodes = (
(1028,-35,o),
(1208,9,o),
(1288,119,cs),
(1331,178,o),
(1346,256,o),
(1325,356,c),
(1296,467,o),
(1063,478,o),
(940,483,c),
(979,500,o),
(1081,540,o),
(1117,556,c),
(1128,559,o),
(1131,578,o),
(1132,583,c),
(1141,623,o),
(1151,682,o),
(1092,730,c),
(1002,804,o),
(870,825,o),
(737,825,cs),
(502,825,o),
(166,747,o),
(141,560,c),
(137,496,l),
(193,498,l),
(205,526,o),
(228,557,o),
(256,578,c),
(358,651,o),
(534,691,o),
(705,692,cs),
(817,693,o),
(925,677,o),
(1009,636,c),
(911,594,o),
(811,551,o),
(713,508,c),
(693,498,o),
(688,380,o),
(706,369,c),
(870,374,o),
(1199,374,o),
(1294,258,c),
(1206,133,o),
(996,104,o),
(807,104,cs),
(665,103,o),
(424,127,o),
(374,256,c),
(359,244,o),
(359,205,o),
(358,187,cs),
(348,12,o),
(582,-37,o),
(792,-36,cs)
);
},
{
pos = (105,0);
ref = "stick-m.component";
}
);
width = 1457;
},
{
layerId = m009;
shapes = (
{
closed = 1;
nodes = (
(1050,-37,o),
(1208,9,o),
(1284,111,cs),
(1333,177,o),
(1348,252,o),
(1329,368,c),
(1309,447,o),
(1185,482,o),
(973,487,c),
(985,491,o),
(1112,541,o),
(1120,546,c),
(1126,549,o),
(1131,555,o),
(1135,563,cs),
(1154,605,o),
(1152,683,o),
(1132,714,c),
(1055,813,o),
(900,839,o),
(750,839,cs),
(505,839,o),
(160,771,o),
(147,560,c),
(142,483,l),
(247,482,l),
(263,506,o),
(283,534,o),
(310,553,cs),
(410,627,o),
(576,663,o),
(730,665,cs),
(814,666,o),
(895,658,o),
(961,632,c),
(902,606,o),
(726,535,o),
(725,525,c),
(710,499,o),
(699,374,o),
(722,356,c),
(888,359,o),
(1157,360,o),
(1277,267,c),
(1200,179,o),
(1012,140,o),
(832,139,cs),
(664,137,o),
(448,166,o),
(403,288,c),
(382,273,o),
(384,222,o),
(381,201,c),
(354,13,o),
(588,-39,o),
(805,-38,cs)
);
},
{
pos = (111,0);
ref = "stick-m.component";
}
);
width = 1467;
}
);
metricLeft = B;
metricRight = B;
unicode = 7838;
},
{
glyphname = T;
kernLeft = T;
kernRight = T;
lastChange = "2024-09-04 11:19:47 +0000";
layers = (
{
anchors = (
{
name = bottom;
pos = (651,-20);
},
{
name = top;
pos = (427,800);
}
);
layerId = m01;
shapes = (
{
closed = 1;
nodes = (
(718,-26,o),
(872,9,o),
(929,59,c),
(938,81,o),
(947,177,o),
(931,195,c),
(851,148,o),
(754,116,o),
(661,119,cs),
(594,121,o),
(529,141,o),
(474,188,c),
(439,219,o),
(422,269,o),
(422,316,c),
(422,330,o),
(422,343,o),
(422,356,c),
(376,356,l),
(371,273,o),
(355,185,o),
(389,106,c),
(432,17,o),
(530,-18,o),
(626,-22,cs)
);
},
{
pos = (369,259);
ref = "stick-xxs.component";
},
{
closed = 1;
nodes = (
(483,612,o),
(697,640,o),
(905,682,c),
(920,692,o),
(927,819,o),
(913,828,c),
(705,786,o),
(492,758,o),
(279,759,cs),
(217,759,o),
(85,765,o),
(28,776,c),
(23,776,o),
(19,754,o),
(19,754,cs),
(15,731,o),
(6,648,o),
(20,630,c),
(103,619,o),
(186,614,o),
(270,613,cs)
);
}
);
width = 968;
},
{
anchors = (
{
name = bottom;
pos = (654,-20);
},
{
name = top;
pos = (435,800);
}
);
layerId = "E3B43ECB-7726-4A5D-9A6F-096C3D942908";
shapes = (
{
closed = 1;
nodes = (
(745,-39,o),
(873,-9,o),
(939,46,c),
(950,74,o),
(962,207,o),
(943,227,c),
(869,180,o),
(766,149,o),
(673,154,cs),
(608,158,o),
(548,178,o),
(506,222,cs),
(479,250,o),
(460,288,o),
(452,337,c),
(456,371,o),
(457,404,o),
(459,438,c),
(367,438,l),
(359,325,o),
(339,200,o),
(395,95,c),
(447,4,o),
(553,-34,o),
(656,-37,cs)
);
},
{
pos = (358,316);
ref = "stick-xxs.component";
},
{
closed = 1;
nodes = (
(509,588,o),
(716,614,o),
(918,653,c),
(938,664,o),
(946,829,o),
(928,840,c),
(725,802,o),
(517,775,o),
(310,774,cs),
(213,773,o),
(132,778,o),
(36,790,c),
(33,788,o),
(29,781,o),
(27,772,cs),
(14,727,o),
(10,614,o),
(26,602,c),
(118,591,o),
(211,586,o),
(303,587,cs)
);
}
);
width = 987;
},
{
anchors = (
{
name = bottom;
pos = (646,-20);
},
{
name = top;
pos = (416,800);
}
);
layerId = "76B40D95-58B1-4323-9BD9-765A1287C92C";
shapes = (
{
closed = 1;
nodes = (
(736,-13,o),
(839,13,o),
(920,67,c),
(930,79,o),
(933,178,o),
(925,165,c),
(852,116,o),
(750,85,o),
(657,88,cs),
(582,90,o),
(499,113,o),
(458,162,cs),
(423,204,o),
(403,237,o),
(409,315,cs),
(410,328,o),
(411,341,o),
(411,356,c),
(380,356,l),
(368,243,o),
(364,152,o),
(399,95,cs),
(446,15,o),
(545,-9,o),
(638,-11,cs)
);
},
{
pos = (374,281);
ref = "stick-xxs.component";
},
{
closed = 1;
nodes = (
(455,642,o),
(678,672,o),
(900,716,c),
(912,723,o),
(914,807,o),
(906,814,c),
(689,770,o),
(463,742,o),
(239,745,cs),
(165,746,o),
(92,751,o),
(19,759,c),
(15,759,o),
(13,753,o),
(12,747,cs),
(9,734,o),
(4,670,o),
(13,662,c),
(86,653,o),
(158,648,o),
(231,646,cs)
);
}
);
width = 952;
},
{
anchors = (
{
name = bottom;
pos = (452,-20);
},
{
name = top;
pos = (306,800);
}
);
layerId = m004;
shapes = (
{
closed = 1;
nodes = (
(515,-13,o),
(588,13,o),
(645,67,c),
(652,79,o),
(656,178,o),
(651,165,c),
(599,116,o),
(527,85,o),
(462,88,cs),
(409,90,o),
(351,113,o),
(324,162,cs),
(300,204,o),
(287,237,o),
(292,315,cs),
(293,328,o),
(294,341,o),
(294,356,c),
(273,356,l),
(262,243,o),
(258,152,o),
(281,95,cs),
(312,15,o),
(381,-9,o),
(446,-11,cs)
);
},
{
pos = (267,281);
ref = "stick-xxs.component";
},
{
closed = 1;
nodes = (
(330,642,o),
(487,672,o),
(643,716,c),
(652,723,o),
(655,807,o),
(649,814,c),
(497,770,o),
(338,742,o),
(181,745,cs),
(129,746,o),
(78,751,o),
(27,759,c),
(25,759,o),
(23,753,o),
(22,747,cs),
(20,734,o),
(15,670,o),
(21,662,c),
(72,653,o),
(123,648,o),
(174,646,cs)
);
}
);
width = 666;
},
{
anchors = (
{
name = bottom;
pos = (455,-20);
},
{
name = top;
pos = (314,800);
}
);
layerId = m005;
shapes = (
{
closed = 1;
nodes = (
(502,-26,o),
(611,9,o),
(651,59,c),
(658,81,o),
(666,177,o),
(655,195,c),
(598,148,o),
(530,116,o),
(465,119,cs),
(418,121,o),
(373,141,o),
(335,188,c),
(311,219,o),
(300,269,o),
(301,316,c),
(302,330,o),
(302,343,o),
(302,356,c),
(270,356,l),
(265,273,o),
(252,185,o),
(274,106,c),
(303,17,o),
(371,-18,o),
(438,-22,cs)
);
},
{
pos = (263,259);
ref = "stick-xxs.component";
},
{
closed = 1;
nodes = (
(350,612,o),
(500,640,o),
(646,682,c),
(657,692,o),
(664,819,o),
(655,828,c),
(508,786,o),
(359,758,o),
(209,759,cs),
(166,759,o),
(74,765,o),
(34,776,c),
(31,776,o),
(27,754,o),
(27,754,cs),
(24,731,o),
(16,648,o),
(26,630,c),
(84,619,o),
(142,614,o),
(200,613,cs)
);
}
);
width = 678;
},
{
anchors = (
{
name = bottom;
pos = (457,-20);
},
{
name = top;
pos = (319,800);
}
);
layerId = m006;
shapes = (
{
closed = 1;
nodes = (
(521,-39,o),
(611,-9,o),
(658,46,c),
(666,74,o),
(677,207,o),
(664,227,c),
(612,180,o),
(539,149,o),
(474,154,cs),
(429,158,o),
(387,178,o),
(358,222,cs),
(340,250,o),
(327,288,o),
(323,337,c),
(326,371,o),
(327,404,o),
(329,438,c),
(265,438,l),
(257,325,o),
(241,200,o),
(278,95,c),
(313,4,o),
(386,-34,o),
(459,-37,cs)
);
},
{
pos = (257,316);
ref = "stick-xxs.component";
},
{
closed = 1;
nodes = (
(367,588,o),
(513,614,o),
(655,653,c),
(669,664,o),
(678,829,o),
(665,840,c),
(522,802,o),
(376,775,o),
(231,774,cs),
(164,773,o),
(107,778,o),
(40,790,c),
(38,788,o),
(35,781,o),
(33,772,cs),
(23,727,o),
(18,614,o),
(29,602,c),
(94,591,o),
(159,586,o),
(223,587,cs)
);
}
);
width = 691;
},
{
anchors = (
{
name = bottom;
pos = (905,-20);
},
{
name = top;
pos = (562,800);
}
);
layerId = m007;
shapes = (
{
closed = 1;
nodes = (
(1031,-13,o),
(1174,13,o),
(1286,67,c),
(1300,79,o),
(1302,178,o),
(1291,165,c),
(1190,116,o),
(1048,85,o),
(918,88,cs),
(813,90,o),
(696,113,o),
(637,162,cs),
(587,204,o),
(558,237,o),
(565,315,cs),
(566,328,o),
(567,341,o),
(567,356,c),
(523,356,l),
(509,243,o),
(506,152,o),
(556,95,cs),
(624,15,o),
(763,-9,o),
(893,-11,cs)
);
},
{
pos = (517,281);
ref = "stick-xxs.component";
},
{
closed = 1;
nodes = (
(621,642,o),
(932,672,o),
(1242,716,c),
(1259,723,o),
(1259,807,o),
(1248,814,c),
(945,770,o),
(630,742,o),
(316,745,cs),
(212,746,o),
(110,751,o),
(8,759,c),
(2,759,o),
(-1,753,o),
(-2,747,cs),
(-6,734,o),
(-11,670,o),
(2,662,c),
(104,653,o),
(205,648,o),
(307,646,cs)
);
}
);
width = 1333;
},
{
anchors = (
{
name = bottom;
pos = (912,-20);
},
{
name = top;
pos = (578,800);
}
);
layerId = m008;
shapes = (
{
closed = 1;
nodes = (
(1006,-26,o),
(1221,9,o),
(1299,59,c),
(1311,81,o),
(1321,177,o),
(1299,195,c),
(1188,148,o),
(1053,116,o),
(922,119,cs),
(829,121,o),
(737,141,o),
(659,188,c),
(609,219,o),
(584,269,o),
(583,316,c),
(583,330,o),
(582,343,o),
(582,356,c),
(518,356,l),
(513,273,o),
(492,185,o),
(542,106,c),
(604,17,o),
(742,-18,o),
(877,-22,cs)
);
},
{
pos = (510,259);
ref = "stick-xxs.component";
},
{
closed = 1;
nodes = (
(661,612,o),
(960,640,o),
(1250,682,c),
(1271,692,o),
(1277,819,o),
(1258,828,c),
(967,786,o),
(670,758,o),
(372,759,cs),
(285,759,o),
(100,765,o),
(20,776,c),
(13,776,o),
(8,754,o),
(8,754,cs),
(3,731,o),
(-8,648,o),
(12,630,c),
(129,619,o),
(245,614,o),
(363,613,cs)
);
}
);
width = 1355;
},
{
anchors = (
{
name = bottom;
pos = (916,-20);
},
{
name = top;
pos = (589,800);
}
);
layerId = m009;
shapes = (
{
closed = 1;
nodes = (
(1044,-39,o),
(1222,-9,o),
(1313,46,c),
(1328,74,o),
(1342,207,o),
(1315,227,c),
(1212,180,o),
(1069,149,o),
(938,154,cs),
(847,158,o),
(763,178,o),
(703,222,cs),
(664,250,o),
(637,288,o),
(624,337,c),
(629,371,o),
(630,404,o),
(632,438,c),
(503,438,l),
(494,325,o),
(470,200,o),
(551,95,c),
(626,4,o),
(775,-34,o),
(919,-37,cs)
);
},
{
pos = (493,316);
ref = "stick-xxs.component";
},
{
closed = 1;
nodes = (
(698,588,o),
(987,614,o),
(1269,653,c),
(1297,664,o),
(1304,829,o),
(1278,840,c),
(995,802,o),
(704,775,o),
(415,774,cs),
(279,773,o),
(165,778,o),
(31,790,c),
(27,788,o),
(21,781,o),
(19,772,cs),
(1,727,o),
(-1,614,o),
(21,602,c),
(150,591,o),
(281,586,o),
(410,587,cs)
);
}
);
width = 1382;
}
);
unicode = 84;
},
{
glyphname = U;
lastChange = "2024-09-04 11:19:47 +0000";
layers = (
{
anchors = (
{
name = ogonek;
pos = (661,42);
},
{
name = top;
pos = (510,800);
}
);
layerId = m01;
shapes = (
{
closed = 1;
nodes = (
(689,-19,o),
(836,94,o),
(871,374,cs),
(874,395,o),
(876,417,o),
(877,439,c),
(827,439,l),
(824,413,o),
(820,389,o),
(814,367,cs),
(765,186,o),
(610,121,o),
(423,121,cs),
(330,121,o),
(242,159,o),
(181,234,cs),
(160,260,o),
(142,291,o),
(129,326,c),
(118,379,l),
(83,379,l),
(79,326,l),
(76,286,o),
(70,244,o),
(81,204,cs),
(120,62,o),
(263,-21,o),
(406,-23,c)
);
},
{
pos = (73,241);
ref = "stick-s.component";
},
{
pos = (826,423);
ref = "stick-xxs.component";
}
);
width = 964;
},
{
anchors = (
{
name = ogonek;
pos = (709,42);
},
{
name = top;
pos = (544,800);
}
);
layerId = "E3B43ECB-7726-4A5D-9A6F-096C3D942908";
shapes = (
{
closed = 1;
nodes = (
(715,-35,o),
(869,81,o),
(920,330,cs),
(926,360,o),
(934,400,o),
(935,445,c),
(841,445,l),
(837,414,o),
(829,385,o),
(817,359,cs),
(766,246,o),
(647,177,o),
(535,165,cs),
(418,153,o),
(299,174,o),
(223,260,cs),
(204,282,o),
(188,307,o),
(175,338,c),
(158,400,l),
(92,400,l),
(86,338,l),
(81,296,o),
(78,258,o),
(83,222,cs),
(102,62,o),
(275,-41,o),
(460,-39,cs)
);
},
{
pos = (85,241);
ref = "stick-s.component";
},
{
pos = (838,423);
ref = "stick-xxs.component";
}
);
width = 1030;
},
{
anchors = (
{
name = ogonek;
pos = (641,42);
},
{
name = top;
pos = (496,800);
}
);
layerId = "76B40D95-58B1-4323-9BD9-765A1287C92C";
shapes = (
{
closed = 1;
nodes = (
(641,-12,o),
(799,79,o),
(842,326,cs),
(848,359,o),
(852,403,o),
(854,439,c),
(821,439,l),
(817,390,o),
(817,362,o),
(808,333,cs),
(752,159,o),
(609,88,o),
(416,88,cs),
(298,88,o),
(229,120,o),
(166,190,cs),
(140,220,o),
(116,268,o),
(107,311,c),
(110,394,l),
(78,394,l),
(71,311,l),
(65,239,o),
(65,201,o),
(94,145,cs),
(150,38,o),
(258,-5,o),
(390,-12,c)
);
},
{
alignment = -1;
pos = (73,240);
ref = "stick-s.component";
},
{
alignment = -1;
pos = (820,423);
ref = "stick-xxs.component";
}
);
width = 934;
},
{
anchors = (
{
name = ogonek;
pos = (449,42);
},
{
name = top;
pos = (362,800);
}
);
layerId = m004;
shapes = (
{
closed = 1;
nodes = (
(448,-12,o),
(561,79,o),
(595,326,cs),
(600,359,o),
(604,403,o),
(606,439,c),
(583,439,l),
(579,390,o),
(579,362,o),
(572,333,cs),
(529,159,o),
(428,88,o),
(293,88,cs),
(210,88,o),
(163,120,o),
(120,190,cs),
(102,220,o),
(86,268,o),
(81,311,c),
(84,394,l),
(62,394,l),
(56,311,l),
(50,239,o),
(49,201,o),
(69,145,cs),
(106,38,o),
(181,-5,o),
(273,-12,c)
);
},
{
alignment = -1;
pos = (56,240);
ref = "stick-s.component";
},
{
alignment = -1;
pos = (582,423);
ref = "stick-xxs.component";
}
);
width = 654;
},
{
anchors = (
{
name = ogonek;
pos = (463,42);
},
{
name = top;
pos = (372,800);
}
);
layerId = m005;
shapes = (
{
closed = 1;
nodes = (
(482,-19,o),
(587,94,o),
(617,374,cs),
(619,395,o),
(621,417,o),
(622,439,c),
(587,439,l),
(585,413,o),
(581,389,o),
(577,367,cs),
(539,186,o),
(429,121,o),
(298,121,cs),
(233,121,o),
(172,159,o),
(131,234,cs),
(117,260,o),
(105,291,o),
(96,326,c),
(90,379,l),
(65,379,l),
(61,326,l),
(59,286,o),
(54,244,o),
(61,204,cs),
(85,62,o),
(184,-21,o),
(284,-23,c)
);
},
{
pos = (56,241);
ref = "stick-s.component";
},
{
pos = (586,423);
ref = "stick-xxs.component";
}
);
width = 675;
},
{
anchors = (
{
name = ogonek;
pos = (497,42);
},
{
name = top;
pos = (396,800);
}
);
layerId = m006;
shapes = (
{
closed = 1;
nodes = (
(500,-35,o),
(610,81,o),
(650,330,cs),
(655,360,o),
(661,400,o),
(663,445,c),
(597,445,l),
(594,414,o),
(587,385,o),
(579,359,cs),
(541,246,o),
(456,177,o),
(378,165,cs),
(295,153,o),
(213,174,o),
(161,260,cs),
(148,282,o),
(137,307,o),
(129,338,c),
(118,400,l),
(72,400,l),
(67,338,l),
(62,296,o),
(59,258,o),
(62,222,cs),
(73,62,o),
(192,-41,o),
(321,-39,cs)
);
},
{
pos = (64,241);
ref = "stick-s.component";
},
{
pos = (595,423);
ref = "stick-xxs.component";
}
);
width = 721;
},
{
anchors = (
{
name = ogonek;
pos = (896,42);
},
{
name = top;
pos = (674,800);
}
);
layerId = m007;
shapes = (
{
closed = 1;
nodes = (
(898,-12,o),
(1117,79,o),
(1171,326,cs),
(1178,359,o),
(1183,403,o),
(1185,439,c),
(1138,439,l),
(1134,390,o),
(1135,362,o),
(1123,333,cs),
(1049,159,o),
(850,88,o),
(580,88,cs),
(415,88,o),
(318,120,o),
(228,190,cs),
(191,220,o),
(156,268,o),
(142,311,c),
(144,394,l),
(99,394,l),
(92,311,l),
(85,239,o),
(86,201,o),
(128,145,cs),
(209,38,o),
(361,-5,o),
(546,-12,c)
);
},
{
alignment = -1;
pos = (96,240);
ref = "stick-s.component";
},
{
alignment = -1;
pos = (1137,423);
ref = "stick-xxs.component";
}
);
width = 1308;
},
{
anchors = (
{
name = ogonek;
pos = (924,42);
},
{
name = top;
pos = (694,800);
}
);
layerId = m008;
shapes = (
{
closed = 1;
nodes = (
(965,-19,o),
(1168,94,o),
(1210,374,cs),
(1214,395,o),
(1216,417,o),
(1217,439,c),
(1147,439,l),
(1143,413,o),
(1138,389,o),
(1130,367,cs),
(1066,186,o),
(851,121,o),
(589,121,cs),
(459,121,o),
(335,159,o),
(248,234,cs),
(218,260,o),
(192,291,o),
(172,326,c),
(156,379,l),
(107,379,l),
(102,326,l),
(99,286,o),
(92,244,o),
(108,204,cs),
(166,62,o),
(369,-21,o),
(569,-23,c)
);
},
{
pos = (96,241);
ref = "stick-s.component";
},
{
pos = (1146,423);
ref = "stick-xxs.component";
}
);
width = 1350;
},
{
anchors = (
{
name = ogonek;
pos = (992,42);
},
{
name = top;
pos = (742,800);
}
);
layerId = m009;
shapes = (
{
closed = 1;
nodes = (
(1002,-35,o),
(1215,81,o),
(1280,330,cs),
(1287,360,o),
(1298,400,o),
(1298,445,c),
(1166,445,l),
(1161,414,o),
(1151,385,o),
(1135,359,cs),
(1066,246,o),
(901,177,o),
(745,165,cs),
(581,153,o),
(414,174,o),
(306,260,cs),
(279,282,o),
(256,307,o),
(237,338,c),
(211,400,l),
(119,400,l),
(112,338,l),
(106,296,o),
(103,258,o),
(111,222,cs),
(141,62,o),
(386,-41,o),
(645,-39,cs)
);
},
{
pos = (113,241);
ref = "stick-s.component";
},
{
pos = (1163,423);
ref = "stick-xxs.component";
}
);
width = 1442;
}
);
unicode = 85;
},
{
glyphname = V;
kernLeft = V;
kernRight = V;
lastChange = "2024-09-04 11:19:47 +0000";
layers = (
{
layerId = m01;
shapes = (
{
closed = 1;
nodes = (
(523,45,o),
(557,105,o),
(591,165,cs),
(642,255,o),
(736,424,o),
(825,551,cs),
(862,602,o),
(898,647,o),
(930,676,c),
(943,687,o),
(945,686,o),
(948,705,c),
(955,737,o),
(956,770,o),
(954,803,c),
(952,810,o),
(954,819,o),
(947,823,c),
(881,770,o),
(834,696,o),
(787,626,c),
(710,507,o),
(640,381,o),
(569,257,cs),
(547,216,o),
(524,176,o),
(501,136,c),
(500,151,o),
(500,167,o),
(496,180,c),
(485,195,o),
(475,209,o),
(464,224,c),
(365,365,o),
(265,506,o),
(162,645,cs),
(124,696,o),
(85,747,o),
(46,797,c),
(39,806,o),
(35,782,o),
(31,765,c),
(25,726,o),
(20,651,o),
(30,620,c),
(65,575,o),
(99,530,o),
(133,484,cs),
(252,324,o),
(367,162,o),
(481,-1,c),
(482,-3,o),
(482,-5,o),
(482,-8,c),
(483,-10,o),
(485,-22,o),
(489,-15,c)
);
}
);
width = 951;
},
{
layerId = "E3B43ECB-7726-4A5D-9A6F-096C3D942908";
shapes = (
{
closed = 1;
nodes = (
(534,31,o),
(569,92,o),
(605,153,cs),
(656,241,o),
(746,400,o),
(834,521,cs),
(870,570,o),
(905,613,o),
(938,643,c),
(956,660,o),
(959,661,o),
(962,680,c),
(970,723,o),
(972,768,o),
(969,812,c),
(967,821,o),
(969,833,o),
(961,840,c),
(894,787,o),
(847,714,o),
(798,645,c),
(732,546,o),
(671,443,o),
(611,340,cs),
(581,287,o),
(551,235,o),
(520,182,c),
(519,200,o),
(518,216,o),
(506,229,c),
(486,256,o),
(467,282,o),
(448,309,c),
(356,434,o),
(264,560,o),
(169,683,cs),
(134,730,o),
(98,775,o),
(62,821,c),
(50,827,o),
(38,766,o),
(36,736,c),
(32,694,o),
(29,620,o),
(40,583,c),
(71,545,o),
(101,506,o),
(145,447,cs),
(210,361,o),
(306,232,o),
(480,-3,c),
(484,-9,o),
(488,-14,o),
(488,-21,c),
(489,-23,o),
(492,-40,o),
(498,-30,c)
);
}
);
width = 974;
},
{
layerId = "76B40D95-58B1-4323-9BD9-765A1287C92C";
shapes = (
{
closed = 1;
nodes = (
(512,45,o),
(544,103,o),
(576,160,c),
(672,324,o),
(749,500,o),
(869,646,cs),
(886,666,o),
(904,687,o),
(923,706,c),
(931,713,o),
(940,719,o),
(940,730,c),
(943,752,o),
(945,775,o),
(943,798,c),
(943,800,o),
(941,813,o),
(939,812,c),
(898,781,o),
(859,728,o),
(833,691,cs),
(732,549,o),
(653,395,o),
(570,242,cs),
(544,193,o),
(517,144,o),
(489,95,c),
(488,113,o),
(490,134,o),
(476,149,c),
(471,157,o),
(465,164,o),
(460,172,cs),
(386,279,o),
(229,506,o),
(111,667,cs),
(86,701,o),
(31,777,o),
(29,774,c),
(26,772,o),
(24,765,o),
(23,760,cs),
(20,745,o),
(15,674,o),
(22,649,c),
(43,621,o),
(64,592,o),
(85,564,cs),
(151,476,o),
(435,70,o),
(473,14,c),
(474,7,o),
(474,7,o),
(476,0,c),
(476,-2,o),
(477,-17,o),
(480,-12,c)
);
}
);
width = 932;
},
{
layerId = m004;
shapes = (
{
closed = 1;
nodes = (
(359,45,o),
(383,103,o),
(406,160,c),
(476,324,o),
(534,500,o),
(620,646,cs),
(633,666,o),
(646,687,o),
(659,706,c),
(665,713,o),
(671,719,o),
(672,730,c),
(674,752,o),
(676,775,o),
(675,798,c),
(675,800,o),
(674,813,o),
(672,812,c),
(643,781,o),
(615,728,o),
(596,691,cs),
(523,549,o),
(464,395,o),
(404,242,cs),
(384,193,o),
(365,144,o),
(344,95,c),
(344,113,o),
(346,134,o),
(336,149,c),
(333,157,o),
(329,164,o),
(325,172,cs),
(275,279,o),
(170,506,o),
(90,667,cs),
(73,701,o),
(36,777,o),
(35,774,c),
(33,772,o),
(31,765,o),
(30,760,cs),
(28,745,o),
(23,674,o),
(28,649,c),
(42,621,o),
(56,592,o),
(70,564,cs),
(115,476,o),
(306,70,o),
(331,14,c),
(332,7,o),
(332,7,o),
(333,0,c),
(333,-2,o),
(334,-17,o),
(336,-12,c)
);
}
);
width = 652;
},
{
layerId = m005;
shapes = (
{
closed = 1;
nodes = (
(367,45,o),
(392,105,o),
(417,165,cs),
(454,255,o),
(523,424,o),
(588,551,cs),
(615,602,o),
(641,647,o),
(664,676,c),
(673,687,o),
(674,686,o),
(677,705,c),
(682,737,o),
(684,770,o),
(683,803,c),
(682,810,o),
(683,819,o),
(678,823,c),
(631,770,o),
(597,696,o),
(563,626,c),
(506,507,o),
(455,381,o),
(403,257,cs),
(387,216,o),
(370,176,o),
(353,136,c),
(353,151,o),
(353,167,o),
(351,180,c),
(343,195,o),
(336,209,o),
(329,224,c),
(262,365,o),
(195,506,o),
(125,645,cs),
(100,696,o),
(73,747,o),
(47,797,c),
(42,806,o),
(39,782,o),
(36,765,c),
(31,726,o),
(26,651,o),
(33,620,c),
(56,575,o),
(79,530,o),
(102,484,cs),
(182,324,o),
(260,162,o),
(337,-1,c),
(337,-3,o),
(337,-5,o),
(337,-8,c),
(338,-10,o),
(339,-22,o),
(342,-15,c)
);
}
);
width = 666;
},
{
layerId = m006;
shapes = (
{
closed = 1;
nodes = (
(374,31,o),
(400,92,o),
(426,153,cs),
(464,241,o),
(530,400,o),
(594,521,cs),
(620,570,o),
(645,613,o),
(669,643,c),
(682,660,o),
(684,661,o),
(686,680,c),
(693,723,o),
(695,768,o),
(693,812,c),
(692,821,o),
(694,833,o),
(688,840,c),
(640,787,o),
(606,714,o),
(571,645,c),
(523,546,o),
(478,443,o),
(434,340,cs),
(412,287,o),
(390,235,o),
(367,182,c),
(367,200,o),
(367,216,o),
(358,229,c),
(345,256,o),
(332,282,o),
(319,309,c),
(257,434,o),
(195,560,o),
(131,683,cs),
(107,730,o),
(83,775,o),
(59,821,c),
(50,827,o),
(41,766,o),
(39,736,c),
(35,694,o),
(32,620,o),
(39,583,c),
(60,545,o),
(80,506,o),
(110,447,cs),
(154,361,o),
(219,232,o),
(336,-3,c),
(339,-9,o),
(341,-14,o),
(341,-21,c),
(342,-23,o),
(344,-40,o),
(348,-30,c)
);
}
);
width = 682;
},
{
layerId = m007;
shapes = (
{
closed = 1;
nodes = (
(716,45,o),
(759,103,o),
(802,160,c),
(933,324,o),
(1036,500,o),
(1200,646,cs),
(1224,666,o),
(1248,687,o),
(1275,706,c),
(1286,713,o),
(1298,719,o),
(1298,730,c),
(1301,752,o),
(1304,775,o),
(1300,798,c),
(1300,800,o),
(1297,813,o),
(1294,812,c),
(1238,781,o),
(1184,728,o),
(1149,691,cs),
(1011,549,o),
(904,395,o),
(792,242,cs),
(757,193,o),
(720,144,o),
(682,95,c),
(680,113,o),
(683,134,o),
(663,149,c),
(655,157,o),
(647,164,o),
(640,172,cs),
(533,279,o),
(308,506,o),
(139,667,cs),
(103,701,o),
(24,777,o),
(21,774,c),
(17,772,o),
(15,765,o),
(13,760,cs),
(9,745,o),
(4,674,o),
(15,649,c),
(45,621,o),
(75,592,o),
(105,564,cs),
(200,476,o),
(607,70,o),
(662,14,c),
(663,7,o),
(663,7,o),
(666,0,c),
(666,-2,o),
(668,-17,o),
(672,-12,c)
);
}
);
width = 1305;
},
{
layerId = m008;
shapes = (
{
closed = 1;
nodes = (
(731,45,o),
(777,105,o),
(823,165,cs),
(892,255,o),
(1020,424,o),
(1141,551,cs),
(1192,602,o),
(1241,647,o),
(1285,676,c),
(1303,687,o),
(1306,686,o),
(1310,705,c),
(1319,737,o),
(1319,770,o),
(1316,803,c),
(1313,810,o),
(1315,819,o),
(1305,823,c),
(1214,770,o),
(1150,696,o),
(1086,626,c),
(981,507,o),
(886,381,o),
(790,257,cs),
(760,216,o),
(729,176,o),
(698,136,c),
(696,151,o),
(696,167,o),
(690,180,c),
(674,195,o),
(660,209,o),
(644,224,c),
(502,365,o),
(358,506,o),
(211,645,cs),
(156,696,o),
(100,747,o),
(45,797,c),
(34,806,o),
(29,782,o),
(24,765,c),
(17,726,o),
(12,651,o),
(27,620,c),
(77,575,o),
(125,530,o),
(174,484,cs),
(345,324,o),
(510,162,o),
(673,-1,c),
(675,-3,o),
(675,-5,o),
(675,-8,c),
(676,-10,o),
(680,-22,o),
(685,-15,c)
);
}
);
width = 1331;
},
{
layerId = m009;
shapes = (
{
closed = 1;
nodes = (
(747,31,o),
(794,92,o),
(843,153,cs),
(912,241,o),
(1034,400,o),
(1155,521,cs),
(1204,570,o),
(1252,613,o),
(1297,643,c),
(1322,660,o),
(1326,661,o),
(1330,680,c),
(1340,723,o),
(1342,768,o),
(1336,812,c),
(1333,821,o),
(1336,833,o),
(1324,840,c),
(1232,787,o),
(1168,714,o),
(1101,645,c),
(1011,546,o),
(928,443,o),
(847,340,cs),
(806,287,o),
(766,235,o),
(723,182,c),
(722,200,o),
(720,216,o),
(703,229,c),
(674,256,o),
(647,282,o),
(619,309,c),
(488,434,o),
(356,560,o),
(220,683,cs),
(169,730,o),
(118,775,o),
(66,821,c),
(49,827,o),
(34,766,o),
(32,736,c),
(27,694,o),
(25,620,o),
(41,583,c),
(86,545,o),
(129,506,o),
(192,447,cs),
(285,361,o),
(423,232,o),
(672,-3,c),
(678,-9,o),
(684,-14,o),
(684,-21,c),
(685,-23,o),
(690,-40,o),
(698,-30,c)
);
}
);
width = 1364;
}
);
unicode = 86;
},
{
glyphname = W;
kernLeft = V;
kernRight = W;
lastChange = "2024-09-04 11:19:47 +0000";
layers = (
{
anchors = (
{
name = top;
pos = (708,800);
}
);
layerId = m01;
shapes = (
{
closed = 1;
nodes = (
(1052,195,o),
(1206,568,o),
(1415,677,c),
(1419,679,o),
(1422,691,o),
(1423,696,c),
(1427,719,o),
(1431,770,o),
(1428,793,c),
(1428,795,o),
(1425,816,o),
(1422,814,c),
(1209,700,o),
(1065,351,o),
(965,136,c),
(964,151,o),
(964,165,o),
(959,179,c),
(899,265,o),
(838,351,o),
(777,436,c),
(829,518,o),
(938,681,o),
(939,685,c),
(944,704,o),
(947,728,o),
(947,773,cs),
(947,783,o),
(944,816,o),
(937,806,c),
(922,782,o),
(786,580,o),
(733,497,c),
(662,595,o),
(591,694,o),
(516,790,c),
(508,801,o),
(502,769,o),
(501,758,cs),
(496,724,o),
(494,690,o),
(495,657,c),
(496,642,o),
(495,628,o),
(500,614,c),
(556,541,o),
(611,467,o),
(666,393,c),
(610,308,o),
(556,223,o),
(502,139,c),
(501,152,o),
(501,166,o),
(496,179,c),
(351,385,o),
(207,590,o),
(54,790,cs),
(34,816,o),
(25,647,o),
(37,614,c),
(191,415,o),
(335,209,o),
(480,5,c),
(480,-4,o),
(483,-21,o),
(488,-13,c),
(502,10,o),
(650,240,o),
(710,332,c),
(788,222,o),
(866,113,o),
(944,3,c),
(944,-6,o),
(950,-28,o),
(954,-16,c)
);
}
);
width = 1443;
},
{
anchors = (
{
name = top;
pos = (720,800);
}
);
layerId = "E3B43ECB-7726-4A5D-9A6F-096C3D942908";
shapes = (
{
closed = 1;
nodes = (
(1065,170,o),
(1220,543,o),
(1428,651,c),
(1431,653,o),
(1437,671,o),
(1438,678,c),
(1443,704,o),
(1450,772,o),
(1445,807,c),
(1445,810,o),
(1442,836,o),
(1437,833,c),
(1228,721,o),
(1087,386,o),
(988,175,c),
(988,188,o),
(986,199,o),
(982,210,c),
(926,290,o),
(870,369,o),
(814,448,c),
(858,518,o),
(960,671,o),
(961,677,c),
(970,721,o),
(970,755,o),
(970,795,cs),
(970,813,o),
(967,853,o),
(958,837,c),
(907,759,o),
(804,607,o),
(755,529,c),
(684,627,o),
(613,725,o),
(540,820,c),
(533,828,o),
(523,796,o),
(520,777,cs),
(514,733,o),
(510,687,o),
(511,643,c),
(512,624,o),
(512,604,o),
(519,586,c),
(568,521,o),
(617,456,o),
(665,390,c),
(616,314,o),
(567,239,o),
(520,164,c),
(519,180,o),
(518,197,o),
(512,212,c),
(367,418,o),
(223,624,o),
(70,823,cs),
(47,853,o),
(28,644,o),
(49,589,c),
(201,390,o),
(346,184,o),
(490,-21,c),
(490,-30,o),
(491,-54,o),
(501,-37,c),
(516,-15,o),
(665,216,o),
(724,309,c),
(802,200,o),
(880,90,o),
(958,-19,c),
(958,-31,o),
(961,-52,o),
(968,-40,c)
);
}
);
width = 1467;
},
{
anchors = (
{
name = top;
pos = (716,800);
}
);
layerId = "76B40D95-58B1-4323-9BD9-765A1287C92C";
shapes = (
{
closed = 1;
nodes = (
(1003,151,o),
(1239,608,o),
(1406,705,c),
(1409,708,o),
(1411,714,o),
(1413,721,cs),
(1418,743,o),
(1418,778,o),
(1416,791,c),
(1416,793,o),
(1414,808,o),
(1412,807,c),
(1175,665,o),
(1062,354,o),
(946,114,c),
(946,161,o),
(938,160,o),
(912,199,c),
(860,273,o),
(807,346,o),
(755,420,c),
(804,497,o),
(921,675,o),
(924,689,c),
(929,716,o),
(932,744,o),
(928,772,cs),
(928,774,o),
(926,782,o),
(922,777,c),
(919,771,o),
(786,564,o),
(723,465,c),
(655,566,o),
(584,662,o),
(508,759,c),
(505,758,o),
(503,747,o),
(502,743,cs),
(496,715,o),
(494,687,o),
(495,658,c),
(496,648,o),
(495,637,o),
(499,627,c),
(564,543,o),
(612,475,o),
(674,388,c),
(614,295,o),
(555,202,o),
(495,109,c),
(494,123,o),
(495,138,o),
(491,149,c),
(464,192,o),
(43,770,o),
(40,775,c),
(32,804,o),
(17,673,o),
(28,645,c),
(63,600,o),
(361,187,o),
(475,25,c),
(475,21,o),
(475,-15,o),
(482,-7,c),
(556,110,o),
(632,226,o),
(707,343,c),
(780,240,o),
(853,138,o),
(924,33,c),
(923,24,o),
(923,-22,o),
(931,-11,c)
);
}
);
width = 1425;
},
{
anchors = (
{
name = top;
pos = (516,800);
}
);
layerId = m004;
shapes = (
{
closed = 1;
nodes = (
(705,151,o),
(879,608,o),
(997,705,c),
(1000,708,o),
(1001,714,o),
(1003,721,cs),
(1006,743,o),
(1007,778,o),
(1006,791,c),
(1006,793,o),
(1005,808,o),
(1003,807,c),
(835,665,o),
(750,354,o),
(664,114,c),
(665,161,o),
(660,160,o),
(642,199,c),
(607,273,o),
(571,346,o),
(536,420,c),
(572,497,o),
(657,675,o),
(660,689,c),
(664,716,o),
(666,744,o),
(664,772,cs),
(664,774,o),
(663,782,o),
(660,777,c),
(658,771,o),
(561,564,o),
(515,465,c),
(469,566,o),
(421,662,o),
(370,759,c),
(368,758,o),
(366,747,o),
(365,743,cs),
(361,715,o),
(359,687,o),
(359,658,c),
(359,648,o),
(358,637,o),
(361,627,c),
(405,543,o),
(437,475,o),
(479,388,c),
(435,295,o),
(392,202,o),
(349,109,c),
(348,123,o),
(349,138,o),
(346,149,c),
(328,192,o),
(44,770,o),
(42,775,c),
(37,804,o),
(24,673,o),
(32,645,c),
(55,600,o),
(256,187,o),
(333,25,c),
(333,21,o),
(332,-15,o),
(337,-7,c),
(391,110,o),
(447,226,o),
(501,343,c),
(550,240,o),
(600,138,o),
(647,33,c),
(647,24,o),
(646,-22,o),
(651,-11,c)
);
}
);
width = 998;
},
{
anchors = (
{
name = top;
pos = (511,800);
}
);
layerId = m005;
shapes = (
{
closed = 1;
nodes = (
(740,195,o),
(855,568,o),
(1003,677,c),
(1006,679,o),
(1008,691,o),
(1009,696,c),
(1012,719,o),
(1016,770,o),
(1014,793,c),
(1014,795,o),
(1013,816,o),
(1011,814,c),
(859,700,o),
(752,351,o),
(678,136,c),
(678,151,o),
(678,165,o),
(675,179,c),
(634,265,o),
(593,351,o),
(552,436,c),
(590,518,o),
(669,681,o),
(670,685,c),
(674,704,o),
(676,728,o),
(677,773,cs),
(678,783,o),
(676,816,o),
(671,806,c),
(660,782,o),
(561,580,o),
(522,497,c),
(475,595,o),
(427,694,o),
(376,790,c),
(371,801,o),
(366,769,o),
(365,758,cs),
(361,724,o),
(359,690,o),
(359,657,c),
(359,642,o),
(358,628,o),
(361,614,c),
(399,541,o),
(436,467,o),
(474,393,c),
(433,308,o),
(393,223,o),
(354,139,c),
(354,152,o),
(354,166,o),
(351,179,c),
(253,385,o),
(156,590,o),
(53,790,cs),
(39,816,o),
(30,647,o),
(37,614,c),
(141,415,o),
(238,209,o),
(336,5,c),
(336,-4,o),
(338,-21,o),
(341,-13,c),
(352,10,o),
(459,240,o),
(503,332,c),
(556,222,o),
(608,113,o),
(661,3,c),
(661,-6,o),
(664,-28,o),
(668,-16,c)
);
}
);
width = 1010;
},
{
anchors = (
{
name = top;
pos = (519,800);
}
);
layerId = m006;
shapes = (
{
closed = 1;
nodes = (
(749,170,o),
(864,543,o),
(1012,651,c),
(1014,653,o),
(1018,671,o),
(1019,678,c),
(1023,704,o),
(1029,772,o),
(1027,807,c),
(1027,810,o),
(1025,836,o),
(1021,833,c),
(873,721,o),
(768,386,o),
(695,175,c),
(695,188,o),
(694,199,o),
(691,210,c),
(654,290,o),
(616,369,o),
(578,448,c),
(610,518,o),
(685,671,o),
(685,677,c),
(692,721,o),
(693,755,o),
(694,795,cs),
(694,813,o),
(693,853,o),
(686,837,c),
(649,759,o),
(574,607,o),
(538,529,c),
(491,627,o),
(443,725,o),
(393,820,c),
(389,828,o),
(381,796,o),
(379,777,cs),
(373,733,o),
(370,687,o),
(370,643,c),
(370,624,o),
(370,604,o),
(374,586,c),
(407,521,o),
(440,456,o),
(473,390,c),
(437,314,o),
(401,239,o),
(367,164,c),
(367,180,o),
(366,197,o),
(362,212,c),
(265,418,o),
(168,624,o),
(64,823,cs),
(49,853,o),
(32,644,o),
(45,589,c),
(148,390,o),
(246,184,o),
(343,-21,c),
(342,-30,o),
(343,-54,o),
(350,-37,c),
(361,-15,o),
(470,216,o),
(513,309,c),
(565,200,o),
(618,90,o),
(670,-19,c),
(670,-31,o),
(672,-52,o),
(677,-40,c)
);
}
);
width = 1027;
},
{
anchors = (
{
name = top;
pos = (982,800);
}
);
layerId = m007;
shapes = (
{
closed = 1;
nodes = (
(1400,151,o),
(1719,608,o),
(1951,705,c),
(1955,708,o),
(1958,714,o),
(1960,721,cs),
(1967,743,o),
(1966,778,o),
(1963,791,c),
(1963,793,o),
(1959,808,o),
(1957,807,c),
(1628,665,o),
(1478,354,o),
(1322,114,c),
(1320,161,o),
(1309,160,o),
(1272,199,c),
(1197,273,o),
(1121,346,o),
(1047,420,c),
(1113,497,o),
(1273,675,o),
(1276,689,c),
(1283,716,o),
(1286,744,o),
(1280,772,cs),
(1280,774,o),
(1277,782,o),
(1271,777,c),
(1267,771,o),
(1086,564,o),
(1001,465,c),
(903,566,o),
(801,662,o),
(692,759,c),
(688,758,o),
(686,747,o),
(684,743,cs),
(677,715,o),
(674,687,o),
(677,658,c),
(678,648,o),
(677,637,o),
(683,627,c),
(776,543,o),
(845,475,o),
(934,388,c),
(852,295,o),
(772,202,o),
(690,109,c),
(689,123,o),
(690,138,o),
(684,149,c),
(645,192,o),
(41,770,o),
(37,775,c),
(25,804,o),
(7,673,o),
(23,645,c),
(73,600,o),
(501,187,o),
(664,25,c),
(664,21,o),
(665,-15,o),
(675,-7,c),
(776,110,o),
(879,226,o),
(981,343,c),
(1086,240,o),
(1191,138,o),
(1293,33,c),
(1292,24,o),
(1293,-22,o),
(1304,-11,c)
);
}
);
width = 1995;
},
{
anchors = (
{
name = top;
pos = (971,800);
}
);
layerId = m008;
shapes = (
{
closed = 1;
nodes = (
(1468,195,o),
(1674,568,o),
(1964,677,c),
(1970,679,o),
(1974,691,o),
(1975,696,c),
(1980,719,o),
(1984,770,o),
(1979,793,c),
(1979,795,o),
(1975,816,o),
(1970,814,c),
(1675,700,o),
(1482,351,o),
(1348,136,c),
(1346,151,o),
(1345,165,o),
(1338,179,c),
(1252,265,o),
(1164,351,o),
(1077,436,c),
(1148,518,o),
(1296,681,o),
(1298,685,c),
(1304,704,o),
(1308,728,o),
(1307,773,cs),
(1306,783,o),
(1301,816,o),
(1292,806,c),
(1271,782,o),
(1086,580,o),
(1014,497,c),
(912,595,o),
(810,694,o),
(703,790,c),
(691,801,o),
(684,769,o),
(682,758,cs),
(676,724,o),
(674,690,o),
(677,657,c),
(678,642,o),
(677,628,o),
(685,614,c),
(765,541,o),
(844,467,o),
(923,393,c),
(846,308,o),
(773,223,o),
(699,139,c),
(698,152,o),
(697,166,o),
(690,179,c),
(482,385,o),
(275,590,o),
(56,790,cs),
(27,816,o),
(19,647,o),
(36,614,c),
(257,415,o),
(464,209,o),
(672,5,c),
(672,-4,o),
(677,-21,o),
(684,-13,c),
(703,10,o),
(904,240,o),
(986,332,c),
(1098,222,o),
(1210,113,o),
(1322,3,c),
(1322,-6,o),
(1331,-28,o),
(1336,-16,c)
);
}
);
width = 2020;
},
{
anchors = (
{
name = top;
pos = (988,800);
}
);
layerId = m009;
shapes = (
{
closed = 1;
nodes = (
(1487,170,o),
(1694,543,o),
(1983,651,c),
(1987,653,o),
(1995,671,o),
(1996,678,c),
(2003,704,o),
(2011,772,o),
(2003,807,c),
(2003,810,o),
(1998,836,o),
(1991,833,c),
(1701,721,o),
(1512,386,o),
(1379,175,c),
(1379,188,o),
(1375,199,o),
(1370,210,c),
(1289,290,o),
(1209,369,o),
(1128,448,c),
(1188,518,o),
(1327,671,o),
(1328,677,c),
(1340,721,o),
(1339,755,o),
(1338,795,cs),
(1338,813,o),
(1333,853,o),
(1320,837,c),
(1251,759,o),
(1110,607,o),
(1044,529,c),
(942,627,o),
(840,725,o),
(736,820,c),
(726,828,o),
(712,796,o),
(709,777,cs),
(701,733,o),
(697,687,o),
(699,643,c),
(701,624,o),
(702,604,o),
(712,586,c),
(782,521,o),
(852,456,o),
(921,390,c),
(855,314,o),
(788,239,o),
(724,164,c),
(722,180,o),
(720,197,o),
(712,212,c),
(503,418,o),
(297,624,o),
(77,823,cs),
(45,853,o),
(23,644,o),
(54,589,c),
(272,390,o),
(480,184,o),
(687,-21,c),
(687,-30,o),
(689,-54,o),
(702,-37,c),
(723,-15,o),
(926,216,o),
(1006,309,c),
(1118,200,o),
(1230,90,o),
(1342,-19,c),
(1342,-31,o),
(1347,-52,o),
(1356,-40,c)
);
}
);
width = 2054;
}
);
unicode = 87;
},
{
glyphname = X;
lastChange = "2024-09-04 11:19:47 +0000";
layers = (
{
layerId = m01;
shapes = (
{
closed = 1;
nodes = (
(1078,-30,o),
(1112,-23,o),
(1143,-9,c),
(1155,4,o),
(1166,144,o),
(1150,133,c),
(929,47,o),
(636,211,o),
(465,347,c),
(594,459,o),
(722,572,o),
(850,685,c),
(865,709,o),
(868,795,o),
(859,822,c),
(858,826,o),
(856,826,o),
(854,823,c),
(846,816,o),
(840,811,o),
(832,804,c),
(684,675,o),
(537,544,o),
(388,415,c),
(280,521,o),
(191,650,o),
(144,795,c),
(141,804,o),
(136,788,o),
(136,788,c),
(127,751,o),
(123,697,o),
(131,659,c),
(169,544,o),
(233,439,o),
(311,347,c),
(225,271,o),
(142,199,o),
(55,123,c),
(40,98,o),
(37,-24,o),
(52,-15,c),
(59,-8,o),
(277,182,o),
(381,273,c),
(559,106,o),
(793,-35,o),
(1044,-32,c)
);
}
);
width = 1180;
},
{
layerId = "E3B43ECB-7726-4A5D-9A6F-096C3D942908";
shapes = (
{
closed = 1;
nodes = (
(1054,-39,o),
(1151,-19,o),
(1153,-9,c),
(1184,62,o),
(1162,172,o),
(1158,170,c),
(948,90,o),
(675,234,o),
(508,355,c),
(625,456,o),
(741,556,o),
(858,657,c),
(876,691,o),
(880,800,o),
(869,838,c),
(867,842,o),
(863,842,o),
(859,837,c),
(852,831,o),
(846,825,o),
(840,820,cs),
(695,694,o),
(549,569,o),
(403,443,c),
(295,547,o),
(209,672,o),
(161,813,c),
(157,824,o),
(151,803,o),
(152,804,c),
(141,762,o),
(139,719,o),
(140,676,c),
(148,571,o),
(235,439,o),
(302,356,c),
(223,288,o),
(145,220,o),
(65,153,c),
(44,99,o),
(42,-27,o),
(63,-27,c),
(144,43,o),
(312,187,o),
(393,257,c),
(537,120,o),
(791,-38,o),
(1013,-39,cs)
);
}
);
width = 1199;
},
{
layerId = "76B40D95-58B1-4323-9BD9-765A1287C92C";
shapes = (
{
closed = 1;
nodes = (
(1063,-14,o),
(1098,-8,o),
(1130,8,c),
(1140,19,o),
(1142,101,o),
(1135,105,c),
(900,13,o),
(601,190,o),
(424,340,c),
(555,454,o),
(826,691,o),
(837,701,c),
(848,712,o),
(848,781,o),
(843,796,c),
(842,798,o),
(841,798,o),
(840,796,c),
(832,789,o),
(825,783,o),
(818,776,c),
(664,643,o),
(525,521,o),
(372,387,c),
(261,496,o),
(169,629,o),
(120,778,c),
(119,785,o),
(115,774,o),
(115,774,c),
(109,752,o),
(107,707,o),
(112,685,c),
(155,557,o),
(227,440,o),
(319,340,c),
(222,255,o),
(141,182,o),
(44,98,c),
(34,82,o),
(32,21,o),
(38,3,c),
(39,1,o),
(295,226,o),
(368,290,c),
(550,119,o),
(771,-19,o),
(1028,-16,c)
);
}
);
width = 1155;
},
{
layerId = m004;
shapes = (
{
closed = 1;
nodes = (
(744,-14,o),
(768,-8,o),
(791,8,c),
(798,19,o),
(801,101,o),
(796,105,c),
(630,13,o),
(424,190,o),
(303,340,c),
(397,454,o),
(591,691,o),
(599,701,c),
(607,712,o),
(608,781,o),
(605,796,c),
(604,798,o),
(604,798,o),
(603,796,c),
(597,789,o),
(592,783,o),
(587,776,c),
(477,643,o),
(377,521,o),
(268,387,c),
(192,496,o),
(130,629,o),
(99,778,c),
(98,785,o),
(95,774,o),
(95,774,c),
(90,752,o),
(88,707,o),
(91,685,c),
(119,557,o),
(167,440,o),
(230,340,c),
(160,255,o),
(102,182,o),
(33,98,c),
(25,82,o),
(23,21,o),
(27,3,c),
(27,1,o),
(211,226,o),
(263,290,c),
(387,119,o),
(539,-19,o),
(719,-16,c)
);
}
);
width = 809;
},
{
layerId = m005;
shapes = (
{
closed = 1;
nodes = (
(754,-30,o),
(778,-23,o),
(800,-9,c),
(809,4,o),
(819,144,o),
(807,133,c),
(651,47,o),
(449,211,o),
(332,347,c),
(424,459,o),
(516,572,o),
(608,685,c),
(619,709,o),
(622,795,o),
(617,822,c),
(616,826,o),
(615,826,o),
(613,823,c),
(607,816,o),
(603,811,o),
(597,804,c),
(491,675,o),
(386,544,o),
(279,415,c),
(206,521,o),
(146,650,o),
(116,795,c),
(114,804,o),
(110,788,o),
(110,788,c),
(103,751,o),
(99,697,o),
(104,659,c),
(128,544,o),
(171,439,o),
(224,347,c),
(163,271,o),
(103,199,o),
(41,123,c),
(30,98,o),
(25,-24,o),
(36,-15,c),
(41,-8,o),
(197,182,o),
(272,273,c),
(393,106,o),
(554,-35,o),
(730,-32,c)
);
}
);
width = 826;
},
{
layerId = m006;
shapes = (
{
closed = 1;
nodes = (
(737,-39,o),
(805,-19,o),
(807,-9,c),
(830,62,o),
(817,172,o),
(814,170,c),
(665,90,o),
(477,234,o),
(362,355,c),
(446,456,o),
(529,556,o),
(613,657,c),
(626,691,o),
(631,800,o),
(624,838,c),
(623,842,o),
(620,842,o),
(617,837,c),
(612,831,o),
(608,825,o),
(603,820,cs),
(499,694,o),
(395,569,o),
(290,443,c),
(217,547,o),
(159,672,o),
(128,813,c),
(125,824,o),
(121,803,o),
(121,804,c),
(113,762,o),
(111,719,o),
(111,676,c),
(114,571,o),
(173,439,o),
(218,356,c),
(161,288,o),
(106,220,o),
(48,153,c),
(33,99,o),
(29,-27,o),
(44,-27,c),
(102,43,o),
(222,187,o),
(280,257,c),
(378,120,o),
(553,-38,o),
(708,-39,cs)
);
}
);
width = 839;
},
{
layerId = m007;
shapes = (
{
closed = 1;
nodes = (
(1489,-14,o),
(1537,-8,o),
(1582,8,c),
(1596,19,o),
(1596,101,o),
(1586,105,c),
(1260,13,o),
(837,190,o),
(585,340,c),
(766,454,o),
(1139,691,o),
(1154,701,c),
(1169,712,o),
(1168,781,o),
(1160,796,c),
(1159,798,o),
(1157,798,o),
(1156,796,c),
(1145,789,o),
(1135,783,o),
(1126,776,c),
(914,643,o),
(722,521,o),
(511,387,c),
(353,496,o),
(221,629,o),
(149,778,c),
(147,785,o),
(142,774,o),
(142,774,c),
(134,752,o),
(132,707,o),
(140,685,c),
(203,557,o),
(307,440,o),
(438,340,c),
(304,255,o),
(193,182,o),
(59,98,c),
(46,82,o),
(44,21,o),
(53,3,c),
(55,1,o),
(407,226,o),
(508,290,c),
(767,119,o),
(1080,-19,o),
(1440,-16,c)
);
}
);
width = 1617;
},
{
layerId = m008;
shapes = (
{
closed = 1;
nodes = (
(1510,-30,o),
(1557,-23,o),
(1600,-9,c),
(1617,4,o),
(1629,144,o),
(1607,133,c),
(1299,47,o),
(885,211,o),
(642,347,c),
(820,459,o),
(997,572,o),
(1173,685,c),
(1193,709,o),
(1195,795,o),
(1182,822,c),
(1181,826,o),
(1178,826,o),
(1175,823,c),
(1164,816,o),
(1156,811,o),
(1145,804,c),
(941,675,o),
(738,544,o),
(533,415,c),
(379,521,o),
(251,650,o),
(182,795,c),
(177,804,o),
(171,788,o),
(171,788,c),
(159,751,o),
(155,697,o),
(167,659,c),
(223,544,o),
(315,439,o),
(427,347,c),
(308,271,o),
(194,199,o),
(74,123,c),
(54,98,o),
(52,-24,o),
(73,-15,c),
(83,-8,o),
(383,182,o),
(527,273,c),
(780,106,o),
(1111,-35,o),
(1462,-32,c)
);
}
);
width = 1652;
},
{
layerId = m009;
shapes = (
{
closed = 1;
nodes = (
(1477,-39,o),
(1612,-19,o),
(1614,-9,c),
(1656,62,o),
(1623,172,o),
(1617,170,c),
(1325,90,o),
(939,234,o),
(702,355,c),
(864,456,o),
(1024,556,o),
(1185,657,c),
(1209,691,o),
(1212,800,o),
(1196,838,c),
(1193,842,o),
(1187,842,o),
(1182,837,c),
(1172,831,o),
(1164,825,o),
(1156,820,cs),
(956,694,o),
(754,569,o),
(553,443,c),
(399,547,o),
(276,672,o),
(205,813,c),
(199,824,o),
(191,803,o),
(193,804,c),
(178,762,o),
(177,719,o),
(179,676,c),
(193,571,o),
(318,439,o),
(414,356,c),
(305,288,o),
(198,220,o),
(87,153,c),
(59,99,o),
(59,-27,o),
(89,-27,c),
(201,43,o),
(432,187,o),
(544,257,c),
(749,120,o),
(1108,-38,o),
(1419,-39,cs)
);
}
);
width = 1679;
}
);
unicode = 88;
},
